<svg width="13" height="12" viewBox="0 0 13 12" fill="none" xmlns="http://www.w3.org/2000/svg">
<g id="ph:star-fill" clip-path="url(#clip0_94_2766)">
<path id="Vector" d="M12.6262 5.46557L10.0319 7.65223L10.809 10.9078C10.8502 11.078 10.8384 11.2561 10.7753 11.4199C10.7122 11.5837 10.6005 11.7259 10.4541 11.8286C10.3078 11.9314 10.1333 11.9903 9.95255 11.9979C9.77177 12.0054 9.59269 11.9613 9.43771 11.8711L6.49775 10.1489L3.56412 11.8711C3.40914 11.9613 3.23007 12.0054 3.04929 11.9979C2.86851 11.9903 2.69404 11.9314 2.54771 11.8286C2.40137 11.7259 2.28966 11.5837 2.22653 11.4199C2.16341 11.2561 2.15167 11.078 2.1928 10.9078L2.96877 7.65557L0.373948 5.46557C0.236705 5.35125 0.137464 5.20034 0.0886705 5.03176C0.0398766 4.86318 0.0437019 4.68445 0.0996665 4.51796C0.155631 4.35148 0.261244 4.20465 0.40326 4.09591C0.545277 3.98716 0.717376 3.92134 0.897975 3.90668L4.31824 3.62057L5.65333 0.545011C5.72305 0.383631 5.84065 0.245782 5.99132 0.148821C6.14199 0.0518599 6.319 0.00012207 6.50005 0.00012207C6.68111 0.00012207 6.85812 0.0518599 7.00879 0.148821C7.15946 0.245782 7.27706 0.383631 7.34678 0.545011L8.68589 3.62057L12.105 3.90668C12.2856 3.92134 12.4577 3.98716 12.5997 4.09591C12.7417 4.20465 12.8474 4.35148 12.9033 4.51796C12.9593 4.68445 12.9631 4.86318 12.9143 5.03176C12.8655 5.20034 12.7663 5.35125 12.629 5.46557H12.6262Z" fill="#FFD542"/>
</g>
<defs>
<clipPath id="clip0_94_2766">
<rect width="13" height="12" fill="white"/>
</clipPath>
</defs>
</svg>
