<svg width="43" height="44" viewBox="0 0 43 44" fill="none" xmlns="http://www.w3.org/2000/svg">
<g id="&#60;Group&#62;">
<path id="&#60;Path&#62;" d="M41.0388 22.4382C41.0388 33.2289 32.2571 41.9533 21.5238 41.9533C10.7332 41.9533 2.00879 33.2289 2.00879 22.4382C2.00879 11.6476 10.7332 2.92322 21.5238 2.92322C32.2571 2.92322 41.0388 11.6476 41.0388 22.4382Z" fill="url(#paint0_linear_94_3832)"/>
<g id="&#60;Group&#62;_2">
<path id="&#60;Compound Path&#62;" fill-rule="evenodd" clip-rule="evenodd" d="M21.5239 43.9623C9.64272 43.9623 0 34.3195 0 22.4383C0 10.5571 9.64272 0.914429 21.5239 0.914429C33.3477 0.914429 42.9904 10.5571 42.9904 22.4383C42.9904 34.3195 33.3477 43.9623 21.5239 43.9623ZM21.5239 4.93223C11.8238 4.93223 3.9604 12.7956 3.9604 22.4383C3.9604 32.0811 11.8238 39.9445 21.5239 39.9445C31.1666 39.9445 39.03 32.0811 39.03 22.4383C39.03 12.7956 31.1666 4.93223 21.5239 4.93223Z" fill="#FAFAFA"/>
</g>
<g id="&#60;Group&#62;_3">
<path id="&#60;Compound Path&#62;_2" fill-rule="evenodd" clip-rule="evenodd" d="M15.7397 29.464C13.8265 29.464 12.3916 28.7943 11.4349 27.4551C10.4783 26.1541 10 24.413 10 22.2319C10 20.0508 10.4783 18.3098 11.4349 17.0088C12.3916 15.6695 13.8265 14.9999 15.7397 14.9999C17.6912 14.9999 19.1453 15.6695 20.1019 17.0088C21.0585 18.3098 21.5368 20.0508 21.5368 22.2319C21.5368 24.413 21.0585 26.1541 20.1019 27.4551C19.1453 28.7943 17.6912 29.464 15.7397 29.464ZM13.7308 18.8455C13.2716 19.7256 13.042 20.8544 13.042 22.2319C13.042 23.6477 13.2716 24.7765 13.7308 25.6183C14.1517 26.4602 14.8214 26.8811 15.7397 26.8811C16.6963 26.8811 17.3851 26.4602 17.806 25.6183C18.2652 24.7765 18.4948 23.6477 18.4948 22.2319C18.4948 20.8544 18.2652 19.7256 17.806 18.8455C17.3851 18.0037 16.6963 17.5827 15.7397 17.5827C14.8214 17.5827 14.1517 18.0037 13.7308 18.8455Z" fill="white"/>
<path id="&#60;Compound Path&#62;_3" d="M23.8672 17.7038V14.9999H33.8063V17.1748L30.471 20.5252C31.7606 20.7212 32.7612 21.211 33.4727 21.9948C34.1843 22.7393 34.54 23.621 34.54 24.6399C34.54 26.129 33.9619 27.3046 32.8057 28.1667C31.6939 29.0288 30.2264 29.4599 28.4031 29.4599C26.6243 29.4599 24.8233 28.8917 23 27.7552L24.4675 25.2277C25.9795 26.1682 27.3358 26.6384 28.5365 26.6384C29.2925 26.6384 29.8929 26.4817 30.3376 26.1682C30.8267 25.8547 31.0713 25.404 31.0713 24.8162C31.0713 24.2284 30.8045 23.7582 30.2709 23.4055C29.7372 23.0528 28.9812 22.8765 28.0029 22.8765C27.5137 22.8765 26.8022 23.0136 25.8683 23.2879V20.9367L28.9368 17.7038H23.8672Z" fill="white"/>
</g>
</g>
<defs>
<linearGradient id="paint0_linear_94_3832" x1="-31.1886" y1="36.1045" x2="39.5689" y2="-34.653" gradientUnits="userSpaceOnUse">
<stop stop-color="#FC727E"/>
<stop offset="1" stop-color="#FC727E"/>
</linearGradient>
</defs>
</svg>
