<svg width="43" height="44" viewBox="0 0 43 44" fill="none" xmlns="http://www.w3.org/2000/svg">
<g id="&#60;Group&#62;">
<path id="&#60;Path&#62;" d="M41.0388 21.5238C41.0388 32.3145 32.2571 41.0388 21.5238 41.0388C10.7332 41.0388 2.00879 32.3145 2.00879 21.5238C2.00879 10.7332 10.7332 2.00879 21.5238 2.00879C32.2571 2.00879 41.0388 10.7332 41.0388 21.5238Z" fill="url(#paint0_linear_94_3431)"/>
<g id="&#60;Group&#62;_2">
<path id="&#60;Compound Path&#62;" fill-rule="evenodd" clip-rule="evenodd" d="M21.5239 43.0478C9.64272 43.0478 0 33.4051 0 21.5239C0 9.64271 9.64272 0 21.5239 0C33.3477 0 42.9904 9.64271 42.9904 21.5239C42.9904 33.4051 33.3477 43.0478 21.5239 43.0478ZM21.5239 4.0178C11.8238 4.0178 3.9604 11.8812 3.9604 21.5239C3.9604 31.1666 11.8238 39.03 21.5239 39.03C31.1666 39.03 39.03 31.1666 39.03 21.5239C39.03 11.8812 31.1666 4.0178 21.5239 4.0178Z" fill="#FAFAFA"/>
</g>
<g id="&#60;Group&#62;_3">
<path id="&#60;Compound Path&#62;_2" fill-rule="evenodd" clip-rule="evenodd" d="M17.5063 28.9283C15.5931 28.9283 14.1582 28.2587 13.2015 26.9194C12.2449 25.6184 11.7666 23.8774 11.7666 21.6963C11.7666 19.5152 12.2449 17.7741 13.2015 16.4731C14.1582 15.1339 15.5931 14.4642 17.5063 14.4642C19.4578 14.4642 20.9119 15.1339 21.8685 16.4731C22.8251 17.7741 23.3034 19.5152 23.3034 21.6963C23.3034 23.8774 22.8251 25.6184 21.8685 26.9194C20.9119 28.2587 19.4578 28.9283 17.5063 28.9283ZM15.4974 18.3098C15.0382 19.1899 14.8086 20.3187 14.8086 21.6963C14.8086 23.1121 15.0382 24.2409 15.4974 25.0827C15.9183 25.9245 16.588 26.3454 17.5063 26.3454C18.4629 26.3454 19.1517 25.9245 19.5726 25.0827C20.0318 24.2409 20.2614 23.1121 20.2614 21.6963C20.2614 20.3187 20.0318 19.1899 19.5726 18.3098C19.1517 17.468 18.4629 17.0471 17.5063 17.0471C16.588 17.0471 15.9183 17.468 15.4974 18.3098Z" fill="white"/>
<path id="&#60;Compound Path&#62;_3" d="M24.2222 14.8086H29.8471V28.7561H26.8624V17.4489H24.2222V14.8086Z" fill="white"/>
</g>
</g>
<defs>
<linearGradient id="paint0_linear_94_3431" x1="-31.1886" y1="35.1901" x2="39.5689" y2="-35.5674" gradientUnits="userSpaceOnUse">
<stop stop-color="#F8B45B"/>
<stop offset="1" stop-color="#F8B45B"/>
</linearGradient>
</defs>
</svg>
