<svg width="44" height="44" viewBox="0 0 44 44" fill="none" xmlns="http://www.w3.org/2000/svg">
<g id="&#60;Group&#62;">
<path id="&#60;Path&#62;" d="M41.2175 21.5239C41.2175 32.3146 32.4358 41.0389 21.7025 41.0389C10.9119 41.0389 2.1875 32.3146 2.1875 21.5239C2.1875 10.7333 10.9119 2.00891 21.7025 2.00891C32.4358 2.00891 41.2175 10.7333 41.2175 21.5239Z" fill="url(#paint0_linear_94_3662)"/>
<g id="&#60;Group&#62;_2">
<path id="&#60;Compound Path&#62;" fill-rule="evenodd" clip-rule="evenodd" d="M21.7026 43.048C9.82143 43.048 0.178711 33.4052 0.178711 21.524C0.178711 9.64284 9.82143 0.00012207 21.7026 0.00012207C33.5264 0.00012207 43.1692 9.64284 43.1692 21.524C43.1692 33.4052 33.5264 43.048 21.7026 43.048ZM21.7026 4.01792C12.0025 4.01792 4.13911 11.8813 4.13911 21.524C4.13911 31.1668 12.0025 39.0302 21.7026 39.0302C31.3453 39.0302 39.2088 31.1668 39.2088 21.524C39.2088 11.8813 31.3453 4.01792 21.7026 4.01792Z" fill="#FAFAFA"/>
</g>
<g id="&#60;Group&#62;_3">
<path id="&#60;Compound Path&#62;_2" fill-rule="evenodd" clip-rule="evenodd" d="M15.9184 28.9284C14.0052 28.9284 12.5703 28.2588 11.6136 26.9195C10.657 25.6185 10.1787 23.8775 10.1787 21.6964C10.1787 19.5153 10.657 17.7743 11.6136 16.4733C12.5703 15.134 14.0052 14.4644 15.9184 14.4644C17.8699 14.4644 19.324 15.134 20.2806 16.4733C21.2372 17.7743 21.7155 19.5153 21.7155 21.6964C21.7155 23.8775 21.2372 25.6185 20.2806 26.9195C19.324 28.2588 17.8699 28.9284 15.9184 28.9284ZM13.9095 18.31C13.4504 19.19 13.2208 20.3189 13.2208 21.6964C13.2208 23.1122 13.4504 24.241 13.9095 25.0828C14.3304 25.9246 15.0001 26.3456 15.9184 26.3456C16.875 26.3456 17.5638 25.9246 17.9847 25.0828C18.4439 24.241 18.6735 23.1122 18.6735 21.6964C18.6735 20.3189 18.4439 19.19 17.9847 18.31C17.5638 17.4681 16.875 17.0472 15.9184 17.0472C15.0001 17.0472 14.3304 17.4681 13.9095 18.31Z" fill="white"/>
<path id="&#60;Compound Path&#62;_3" d="M28.8837 19.6787C29.1905 19.1914 29.3439 18.7041 29.3439 18.2169C29.3439 17.7671 29.2076 17.3922 28.9348 17.0924C28.6621 16.7925 28.3042 16.6426 27.861 16.6426C27.0769 16.6426 26.3439 17.261 25.6621 18.498L23.4121 17.0361C23.9917 16.0241 24.6394 15.2744 25.3553 14.7871C26.0371 14.2624 26.9235 14 28.0144 14C29.0712 14 30.0087 14.3748 30.8269 15.1245C31.6451 15.8742 32.0541 16.905 32.0541 18.2169C32.0541 18.8916 31.8837 19.5663 31.5428 20.241C31.236 20.8782 30.6394 21.7028 29.753 22.7149L27.503 25.245H32.4121V28H23.6678V25.6948L27.2985 21.5904C28.0144 20.8032 28.5428 20.166 28.8837 19.6787Z" fill="white"/>
</g>
</g>
<defs>
<linearGradient id="paint0_linear_94_3662" x1="-31.0098" y1="35.1902" x2="39.7476" y2="-35.5673" gradientUnits="userSpaceOnUse">
<stop stop-color="#1256FB"/>
<stop offset="1" stop-color="#1256FB" stop-opacity="0.47"/>
</linearGradient>
</defs>
</svg>
