<svg width="51" height="48" viewBox="0 0 51 48" fill="none" xmlns="http://www.w3.org/2000/svg">
<g id="&#60;Group&#62;">
<g id="&#60;Group&#62;_2" style="mix-blend-mode:multiply" opacity="0.3">
<path id="&#60;Path&#62;" d="M32.4769 32.3543C32.4769 40.0247 26.2753 46.2263 18.6049 46.2263C10.9753 46.2263 4.73291 40.0247 4.73291 32.3543C4.73291 24.7247 10.9753 18.4823 18.6049 18.4823C26.2753 18.4823 32.4769 24.7247 32.4769 32.3543Z" fill="white"/>
<path id="&#60;Path&#62;_2" d="M32.7218 32.1504C32.7218 39.8208 26.5202 46.0224 18.8498 46.0224C11.1794 46.0224 4.97778 39.8208 4.97778 32.1504C4.97778 24.48 11.1794 18.2784 18.8498 18.2784C26.5202 18.2784 32.7218 24.48 32.7218 32.1504Z" fill="#F7F7F7"/>
<path id="&#60;Path&#62;_3" d="M32.9256 31.9055C32.9256 39.5759 26.724 45.7775 19.0536 45.7775C11.3832 45.7775 5.18164 39.5759 5.18164 31.9055C5.18164 24.2759 11.3832 18.0743 19.0536 18.0743C26.724 18.0743 32.9256 24.2759 32.9256 31.9055Z" fill="#EFEFEF"/>
<path id="&#60;Path&#62;_4" d="M33.1705 31.7015C33.1705 39.3719 26.9281 45.5735 19.2985 45.5735C11.6281 45.5735 5.42651 39.3719 5.42651 31.7015C5.42651 24.0311 11.6281 17.8295 19.2985 17.8295C26.9281 17.8295 33.1705 24.0311 33.1705 31.7015Z" fill="#E6E6E6"/>
<path id="&#60;Path&#62;_5" d="M33.3746 31.4975C33.3746 39.1271 27.173 45.3695 19.5026 45.3695C11.8322 45.3695 5.63062 39.1271 5.63062 31.4975C5.63062 23.8271 11.8322 17.6255 19.5026 17.6255C27.173 17.6255 33.3746 23.8271 33.3746 31.4975Z" fill="#DEDEDE"/>
<path id="&#60;Path&#62;_6" d="M33.5784 31.2527C33.5784 38.9231 27.3768 45.1247 19.7064 45.1247C12.0768 45.1247 5.87524 38.9231 5.87524 31.2527C5.87524 23.5823 12.0768 17.3807 19.7064 17.3807C27.3768 17.3807 33.5784 23.5823 33.5784 31.2527Z" fill="#D6D6D6"/>
<path id="&#60;Path&#62;_7" d="M33.8233 31.0488C33.8233 38.7192 27.6217 44.9208 19.9513 44.9208C12.2809 44.9208 6.07935 38.7192 6.07935 31.0488C6.07935 23.3784 12.2809 17.1768 19.9513 17.1768C27.6217 17.1768 33.8233 23.3784 33.8233 31.0488Z" fill="#CECECE"/>
<path id="&#60;Path&#62;_8" d="M34.0274 30.8039C34.0274 38.4743 27.8258 44.6759 20.1554 44.6759C12.5258 44.6759 6.28345 38.4743 6.28345 30.8039C6.28345 23.1743 12.5258 16.9319 20.1554 16.9319C27.8258 16.9319 34.0274 23.1743 34.0274 30.8039Z" fill="#C5C5C5"/>
<path id="&#60;Path&#62;_9" d="M34.2721 30.5999C34.2721 38.2703 28.0705 44.4719 20.4001 44.4719C12.7297 44.4719 6.52808 38.2703 6.52808 30.5999C6.52808 22.9295 12.7297 16.7279 20.4001 16.7279C28.0705 16.7279 34.2721 22.9295 34.2721 30.5999Z" fill="#BDBDBD"/>
<path id="&#60;Path&#62;_10" d="M34.4762 30.355C34.4762 38.0254 28.2746 44.227 20.6042 44.227C12.9338 44.227 6.73218 38.0254 6.73218 30.355C6.73218 22.7254 12.9338 16.483 20.6042 16.483C28.2746 16.483 34.4762 22.7254 34.4762 30.355Z" fill="#B5B5B5"/>
<path id="&#60;Path&#62;_11" d="M34.7208 30.1511C34.7208 37.8215 28.4784 44.0231 20.8488 44.0231C13.1784 44.0231 6.97681 37.8215 6.97681 30.1511C6.97681 22.4807 13.1784 16.2791 20.8488 16.2791C28.4784 16.2791 34.7208 22.4807 34.7208 30.1511Z" fill="#ADADAD"/>
<path id="&#60;Path&#62;_12" d="M34.9249 29.9471C34.9249 37.5767 28.7233 43.8191 21.0529 43.8191C13.3825 43.8191 7.18091 37.5767 7.18091 29.9471C7.18091 22.2767 13.3825 16.0751 21.0529 16.0751C28.7233 16.0751 34.9249 22.2767 34.9249 29.9471Z" fill="#A5A5A5"/>
<path id="&#60;Path&#62;_13" d="M35.129 29.7023C35.129 37.3727 28.9274 43.5743 21.257 43.5743C13.6274 43.5743 7.42578 37.3727 7.42578 29.7023C7.42578 22.0319 13.6274 15.8303 21.257 15.8303C28.9274 15.8303 35.129 22.0319 35.129 29.7023Z" fill="#9C9C9C"/>
<path id="&#60;Path&#62;_14" d="M35.3736 29.4983C35.3736 37.1279 29.172 43.3703 21.5016 43.3703C13.8312 43.3703 7.62964 37.1279 7.62964 29.4983C7.62964 21.8279 13.8312 15.6263 21.5016 15.6263C29.172 15.6263 35.3736 21.8279 35.3736 29.4983Z" fill="#949494"/>
<path id="&#60;Path&#62;_15" d="M35.5777 29.2535C35.5777 36.9239 29.3761 43.1255 21.7057 43.1255C14.0761 43.1255 7.83374 36.9239 7.83374 29.2535C7.83374 21.6239 14.0761 15.3815 21.7057 15.3815C29.3761 15.3815 35.5777 21.6239 35.5777 29.2535Z" fill="#8C8C8C"/>
<path id="&#60;Path&#62;_16" d="M35.8224 29.0495C35.8224 36.7199 29.6208 42.9215 21.9504 42.9215C14.28 42.9215 8.07837 36.7199 8.07837 29.0495C8.07837 21.3791 14.28 15.1775 21.9504 15.1775C29.6208 15.1775 35.8224 21.3791 35.8224 29.0495Z" fill="#848484"/>
<path id="&#60;Path&#62;_17" d="M36.0265 28.8047C36.0265 36.4751 29.8249 42.6767 22.1545 42.6767C14.4841 42.6767 8.28247 36.4751 8.28247 28.8047C8.28247 21.1751 14.4841 14.9327 22.1545 14.9327C29.8249 14.9327 36.0265 21.1751 36.0265 28.8047Z" fill="#7B7B7B"/>
<path id="&#60;Path&#62;_18" d="M36.2713 28.6007C36.2713 36.2711 30.0289 42.4727 22.3993 42.4727C14.7289 42.4727 8.52734 36.2711 8.52734 28.6007C8.52734 20.9303 14.7289 14.7287 22.3993 14.7287C30.0289 14.7287 36.2713 20.9303 36.2713 28.6007Z" fill="#737373"/>
<path id="&#60;Path&#62;_19" d="M36.4752 28.3968C36.4752 36.0264 30.2736 42.2688 22.6032 42.2688C14.9328 42.2688 8.7312 36.0264 8.7312 28.3968C8.7312 20.7264 14.9328 14.5248 22.6032 14.5248C30.2736 14.5248 36.4752 20.7264 36.4752 28.3968Z" fill="#808080"/>
<path id="&#60;Path&#62;_20" d="M36.6793 28.1519C36.6793 35.8223 30.4777 42.0239 22.8481 42.0239C15.1777 42.0239 8.97607 35.8223 8.97607 28.1519C8.97607 20.4815 15.1777 14.2799 22.8481 14.2799C30.4777 14.2799 36.6793 20.4815 36.6793 28.1519Z" fill="#636363"/>
<path id="&#60;Path&#62;_21" d="M36.9242 27.948C36.9242 35.5776 30.7226 41.82 23.0522 41.82C15.3818 41.82 9.18018 35.5776 9.18018 27.948C9.18018 20.2776 15.3818 14.076 23.0522 14.076C30.7226 14.076 36.9242 20.2776 36.9242 27.948Z" fill="#5A5A5A"/>
<path id="&#60;Path&#62;_22" d="M37.128 27.7031C37.128 35.3735 30.9264 41.5751 23.256 41.5751C15.6264 41.5751 9.38403 35.3735 9.38403 27.7031C9.38403 20.0735 15.6264 13.8311 23.256 13.8311C30.9264 13.8311 37.128 20.0735 37.128 27.7031Z" fill="#525252"/>
<path id="&#60;Path&#62;_23" d="M37.3729 27.4992C37.3729 35.1696 31.1713 41.3712 23.5009 41.3712C15.8305 41.3712 9.62891 35.1696 9.62891 27.4992C9.62891 19.8288 15.8305 13.6272 23.5009 13.6272C31.1713 13.6272 37.3729 19.8288 37.3729 27.4992Z" fill="#4A4A4A"/>
<path id="&#60;Path&#62;_24" d="M37.577 27.2543C37.577 34.9247 31.3754 41.1263 23.705 41.1263C16.0346 41.1263 9.83301 34.9247 9.83301 27.2543C9.83301 19.6247 16.0346 13.3823 23.705 13.3823C31.3754 13.3823 37.577 19.6247 37.577 27.2543Z" fill="#424242"/>
<path id="&#60;Path&#62;_25" d="M37.8216 27.0504C37.8216 34.7208 31.5792 40.9224 23.9496 40.9224C16.2792 40.9224 10.0776 34.7208 10.0776 27.0504C10.0776 19.38 16.2792 13.1784 23.9496 13.1784C31.5792 13.1784 37.8216 19.38 37.8216 27.0504Z" fill="#3A3A3A"/>
<path id="&#60;Path&#62;_26" d="M38.0257 26.8463C38.0257 34.4759 31.8241 40.7183 24.1537 40.7183C16.4833 40.7183 10.2817 34.4759 10.2817 26.8463C10.2817 19.1759 16.4833 12.9743 24.1537 12.9743C31.8241 12.9743 38.0257 19.1759 38.0257 26.8463Z" fill="#313131"/>
<path id="&#60;Path&#62;_27" d="M38.2296 26.6014C38.2296 34.2718 32.028 40.4734 24.3984 40.4734C16.728 40.4734 10.5264 34.2718 10.5264 26.6014C10.5264 18.931 16.728 12.7294 24.3984 12.7294C32.028 12.7294 38.2296 18.931 38.2296 26.6014Z" fill="#292929"/>
<path id="&#60;Path&#62;_28" d="M38.4745 26.3975C38.4745 34.0271 32.2729 40.2695 24.6025 40.2695C16.9321 40.2695 10.7305 34.0271 10.7305 26.3975C10.7305 18.7271 16.9321 12.5255 24.6025 12.5255C32.2729 12.5255 38.4745 18.7271 38.4745 26.3975Z" fill="#212121"/>
<path id="&#60;Path&#62;_29" d="M38.6786 26.1526C38.6786 33.823 32.477 40.0246 24.8066 40.0246C17.177 40.0246 10.9346 33.823 10.9346 26.1526C10.9346 18.523 17.177 12.2806 24.8066 12.2806C32.477 12.2806 38.6786 18.523 38.6786 26.1526Z" fill="#191919"/>
<path id="&#60;Path&#62;_30" d="M38.9234 25.9487C38.9234 33.6191 32.7218 39.8207 25.0514 39.8207C17.381 39.8207 11.1794 33.6191 11.1794 25.9487C11.1794 18.2783 17.381 12.0767 25.0514 12.0767C32.7218 12.0767 38.9234 18.2783 38.9234 25.9487Z" fill="#101010"/>
<path id="&#60;Path&#62;_31" d="M39.1273 25.7038C39.1273 33.3742 32.9257 39.5758 25.2553 39.5758C17.5849 39.5758 11.3833 33.3742 11.3833 25.7038C11.3833 18.0742 17.5849 11.8318 25.2553 11.8318C32.9257 11.8318 39.1273 18.0742 39.1273 25.7038Z" fill="#080808"/>
<path id="&#60;Path&#62;_32" d="M39.3722 25.4999C39.3722 33.1703 33.1298 39.3719 25.5002 39.3719C17.8298 39.3719 11.6282 33.1703 11.6282 25.4999C11.6282 17.8295 17.8298 11.6279 25.5002 11.6279C33.1298 11.6279 39.3722 17.8295 39.3722 25.4999Z" fill="black"/>
</g>
<g id="&#60;Group&#62;_3">
<path id="&#60;Path&#62;_33" d="M2.244 25.5C2.244 25.0376 2.2576 24.5752 2.2848 24.1128L0.0407994 23.9904C0.0135994 24.48 0 24.9832 0 25.5C0 34.272 4.4064 42.3504 11.8728 47.0424L13.056 45.1656C6.2832 40.8408 2.244 33.4968 2.244 25.5Z" fill="url(#paint0_linear_94_2783)"/>
<path id="&#60;Path&#62;_34" d="M48.7152 25.5C48.7152 33.9456 44.1048 41.7792 36.72 45.8592L37.7808 47.8584C45.9408 43.3296 51 34.8024 51 25.5H48.7152Z" fill="url(#paint1_linear_94_2783)"/>
<path id="&#60;Path&#62;_35" d="M40.3921 4.7736C36.0265 1.6728 30.8857 0 25.5001 0C21.6649 0 17.9521 0.815999 14.5249 2.448L15.5041 4.488C18.6457 3.0192 21.9913 2.244 25.5001 2.244C30.3961 2.244 35.0881 3.7536 39.0457 6.6504L40.3921 4.7736Z" fill="url(#paint2_linear_94_2783)"/>
</g>
<g id="&#60;Group&#62;_4">
<path id="&#60;Path&#62;_36" d="M28.8864 8.16007L29.2944 5.95687C27.0912 5.50807 24.8472 5.46727 22.644 5.79367C13.3416 7.14007 6.3648 14.6065 5.5896 23.9497L7.8744 24.1129C8.5272 15.8305 14.7288 9.22087 22.9296 8.03767C24.9288 7.75207 26.928 7.79287 28.8864 8.16007Z" fill="url(#paint3_linear_94_2783)"/>
<path id="&#60;Path&#62;_37" d="M43.0033 23.0112C44.3905 32.64 37.6585 41.616 28.0297 43.044C27.3769 43.1256 26.7105 43.18 26.0305 43.2072L26.1121 45.492C26.8737 45.4648 27.6217 45.3968 28.3561 45.288C39.2497 43.6968 46.7977 33.5376 45.2473 22.6848L43.0033 23.0112Z" fill="url(#paint4_linear_94_2783)"/>
</g>
<path id="&#60;Path&#62;_38" d="M39.3719 25.5C39.3719 33.1704 33.1295 39.372 25.4999 39.372C17.8295 39.372 11.6279 33.1704 11.6279 25.5C11.6279 17.8296 17.8295 11.628 25.4999 11.628C33.1295 11.628 39.3719 17.8296 39.3719 25.5Z" fill="url(#paint5_linear_94_2783)"/>
<g id="&#60;Group&#62;_5">
<path id="&#60;Compound Path&#62;" fill-rule="evenodd" clip-rule="evenodd" d="M25.5 40.8C17.0544 40.8 10.2 33.9456 10.2 25.5C10.2 17.0544 17.0544 10.2 25.5 10.2C33.9048 10.2 40.7592 17.0544 40.7592 25.5C40.7592 33.9456 33.9048 40.8 25.5 40.8ZM25.5 13.056C18.6048 13.056 13.0152 18.6456 13.0152 25.5C13.0152 32.3544 18.6048 37.944 25.5 37.944C32.3544 37.944 37.944 32.3544 37.944 25.5C37.944 18.6456 32.3544 13.056 25.5 13.056Z" fill="white"/>
</g>
<g id="&#60;Group&#62;_6">
<path id="&#60;Compound Path&#62;_2" fill-rule="evenodd" clip-rule="evenodd" d="M22.644 30.7632C21.284 30.7632 20.264 30.2872 19.584 29.3352C18.904 28.4104 18.564 27.1728 18.564 25.6224C18.564 24.072 18.904 22.8344 19.584 21.9096C20.264 20.9576 21.284 20.4816 22.644 20.4816C24.0312 20.4816 25.0648 20.9576 25.7448 21.9096C26.4248 22.8344 26.7648 24.072 26.7648 25.6224C26.7648 27.1728 26.4248 28.4104 25.7448 29.3352C25.0648 30.2872 24.0312 30.7632 22.644 30.7632ZM21.216 23.2152C20.8896 23.8408 20.7264 24.6432 20.7264 25.6224C20.7264 26.6288 20.8896 27.4312 21.216 28.0296C21.5152 28.628 21.9912 28.9272 22.644 28.9272C23.324 28.9272 23.8136 28.628 24.1128 28.0296C24.4392 27.4312 24.6024 26.6288 24.6024 25.6224C24.6024 24.6432 24.4392 23.8408 24.1128 23.2152C23.8136 22.6168 23.324 22.3176 22.644 22.3176C21.9912 22.3176 21.5152 22.6168 21.216 23.2152Z" fill="white"/>
<path id="&#60;Compound Path&#62;_3" d="M27.4177 20.7264H31.4161V30.6408H29.2945V22.6032H27.4177V20.7264Z" fill="white"/>
</g>
</g>
<defs>
<linearGradient id="paint0_linear_94_2783" x1="-25.4685" y1="42.0664" x2="10.9729" y2="9.751" gradientUnits="userSpaceOnUse">
<stop stop-color="#FC727E"/>
<stop offset="1" stop-color="#FC727E" stop-opacity="0.72"/>
</linearGradient>
<linearGradient id="paint1_linear_94_2783" x1="8.86377" y1="43.0322" x2="44.4642" y2="7.43172" gradientUnits="userSpaceOnUse">
<stop stop-color="#FC727E"/>
<stop offset="1" stop-color="#FC727E" stop-opacity="0.72"/>
</linearGradient>
<linearGradient id="paint2_linear_94_2783" x1="-35.9346" y1="5.21486" x2="-32.5483" y2="-15.4075" gradientUnits="userSpaceOnUse">
<stop stop-color="#FC727E"/>
<stop offset="1" stop-color="#FC727E" stop-opacity="0.72"/>
</linearGradient>
<linearGradient id="paint3_linear_94_2783" x1="-40.6517" y1="20.1123" x2="-17.0622" y2="-27.1282" gradientUnits="userSpaceOnUse">
<stop stop-color="#FC727E"/>
<stop offset="1" stop-color="#FC727E" stop-opacity="0.72"/>
</linearGradient>
<linearGradient id="paint4_linear_94_2783" x1="-11.8497" y1="40.5689" x2="23.0145" y2="-5.90828" gradientUnits="userSpaceOnUse">
<stop stop-color="#FC727E"/>
<stop offset="1" stop-color="#FC727E" stop-opacity="0.72"/>
</linearGradient>
<linearGradient id="paint5_linear_94_2783" x1="-42.4927" y1="33.3832" x2="-2.41311" y2="-29.37" gradientUnits="userSpaceOnUse">
<stop stop-color="#FC727E"/>
<stop offset="1" stop-color="#FC727E" stop-opacity="0.72"/>
</linearGradient>
</defs>
</svg>
