<svg width="51" height="48" viewBox="0 0 51 48" fill="none" xmlns="http://www.w3.org/2000/svg">
<g id="&#60;Group&#62;">
<g id="&#60;Group&#62;_2" style="mix-blend-mode:multiply" opacity="0.3">
<path id="&#60;Path&#62;" d="M32.5174 32.3554C32.5174 40.0261 26.3158 46.2279 18.6454 46.2279C10.975 46.2279 4.77344 40.0261 4.77344 32.3554C4.77344 24.7256 10.975 18.483 18.6454 18.483C26.3158 18.483 32.5174 24.7256 32.5174 32.3554Z" fill="white"/>
<path id="&#60;Path&#62;_2" d="M32.7215 32.1514C32.7215 39.8221 26.5199 46.0239 18.8495 46.0239C11.1791 46.0239 4.97754 39.8221 4.97754 32.1514C4.97754 24.4808 11.1791 18.279 18.8495 18.279C26.5199 18.279 32.7215 24.4808 32.7215 32.1514Z" fill="#F7F7F7"/>
<path id="&#60;Path&#62;_3" d="M32.9662 31.9066C32.9662 39.5773 26.7238 45.7791 19.0942 45.7791C11.4238 45.7791 5.22217 39.5773 5.22217 31.9066C5.22217 24.2768 11.4238 18.075 19.0942 18.075C26.7238 18.075 32.9662 24.2768 32.9662 31.9066Z" fill="#EFEFEF"/>
<path id="&#60;Path&#62;_4" d="M33.1703 31.7026C33.1703 39.3733 26.9687 45.5751 19.2983 45.5751C11.6279 45.5751 5.42627 39.3733 5.42627 31.7026C5.42627 24.032 11.6279 17.8302 19.2983 17.8302C26.9687 17.8302 33.1703 24.032 33.1703 31.7026Z" fill="#E6E6E6"/>
<path id="&#60;Path&#62;_5" d="M33.3741 31.4986C33.3741 39.1285 27.1725 45.3711 19.5021 45.3711C11.8725 45.3711 5.6709 39.1285 5.6709 31.4986C5.6709 23.828 11.8725 17.6262 19.5021 17.6262C27.1725 17.6262 33.3741 23.828 33.3741 31.4986Z" fill="#DEDEDE"/>
<path id="&#60;Path&#62;_6" d="M33.619 31.2538C33.619 38.9245 27.4174 45.1263 19.747 45.1263C12.0766 45.1263 5.875 38.9245 5.875 31.2538C5.875 23.5832 12.0766 17.3813 19.747 17.3813C27.4174 17.3813 33.619 23.5832 33.619 31.2538Z" fill="#D6D6D6"/>
<path id="&#60;Path&#62;_7" d="M33.8231 31.0498C33.8231 38.7205 27.6215 44.9223 19.9511 44.9223C12.3215 44.9223 6.0791 38.7205 6.0791 31.0498C6.0791 23.3791 12.3215 17.1773 19.9511 17.1773C27.6215 17.1773 33.8231 23.3791 33.8231 31.0498Z" fill="#CECECE"/>
<path id="&#60;Path&#62;_8" d="M34.0677 30.805C34.0677 38.4756 27.8661 44.6775 20.1957 44.6775C12.5253 44.6775 6.32373 38.4756 6.32373 30.805C6.32373 23.1751 12.5253 16.9325 20.1957 16.9325C27.8661 16.9325 34.0677 23.1751 34.0677 30.805Z" fill="#C5C5C5"/>
<path id="&#60;Path&#62;_9" d="M34.2718 30.601C34.2718 38.2716 28.0702 44.4734 20.3998 44.4734C12.7294 44.4734 6.52783 38.2716 6.52783 30.601C6.52783 22.9303 12.7294 16.7285 20.3998 16.7285C28.0702 16.7285 34.2718 22.9303 34.2718 30.601Z" fill="#BDBDBD"/>
<path id="&#60;Path&#62;_10" d="M34.5167 30.3562C34.5167 38.0269 28.2743 44.2287 20.6447 44.2287C12.9743 44.2287 6.77271 38.0269 6.77271 30.3562C6.77271 22.7263 12.9743 16.4837 20.6447 16.4837C28.2743 16.4837 34.5167 22.7263 34.5167 30.3562Z" fill="#B5B5B5"/>
<path id="&#60;Path&#62;_11" d="M34.7206 30.1522C34.7206 37.8228 28.519 44.0247 20.8486 44.0247C13.1782 44.0247 6.97656 37.8228 6.97656 30.1522C6.97656 22.4815 13.1782 16.2797 20.8486 16.2797C28.519 16.2797 34.7206 22.4815 34.7206 30.1522Z" fill="#ADADAD"/>
<path id="&#60;Path&#62;_12" d="M34.9246 29.9482C34.9246 37.578 28.723 43.8206 21.0934 43.8206C13.423 43.8206 7.22144 37.578 7.22144 29.9482C7.22144 22.2775 13.423 16.0757 21.0934 16.0757C28.723 16.0757 34.9246 22.2775 34.9246 29.9482Z" fill="#A5A5A5"/>
<path id="&#60;Path&#62;_13" d="M35.1693 29.7034C35.1693 37.374 28.9677 43.5758 21.2973 43.5758C13.6269 43.5758 7.42529 37.374 7.42529 29.7034C7.42529 22.0327 13.6269 15.8309 21.2973 15.8309C28.9677 15.8309 35.1693 22.0327 35.1693 29.7034Z" fill="#9C9C9C"/>
<path id="&#60;Path&#62;_14" d="M35.3734 29.4994C35.3734 37.1292 29.1718 43.3718 21.5014 43.3718C13.8718 43.3718 7.62939 37.1292 7.62939 29.4994C7.62939 21.8287 13.8718 15.6269 21.5014 15.6269C29.1718 15.6269 35.3734 21.8287 35.3734 29.4994Z" fill="#949494"/>
<path id="&#60;Path&#62;_15" d="M35.6183 29.2545C35.6183 36.9252 29.4167 43.127 21.7463 43.127C14.0759 43.127 7.87427 36.9252 7.87427 29.2545C7.87427 21.6247 14.0759 15.3821 21.7463 15.3821C29.4167 15.3821 35.6183 21.6247 35.6183 29.2545Z" fill="#8C8C8C"/>
<path id="&#60;Path&#62;_16" d="M35.8221 29.0505C35.8221 36.7212 29.6205 42.923 21.9501 42.923C14.2797 42.923 8.07812 36.7212 8.07812 29.0505C8.07812 21.3799 14.2797 15.1781 21.9501 15.1781C29.6205 15.1781 35.8221 21.3799 35.8221 29.0505Z" fill="#848484"/>
<path id="&#60;Path&#62;_17" d="M36.067 28.8057C36.067 36.4764 29.8246 42.6782 22.195 42.6782C14.5246 42.6782 8.323 36.4764 8.323 28.8057C8.323 21.1759 14.5246 14.9333 22.195 14.9333C29.8246 14.9333 36.067 21.1759 36.067 28.8057Z" fill="#7B7B7B"/>
<path id="&#60;Path&#62;_18" d="M36.2709 28.6017C36.2709 36.2724 30.0693 42.4742 22.3989 42.4742C14.7285 42.4742 8.52686 36.2724 8.52686 28.6017C8.52686 20.9311 14.7285 14.7292 22.3989 14.7292C30.0693 14.7292 36.2709 20.9311 36.2709 28.6017Z" fill="#737373"/>
<path id="&#60;Path&#62;_19" d="M36.4752 28.3977C36.4752 36.0276 30.2736 42.2702 22.644 42.2702C14.9736 42.2702 8.77197 36.0276 8.77197 28.3977C8.77197 20.727 14.9736 14.5252 22.644 14.5252C30.2736 14.5252 36.4752 20.727 36.4752 28.3977Z" fill="#808080"/>
<path id="&#60;Path&#62;_20" d="M36.7198 28.1529C36.7198 35.8236 30.5182 42.0254 22.8478 42.0254C15.1774 42.0254 8.97583 35.8236 8.97583 28.1529C8.97583 20.4823 15.1774 14.2805 22.8478 14.2805C30.5182 14.2805 36.7198 20.4823 36.7198 28.1529Z" fill="#636363"/>
<path id="&#60;Path&#62;_21" d="M36.9239 27.9489C36.9239 35.5788 30.7223 41.8214 23.0519 41.8214C15.4223 41.8214 9.17993 35.5788 9.17993 27.9489C9.17993 20.2783 15.4223 14.0764 23.0519 14.0764C30.7223 14.0764 36.9239 20.2783 36.9239 27.9489Z" fill="#5A5A5A"/>
<path id="&#60;Path&#62;_22" d="M37.1688 27.7041C37.1688 35.3748 30.9672 41.5766 23.2968 41.5766C15.6264 41.5766 9.4248 35.3748 9.4248 27.7041C9.4248 20.0742 15.6264 13.8316 23.2968 13.8316C30.9672 13.8316 37.1688 20.0742 37.1688 27.7041Z" fill="#525252"/>
<path id="&#60;Path&#62;_23" d="M37.3727 27.5001C37.3727 35.1707 31.1711 41.3726 23.5007 41.3726C15.8303 41.3726 9.62866 35.1707 9.62866 27.5001C9.62866 19.8294 15.8303 13.6276 23.5007 13.6276C31.1711 13.6276 37.3727 19.8294 37.3727 27.5001Z" fill="#4A4A4A"/>
<path id="&#60;Path&#62;_24" d="M37.6175 27.2553C37.6175 34.9259 31.3751 41.1277 23.7455 41.1277C16.0751 41.1277 9.87354 34.9259 9.87354 27.2553C9.87354 19.6254 16.0751 13.3828 23.7455 13.3828C31.3751 13.3828 37.6175 19.6254 37.6175 27.2553Z" fill="#424242"/>
<path id="&#60;Path&#62;_25" d="M37.8216 27.0513C37.8216 34.7219 31.62 40.9237 23.9496 40.9237C16.2792 40.9237 10.0776 34.7219 10.0776 27.0513C10.0776 19.3806 16.2792 13.1788 23.9496 13.1788C31.62 13.1788 37.8216 19.3806 37.8216 27.0513Z" fill="#3A3A3A"/>
<path id="&#60;Path&#62;_26" d="M38.0255 26.8473C38.0255 34.4771 31.8239 40.7197 24.1943 40.7197C16.5239 40.7197 10.3223 34.4771 10.3223 26.8473C10.3223 19.1766 16.5239 12.9748 24.1943 12.9748C31.8239 12.9748 38.0255 19.1766 38.0255 26.8473Z" fill="#313131"/>
<path id="&#60;Path&#62;_27" d="M38.2704 26.6025C38.2704 34.2731 32.0688 40.4749 24.3984 40.4749C16.728 40.4749 10.5264 34.2731 10.5264 26.6025C10.5264 18.9318 16.728 12.73 24.3984 12.73C32.0688 12.73 38.2704 18.9318 38.2704 26.6025Z" fill="#292929"/>
<path id="&#60;Path&#62;_28" d="M38.4742 26.3985C38.4742 34.0283 32.2726 40.2709 24.6022 40.2709C16.9726 40.2709 10.7302 34.0283 10.7302 26.3985C10.7302 18.7278 16.9726 12.526 24.6022 12.526C32.2726 12.526 38.4742 18.7278 38.4742 26.3985Z" fill="#212121"/>
<path id="&#60;Path&#62;_29" d="M38.7191 26.1536C38.7191 33.8243 32.5175 40.0261 24.8471 40.0261C17.1767 40.0261 10.9751 33.8243 10.9751 26.1536C10.9751 18.5238 17.1767 12.2812 24.8471 12.2812C32.5175 12.2812 38.7191 18.5238 38.7191 26.1536Z" fill="#191919"/>
<path id="&#60;Path&#62;_30" d="M38.9232 25.9496C38.9232 33.6203 32.7216 39.8221 25.0512 39.8221C17.3808 39.8221 11.1792 33.6203 11.1792 25.9496C11.1792 18.279 17.3808 12.0771 25.0512 12.0771C32.7216 12.0771 38.9232 18.279 38.9232 25.9496Z" fill="#101010"/>
<path id="&#60;Path&#62;_31" d="M39.1678 25.7048C39.1678 33.3755 32.9254 39.5773 25.2958 39.5773C17.6254 39.5773 11.4238 33.3755 11.4238 25.7048C11.4238 18.075 17.6254 11.8324 25.2958 11.8324C32.9254 11.8324 39.1678 18.075 39.1678 25.7048Z" fill="#080808"/>
<path id="&#60;Path&#62;_32" d="M39.3719 25.5009C39.3719 33.1715 33.1703 39.3733 25.4999 39.3733C17.8295 39.3733 11.6279 33.1715 11.6279 25.5009C11.6279 17.8302 17.8295 11.6284 25.4999 11.6284C33.1703 11.6284 39.3719 17.8302 39.3719 25.5009Z" fill="black"/>
</g>
<g id="&#60;Group&#62;_3">
<path id="&#60;Path&#62;_33" d="M2.244 25.5009C2.244 25.0384 2.2576 24.576 2.2848 24.1136L0.0408025 23.9912C0.0136025 24.4808 0 24.984 0 25.5009C0 34.2732 4.4472 42.3518 11.8728 47.044L13.0968 45.1671C6.324 40.8422 2.244 33.4979 2.244 25.5009Z" fill="url(#paint0_linear_94_2881)"/>
<path id="&#60;Path&#62;_34" d="M48.756 25.5009C48.756 33.9467 44.1456 41.7806 36.72 45.8607L37.8216 47.86C45.9408 43.3311 51 34.8036 51 25.5009H48.756Z" fill="url(#paint1_linear_94_2881)"/>
<path id="&#60;Path&#62;_35" d="M40.3921 4.77376C36.0265 1.67286 30.8857 0 25.5001 0C21.6649 0 17.9929 0.816026 14.5657 2.44808L15.5449 4.48815C18.6457 3.0193 22.0321 2.24407 25.5001 2.24407C30.3961 2.24407 35.0881 3.75373 39.0865 6.65062L40.3921 4.77376Z" fill="url(#paint2_linear_94_2881)"/>
</g>
<g id="&#60;Group&#62;_4">
<path id="&#60;Path&#62;_36" d="M28.8864 8.16025L29.3352 5.95698C27.132 5.50816 24.888 5.46736 22.644 5.79377C13.3824 7.14022 6.36477 14.6069 5.63037 23.9504L7.87437 24.1136C8.52717 15.8309 14.7288 9.22109 22.9704 8.03785C24.9696 7.75224 26.928 7.79304 28.8864 8.16025Z" fill="url(#paint3_linear_94_2881)"/>
<path id="&#60;Path&#62;_37" d="M43.0033 23.0119C44.3905 32.641 37.6993 41.6173 28.0297 43.0454C27.3769 43.127 26.7241 43.1814 26.0713 43.2086L26.1529 45.4935C26.8873 45.4663 27.6217 45.3983 28.3561 45.2895C39.2497 43.6982 46.8385 33.5387 45.2473 22.6855L43.0033 23.0119Z" fill="url(#paint4_linear_94_2881)"/>
</g>
<path id="&#60;Path&#62;_38" d="M39.3719 25.5009C39.3719 33.1715 33.1703 39.3733 25.4999 39.3733C17.8295 39.3733 11.6279 33.1715 11.6279 25.5009C11.6279 17.8302 17.8295 11.6284 25.4999 11.6284C33.1703 11.6284 39.3719 17.8302 39.3719 25.5009Z" fill="url(#paint5_linear_94_2881)"/>
<g id="&#60;Group&#62;_5">
<path id="&#60;Compound Path&#62;" fill-rule="evenodd" clip-rule="evenodd" d="M25.5 40.8014C17.0952 40.8014 10.2 33.9467 10.2 25.5009C10.2 17.055 17.0952 10.2003 25.5 10.2003C33.9456 10.2003 40.7999 17.055 40.7999 25.5009C40.7999 33.9467 33.9456 40.8014 25.5 40.8014ZM25.5 13.0564C18.6456 13.0564 13.056 18.6462 13.056 25.5009C13.056 32.3555 18.6456 37.9453 25.5 37.9453C32.3544 37.9453 37.944 32.3555 37.944 25.5009C37.944 18.6462 32.3544 13.0564 25.5 13.0564Z" fill="white"/>
</g>
<g id="&#60;Group&#62;_6">
<path id="&#60;Compound Path&#62;_2" fill-rule="evenodd" clip-rule="evenodd" d="M21.3383 30.7642C19.9783 30.7642 18.9583 30.2882 18.2783 29.3362C17.5983 28.4114 17.2583 27.1737 17.2583 25.6233C17.2583 24.0728 17.5983 22.8352 18.2783 21.9103C18.9583 20.9583 19.9783 20.4823 21.3383 20.4823C22.7255 20.4823 23.7591 20.9583 24.4391 21.9103C25.1191 22.8352 25.4591 24.0728 25.4591 25.6233C25.4591 27.1737 25.1191 28.4114 24.4391 29.3362C23.7591 30.2882 22.7255 30.7642 21.3383 30.7642ZM19.8695 23.216C19.5703 23.8416 19.4207 24.644 19.4207 25.6233C19.4207 26.6297 19.5703 27.4321 19.8695 28.0305C20.1959 28.629 20.6855 28.9282 21.3383 28.9282C21.9911 28.9282 22.4807 28.629 22.8071 28.0305C23.1063 27.4321 23.2559 26.6297 23.2559 25.6233C23.2559 24.644 23.1063 23.8416 22.8071 23.216C22.4807 22.6176 21.9911 22.3184 21.3383 22.3184C20.6855 22.3184 20.1959 22.6176 19.8695 23.216Z" fill="white"/>
<path id="&#60;Compound Path&#62;_3" d="M26.7238 22.6039V20.7271H32.803V22.2367L30.763 24.5624C31.5518 24.6984 32.1638 25.0384 32.599 25.5824C33.0342 26.0992 33.2518 26.7112 33.2518 27.4185C33.2518 28.4521 32.8982 29.2681 32.191 29.8666C31.511 30.465 30.6133 30.7642 29.4981 30.7642C28.4101 30.7642 27.3086 30.3698 26.1934 29.5809L27.091 27.8265C28.0158 28.4793 28.8454 28.8057 29.5798 28.8057C30.0422 28.8057 30.4094 28.6969 30.6814 28.4793C30.9806 28.2617 31.1301 27.9489 31.1301 27.5409C31.1301 27.1329 30.967 26.8065 30.6406 26.5616C30.3142 26.3168 29.8518 26.1944 29.2534 26.1944C28.9542 26.1944 28.519 26.2896 27.9478 26.48V24.848L29.8246 22.6039H26.7238Z" fill="white"/>
</g>
</g>
<defs>
<linearGradient id="paint0_linear_94_2881" x1="-13.7835" y1="23.9272" x2="73.7497" y2="-63.6031" gradientUnits="userSpaceOnUse">
<stop stop-color="#FC727E"/>
<stop offset="1" stop-color="#FC727E"/>
</linearGradient>
<linearGradient id="paint1_linear_94_2881" x1="8.86377" y1="43.0336" x2="44.4654" y2="7.43316" gradientUnits="userSpaceOnUse">
<stop stop-color="#FC727E"/>
<stop offset="1" stop-color="#FC727E" stop-opacity="0.72"/>
</linearGradient>
<linearGradient id="paint2_linear_94_2881" x1="-11.4121" y1="38.0338" x2="34.2299" y2="-7.6067" gradientUnits="userSpaceOnUse">
<stop stop-color="#FC727E"/>
<stop offset="1" stop-color="#FC727E"/>
</linearGradient>
<linearGradient id="paint3_linear_94_2881" x1="-8.4644" y1="24.2866" x2="26.5269" y2="-10.7035" gradientUnits="userSpaceOnUse">
<stop stop-color="#FC727E"/>
<stop offset="1" stop-color="#FC727E"/>
</linearGradient>
<linearGradient id="paint4_linear_94_2881" x1="6.23433" y1="38.7849" x2="41.004" y2="4.01638" gradientUnits="userSpaceOnUse">
<stop stop-color="#FC727E"/>
<stop offset="1" stop-color="#FC727E" stop-opacity="0.79"/>
</linearGradient>
<linearGradient id="paint5_linear_94_2881" x1="4" y1="29" x2="38.3465" y2="-15.0819" gradientUnits="userSpaceOnUse">
<stop stop-color="#FC727E"/>
<stop offset="1" stop-color="#FF5990"/>
<stop offset="1" stop-color="#FC727E"/>
</linearGradient>
</defs>
</svg>
