<svg width="51" height="48" viewBox="0 0 51 48" fill="none" xmlns="http://www.w3.org/2000/svg">
<g id="&#60;Group&#62;">
<g id="&#60;Group&#62;_2" style="mix-blend-mode:multiply" opacity="0.3">
<path id="&#60;Path&#62;" d="M32.4769 32.3831C32.4769 40.0603 26.2753 46.2674 18.6049 46.2674C10.9753 46.2674 4.73291 40.0603 4.73291 32.3831C4.73291 24.7059 10.9753 18.4988 18.6049 18.4988C26.2753 18.4988 32.4769 24.7059 32.4769 32.3831Z" fill="white"/>
<path id="&#60;Path&#62;_2" d="M32.7218 32.1789C32.7218 39.8153 26.5202 46.0632 18.8498 46.0632C11.1794 46.0632 4.97778 39.8153 4.97778 32.1789C4.97778 24.5017 11.1794 18.2946 18.8498 18.2946C26.5202 18.2946 32.7218 24.5017 32.7218 32.1789Z" fill="#F7F7F7"/>
<path id="&#60;Path&#62;_3" d="M32.9256 31.9339C32.9256 39.6111 26.724 45.8182 19.0536 45.8182C11.3832 45.8182 5.18164 39.6111 5.18164 31.9339C5.18164 24.2567 11.3832 18.0496 19.0536 18.0496C26.724 18.0496 32.9256 24.2567 32.9256 31.9339Z" fill="#EFEFEF"/>
<path id="&#60;Path&#62;_4" d="M33.1705 31.7297C33.1705 39.4069 26.9281 45.614 19.2985 45.614C11.6281 45.614 5.42651 39.4069 5.42651 31.7297C5.42651 24.0525 11.6281 17.8454 19.2985 17.8454C26.9281 17.8454 33.1705 24.0525 33.1705 31.7297Z" fill="#E6E6E6"/>
<path id="&#60;Path&#62;_5" d="M33.3744 31.4847C33.3744 39.1619 27.1728 45.369 19.5024 45.369C11.832 45.369 5.63037 39.1619 5.63037 31.4847C5.63037 23.8483 11.832 17.6004 19.5024 17.6004C27.1728 17.6004 33.3744 23.8483 33.3744 31.4847Z" fill="#DEDEDE"/>
<path id="&#60;Path&#62;_6" d="M33.5784 31.2805C33.5784 38.9577 27.3768 45.1648 19.7064 45.1648C12.0768 45.1648 5.87524 38.9577 5.87524 31.2805C5.87524 23.6033 12.0768 17.3962 19.7064 17.3962C27.3768 17.3962 33.5784 23.6033 33.5784 31.2805Z" fill="#D6D6D6"/>
<path id="&#60;Path&#62;_7" d="M33.8233 31.0763C33.8233 38.7127 27.6217 44.9198 19.9513 44.9198C12.2809 44.9198 6.07935 38.7127 6.07935 31.0763C6.07935 23.3991 12.2809 17.192 19.9513 17.192C27.6217 17.192 33.8233 23.3991 33.8233 31.0763Z" fill="#CECECE"/>
<path id="&#60;Path&#62;_8" d="M34.0272 30.8313C34.0272 38.5085 27.8256 44.7156 20.1552 44.7156C12.5256 44.7156 6.2832 38.5085 6.2832 30.8313C6.2832 23.1541 12.5256 16.947 20.1552 16.947C27.8256 16.947 34.0272 23.1541 34.0272 30.8313Z" fill="#C5C5C5"/>
<path id="&#60;Path&#62;_9" d="M34.2721 30.6271C34.2721 38.2635 28.0705 44.5114 20.4001 44.5114C12.7297 44.5114 6.52808 38.2635 6.52808 30.6271C6.52808 22.9499 12.7297 16.7428 20.4001 16.7428C28.0705 16.7428 34.2721 22.9499 34.2721 30.6271Z" fill="#BDBDBD"/>
<path id="&#60;Path&#62;_10" d="M34.4762 30.3821C34.4762 38.0593 28.2746 44.2664 20.6042 44.2664C12.9338 44.2664 6.73218 38.0593 6.73218 30.3821C6.73218 22.7049 12.9338 16.4978 20.6042 16.4978C28.2746 16.4978 34.4762 22.7049 34.4762 30.3821Z" fill="#B5B5B5"/>
<path id="&#60;Path&#62;_11" d="M34.721 30.1779C34.721 37.8551 28.4786 44.0622 20.849 44.0622C13.1787 44.0622 6.97705 37.8551 6.97705 30.1779C6.97705 22.5007 13.1787 16.2936 20.849 16.2936C28.4786 16.2936 34.721 22.5007 34.721 30.1779Z" fill="#ADADAD"/>
<path id="&#60;Path&#62;_12" d="M34.9249 29.9329C34.9249 37.6101 28.7233 43.8172 21.0529 43.8172C13.3825 43.8172 7.18091 37.6101 7.18091 29.9329C7.18091 22.2966 13.3825 16.0486 21.0529 16.0486C28.7233 16.0486 34.9249 22.2966 34.9249 29.9329Z" fill="#A5A5A5"/>
<path id="&#60;Path&#62;_13" d="M35.129 29.7288C35.129 37.406 28.9274 43.6131 21.257 43.6131C13.6274 43.6131 7.42578 37.406 7.42578 29.7288C7.42578 22.0516 13.6274 15.8445 21.257 15.8445C28.9274 15.8445 35.129 22.0516 35.129 29.7288Z" fill="#9C9C9C"/>
<path id="&#60;Path&#62;_14" d="M35.3736 29.5246C35.3736 37.161 29.172 43.368 21.5016 43.368C13.8312 43.368 7.62964 37.161 7.62964 29.5246C7.62964 21.8474 13.8312 15.6403 21.5016 15.6403C29.172 15.6403 35.3736 21.8474 35.3736 29.5246Z" fill="#949494"/>
<path id="&#60;Path&#62;_15" d="M35.5777 29.2795C35.5777 36.9567 29.3761 43.1638 21.7057 43.1638C14.0761 43.1638 7.83374 36.9567 7.83374 29.2795C7.83374 21.6023 14.0761 15.3952 21.7057 15.3952C29.3761 15.3952 35.5777 21.6023 35.5777 29.2795Z" fill="#8C8C8C"/>
<path id="&#60;Path&#62;_16" d="M35.8226 29.0754C35.8226 36.7117 29.621 42.9597 21.9506 42.9597C14.2802 42.9597 8.07861 36.7117 8.07861 29.0754C8.07861 21.3982 14.2802 15.1911 21.9506 15.1911C29.621 15.1911 35.8226 21.3982 35.8226 29.0754Z" fill="#848484"/>
<path id="&#60;Path&#62;_17" d="M36.0265 28.8303C36.0265 36.5075 29.8249 42.7146 22.1545 42.7146C14.4841 42.7146 8.28247 36.5075 8.28247 28.8303C8.28247 21.1531 14.4841 14.946 22.1545 14.946C29.8249 14.946 36.0265 21.1531 36.0265 28.8303Z" fill="#7B7B7B"/>
<path id="&#60;Path&#62;_18" d="M36.2713 28.6262C36.2713 36.3034 30.0289 42.5105 22.3993 42.5105C14.7289 42.5105 8.52734 36.3034 8.52734 28.6262C8.52734 20.949 14.7289 14.7419 22.3993 14.7419C30.0289 14.7419 36.2713 20.949 36.2713 28.6262Z" fill="#737373"/>
<path id="&#60;Path&#62;_19" d="M36.4754 28.3812C36.4754 36.0584 30.2738 42.2655 22.6034 42.2655C14.933 42.2655 8.73145 36.0584 8.73145 28.3812C8.73145 20.7448 14.933 14.4969 22.6034 14.4969C30.2738 14.4969 36.4754 20.7448 36.4754 28.3812Z" fill="#808080"/>
<path id="&#60;Path&#62;_20" d="M36.6793 28.177C36.6793 35.8542 30.4777 42.0613 22.8481 42.0613C15.1777 42.0613 8.97607 35.8542 8.97607 28.177C8.97607 20.4998 15.1777 14.2927 22.8481 14.2927C30.4777 14.2927 36.6793 20.4998 36.6793 28.177Z" fill="#636363"/>
<path id="&#60;Path&#62;_21" d="M36.9242 27.9319C36.9242 35.6091 30.7226 41.8162 23.0522 41.8162C15.3818 41.8162 9.18018 35.6091 9.18018 27.9319C9.18018 20.2956 15.3818 14.0885 23.0522 14.0885C30.7226 14.0885 36.9242 20.2956 36.9242 27.9319Z" fill="#5A5A5A"/>
<path id="&#60;Path&#62;_22" d="M37.128 27.7278C37.128 35.405 30.9264 41.6121 23.256 41.6121C15.6264 41.6121 9.38403 35.405 9.38403 27.7278C9.38403 20.0506 15.6264 13.8435 23.256 13.8435C30.9264 13.8435 37.128 20.0506 37.128 27.7278Z" fill="#525252"/>
<path id="&#60;Path&#62;_23" d="M37.3729 27.5236C37.3729 35.1599 31.1713 41.4079 23.5009 41.4079C15.8305 41.4079 9.62891 35.1599 9.62891 27.5236C9.62891 19.8464 15.8305 13.6393 23.5009 13.6393C31.1713 13.6393 37.3729 19.8464 37.3729 27.5236Z" fill="#4A4A4A"/>
<path id="&#60;Path&#62;_24" d="M37.577 27.2786C37.577 34.9558 31.3754 41.1629 23.705 41.1629C16.0346 41.1629 9.83301 34.9558 9.83301 27.2786C9.83301 19.6014 16.0346 13.3943 23.705 13.3943C31.3754 13.3943 37.577 19.6014 37.577 27.2786Z" fill="#424242"/>
<path id="&#60;Path&#62;_25" d="M37.8216 27.0744C37.8216 34.7516 31.5792 40.9587 23.9496 40.9587C16.2792 40.9587 10.0776 34.7516 10.0776 27.0744C10.0776 19.3972 16.2792 13.1901 23.9496 13.1901C31.5792 13.1901 37.8216 19.3972 37.8216 27.0744Z" fill="#3A3A3A"/>
<path id="&#60;Path&#62;_26" d="M38.0257 26.8294C38.0257 34.5066 31.8241 40.7137 24.1537 40.7137C16.4833 40.7137 10.2817 34.5066 10.2817 26.8294C10.2817 19.193 16.4833 12.9451 24.1537 12.9451C31.8241 12.9451 38.0257 19.193 38.0257 26.8294Z" fill="#313131"/>
<path id="&#60;Path&#62;_27" d="M38.2296 26.6252C38.2296 34.3024 32.028 40.5095 24.3984 40.5095C16.728 40.5095 10.5264 34.3024 10.5264 26.6252C10.5264 18.948 16.728 12.7409 24.3984 12.7409C32.028 12.7409 38.2296 18.948 38.2296 26.6252Z" fill="#292929"/>
<path id="&#60;Path&#62;_28" d="M38.4745 26.3802C38.4745 34.0574 32.2729 40.2645 24.6025 40.2645C16.9321 40.2645 10.7305 34.0574 10.7305 26.3802C10.7305 18.7438 16.9321 12.5367 24.6025 12.5367C32.2729 12.5367 38.4745 18.7438 38.4745 26.3802Z" fill="#212121"/>
<path id="&#60;Path&#62;_29" d="M38.6786 26.176C38.6786 33.8532 32.477 40.0603 24.8066 40.0603C17.177 40.0603 10.9346 33.8532 10.9346 26.176C10.9346 18.4988 17.177 12.2917 24.8066 12.2917C32.477 12.2917 38.6786 18.4988 38.6786 26.176Z" fill="#191919"/>
<path id="&#60;Path&#62;_30" d="M38.9232 25.9718C38.9232 33.6082 32.7216 39.8561 25.0512 39.8561C17.3808 39.8561 11.1792 33.6082 11.1792 25.9718C11.1792 18.2946 17.3808 12.0875 25.0512 12.0875C32.7216 12.0875 38.9232 18.2946 38.9232 25.9718Z" fill="#101010"/>
<path id="&#60;Path&#62;_31" d="M39.1273 25.7268C39.1273 33.404 32.9257 39.6111 25.2553 39.6111C17.5849 39.6111 11.3833 33.404 11.3833 25.7268C11.3833 18.0496 17.5849 11.8425 25.2553 11.8425C32.9257 11.8425 39.1273 18.0496 39.1273 25.7268Z" fill="#080808"/>
<path id="&#60;Path&#62;_32" d="M39.3722 25.5226C39.3722 33.1998 33.1298 39.4069 25.5002 39.4069C17.8298 39.4069 11.6282 33.1998 11.6282 25.5226C11.6282 17.8454 17.8298 11.6383 25.5002 11.6383C33.1298 11.6383 39.3722 17.8454 39.3722 25.5226Z" fill="black"/>
</g>
<g id="&#60;Group&#62;_3">
<path id="&#60;Path&#62;_33" d="M2.244 25.5226C2.244 25.0598 2.2576 24.597 2.2848 24.1342L0.0407994 23.9708C0.0135994 24.4881 0 25.0053 0 25.5226C0 34.3024 4.4064 42.3879 11.8728 47.0841L13.056 45.1648C6.2832 40.877 2.244 33.5265 2.244 25.5226Z" fill="url(#paint0_linear_94_2930)"/>
<path id="&#60;Path&#62;_34" d="M48.7152 25.5226C48.7152 33.9757 44.1048 41.7754 36.72 45.8999L37.7808 47.86C45.9408 43.368 51 34.7924 51 25.5226H48.7152Z" fill="url(#paint1_linear_94_2930)"/>
<path id="&#60;Path&#62;_35" d="M40.3921 4.77784C36.0265 1.63345 30.8857 0 25.5001 0C21.6649 0 17.9521 0.816723 14.5249 2.45017L15.5041 4.49198C18.6457 3.02188 21.9913 2.24599 25.5001 2.24599C30.3961 2.24599 35.0881 3.75693 39.0457 6.61547L40.3921 4.77784Z" fill="url(#paint2_linear_94_2930)"/>
</g>
<g id="&#60;Group&#62;_4">
<path id="&#60;Path&#62;_36" d="M28.8864 8.16724L29.2944 5.96209C27.0912 5.51289 24.8472 5.47206 22.644 5.79875C13.3416 7.14634 6.3648 14.6194 5.5896 23.93L7.8744 24.1342C8.5272 15.8444 14.7288 9.22899 22.9296 8.04474C24.9288 7.75888 26.928 7.79971 28.8864 8.16724Z" fill="url(#paint3_linear_94_2930)"/>
<path id="&#60;Path&#62;_37" d="M43.0031 22.9908C44.3903 32.6689 37.6583 41.6529 28.0295 43.0822C27.3767 43.1638 26.7103 43.2183 26.0303 43.2455L26.1119 45.4915C26.8735 45.4643 27.6215 45.3962 28.3559 45.2873C39.2495 43.7355 46.7975 33.5673 45.2471 22.6641L43.0031 22.9908Z" fill="url(#paint4_linear_94_2930)"/>
</g>
<path id="&#60;Path&#62;_38" d="M39.3719 25.5226C39.3719 33.1998 33.1295 39.4069 25.4999 39.4069C17.8295 39.4069 11.6279 33.1998 11.6279 25.5226C11.6279 17.8454 17.8295 11.6383 25.4999 11.6383C33.1295 11.6383 39.3719 17.8454 39.3719 25.5226Z" fill="url(#paint5_linear_94_2930)"/>
<g id="&#60;Group&#62;_5">
<path id="&#60;Compound Path&#62;" fill-rule="evenodd" clip-rule="evenodd" d="M25.5 40.7953C17.0544 40.7953 10.2 33.9349 10.2 25.5226C10.2 17.0695 17.0544 10.209 25.5 10.209C33.9048 10.209 40.7591 17.0695 40.7591 25.5226C40.7591 33.9349 33.9048 40.7953 25.5 40.7953ZM25.5 13.0267C18.6048 13.0267 13.0152 18.6213 13.0152 25.5226C13.0152 32.3831 18.6048 37.9776 25.5 37.9776C32.3544 37.9776 37.944 32.3831 37.944 25.5226C37.944 18.6213 32.3544 13.0267 25.5 13.0267Z" fill="white"/>
</g>
<g id="&#60;Group&#62;_6">
<path id="&#60;Compound Path&#62;_2" fill-rule="evenodd" clip-rule="evenodd" d="M21.1208 30.2499C19.7336 30.2499 18.7 29.7871 18.02 28.8614C17.34 27.9358 17 26.6971 17 25.1454C17 23.5936 17.34 22.3413 18.02 21.3884C18.7 20.4628 19.7336 20 21.1208 20C22.4808 20 23.5008 20.4628 24.1808 21.3884C24.8608 22.3413 25.2008 23.5936 25.2008 25.1454C25.2008 26.6971 24.8608 27.9358 24.1808 28.8614C23.5008 29.7871 22.4808 30.2499 21.1208 30.2499ZM19.652 22.736C19.3528 23.3349 19.2032 24.1381 19.2032 25.1454C19.2032 26.1254 19.3528 26.9285 19.652 27.5547C19.9512 28.1536 20.4408 28.4531 21.1208 28.4531C21.7736 28.4531 22.2632 28.1536 22.5896 27.5547C22.8888 26.9285 23.0384 26.1254 23.0384 25.1454C23.0384 24.1381 22.8888 23.3349 22.5896 22.736C22.2632 22.1371 21.7736 21.8376 21.1208 21.8376C20.4408 21.8376 19.9512 22.1371 19.652 22.736Z" fill="white"/>
<path id="&#60;Compound Path&#62;_3" d="M30.0877 26.1793V24.4097H32.1501V26.1793H33.2607V28.1134H32.1501V30.5002H30.0877V28.1134H26.2007V26.385L29.6514 20.5002H31.9915L28.7391 26.1793H30.0877Z" fill="white"/>
</g>
</g>
<defs>
<linearGradient id="paint0_linear_94_2930" x1="-25.4685" y1="42.0949" x2="11.0581" y2="9.7899" gradientUnits="userSpaceOnUse">
<stop stop-color="#FC727E"/>
<stop offset="1" stop-color="#FC727E" stop-opacity="0.72"/>
</linearGradient>
<linearGradient id="paint1_linear_94_2930" x1="8.86377" y1="43.0383" x2="44.4308" y2="7.43788" gradientUnits="userSpaceOnUse">
<stop stop-color="#FC727E"/>
<stop offset="1" stop-color="#FC727E" stop-opacity="0.72"/>
</linearGradient>
<linearGradient id="paint2_linear_94_2930" x1="-35.9346" y1="5.18747" x2="-32.5829" y2="-15.3322" gradientUnits="userSpaceOnUse">
<stop stop-color="#FC727E"/>
<stop offset="1" stop-color="#FC727E" stop-opacity="0.72"/>
</linearGradient>
<linearGradient id="paint3_linear_94_2930" x1="-40.6517" y1="20.1301" x2="-17.0287" y2="-27.1355" gradientUnits="userSpaceOnUse">
<stop stop-color="#FC727E"/>
<stop offset="1" stop-color="#FC727E" stop-opacity="0.72"/>
</linearGradient>
<linearGradient id="paint4_linear_94_2930" x1="-11.85" y1="40.564" x2="23.0538" y2="-5.92469" gradientUnits="userSpaceOnUse">
<stop stop-color="#FC727E"/>
<stop offset="1" stop-color="#FC727E" stop-opacity="0.72"/>
</linearGradient>
<linearGradient id="paint5_linear_94_2930" x1="-42.4927" y1="33.4128" x2="-2.36262" y2="-29.3637" gradientUnits="userSpaceOnUse">
<stop stop-color="#FC727E"/>
<stop offset="1" stop-color="#FC727E" stop-opacity="0.72"/>
</linearGradient>
</defs>
</svg>
