<svg width="175" height="163" viewBox="0 0 175 163" fill="none" xmlns="http://www.w3.org/2000/svg">
<g id="On the way-amico 1" clip-path="url(#clip0_94_3357)">
<g id="freepik--Floor--inject-8">
<path id="freepik--floor--inject-8" d="M87.5 163C135.825 163 175 140.834 175 113.491C175 86.1476 135.825 63.9816 87.5 63.9816C39.1751 63.9816 0 86.1476 0 113.491C0 140.834 39.1751 163 87.5 163Z" fill="#F0F0F0"/>
</g>
<g id="freepik--Shadow--inject-8">
<path id="freepik--shadow--inject-8" d="M93.436 133.264H90.1225C89.8206 133.265 89.5303 133.151 89.3124 132.946C89.0945 132.741 88.9657 132.462 88.9532 132.166C88.8741 129.004 88.5494 125.853 87.9819 122.739C87.9418 122.523 87.9654 122.301 88.05 122.099C88.1347 121.896 88.2768 121.721 88.4595 121.595C88.6423 121.469 88.858 121.397 89.0813 121.388C89.3045 121.378 89.5258 121.432 89.719 121.542L124.431 141.183C124.608 141.285 124.756 141.43 124.858 141.604C124.96 141.778 125.014 141.976 125.014 142.177C125.014 142.379 124.96 142.576 124.858 142.751C124.756 142.925 124.608 143.07 124.431 143.171C124.208 143.295 124.034 143.487 123.933 143.717C123.833 143.948 123.812 144.204 123.875 144.447C123.937 144.69 124.079 144.906 124.278 145.063C124.478 145.219 124.724 145.307 124.98 145.313L146.617 145.958C146.782 145.962 146.947 145.933 147.1 145.87C147.253 145.808 147.391 145.715 147.504 145.596C147.618 145.478 147.704 145.337 147.758 145.184C147.811 145.03 147.831 144.867 147.816 144.705L146.695 132.466C146.677 132.274 146.609 132.09 146.499 131.93C146.39 131.77 146.24 131.639 146.066 131.551C145.891 131.462 145.696 131.417 145.5 131.421C145.303 131.425 145.11 131.477 144.939 131.573L142.993 132.671C142.815 132.772 142.612 132.825 142.407 132.825C142.201 132.825 141.998 132.772 141.82 132.671L109.428 114.337C109.201 114.207 109.024 114.006 108.927 113.766C108.83 113.526 108.818 113.261 108.894 113.013C108.969 112.766 109.128 112.551 109.343 112.402C109.559 112.254 109.819 112.181 110.082 112.195C115.077 112.466 120.613 112.619 126.762 112.656C127.071 112.658 127.367 112.779 127.585 112.994C127.803 113.209 127.926 113.499 127.927 113.802V114.274C127.927 114.471 127.979 114.665 128.078 114.837C128.176 115.009 128.318 115.153 128.49 115.256C128.662 115.359 128.858 115.416 129.059 115.423C129.26 115.43 129.459 115.386 129.638 115.296L145.578 107.179C145.768 107.082 145.928 106.936 146.039 106.756C146.15 106.576 146.209 106.37 146.209 106.159C146.209 105.949 146.15 105.743 146.039 105.563C145.928 105.383 145.768 105.237 145.578 105.14L129.638 97.0378C129.46 96.9475 129.26 96.9036 129.06 96.9104C128.859 96.9172 128.663 96.9745 128.492 97.0766C128.32 97.1788 128.178 97.3224 128.079 97.4939C127.98 97.6653 127.928 97.8587 127.927 98.0556V98.5059C127.927 98.6575 127.897 98.8076 127.837 98.9475C127.778 99.0875 127.691 99.2145 127.581 99.3214C127.471 99.4282 127.341 99.5127 127.198 99.5701C127.055 99.6274 126.901 99.6564 126.747 99.6555C92.9242 99.2894 81.8779 92.8861 72.9534 87.7019C72.169 87.248 71.3994 86.8013 70.6299 86.3656L43.1281 70.8022C37.0518 72.801 31.1889 75.376 25.6228 78.4906C21.9908 80.5234 18.546 82.8619 15.3274 85.4796L45.5002 102.551C46.2697 102.987 47.058 103.423 47.8611 103.866C57.0583 108.933 67.421 114.644 68.4595 132.056C68.4691 132.213 68.4461 132.369 68.3917 132.517C68.3374 132.664 68.2528 132.799 68.1433 132.913C68.0338 133.027 67.9017 133.118 67.7549 133.181C67.6082 133.243 67.4501 133.275 67.2902 133.275H64.1037C63.8507 133.276 63.6047 133.357 63.4025 133.506C63.2002 133.655 63.0526 133.864 62.9816 134.102C62.9106 134.34 62.92 134.595 63.0084 134.827C63.0969 135.059 63.2596 135.257 63.4724 135.392L78.1348 144.61C78.3232 144.729 78.5423 144.792 78.7661 144.792C78.9899 144.792 79.209 144.729 79.3974 144.61L94.0636 135.392C94.2813 135.26 94.449 135.061 94.541 134.827C94.633 134.593 94.6443 134.336 94.5732 134.095C94.5021 133.854 94.3524 133.642 94.1471 133.492C93.9417 133.342 93.692 133.262 93.436 133.264Z" fill="#E0E0E0"/>
</g>
<g id="freepik--Clouds--inject-8">
<g id="freepik--clouds--inject-8">
<path id="Vector" d="M152.003 25.3715L154.969 27.0483C154.954 26.9268 154.945 26.8046 154.943 26.6822V25.8401C154.943 24.3427 156.015 23.735 157.338 24.4818C157.907 24.8243 158.394 25.284 158.765 25.8291C158.981 23.9473 160.491 23.2444 162.321 24.2805C164.301 25.4008 165.904 28.1246 165.904 30.3652V31.5954C165.918 32.0998 165.815 32.6008 165.601 33.0598L168.063 34.451C168.449 34.6988 168.77 35.032 169.001 35.4236C169.232 35.8153 169.366 36.2546 169.393 36.7063C169.393 37.5374 168.795 37.8742 168.063 37.4605L151.999 28.3736C151.613 28.1263 151.292 27.7932 151.061 27.4013C150.831 27.0095 150.698 26.57 150.673 26.1184C150.677 25.2946 151.271 24.9578 152.003 25.3715Z" fill="#E6E6E6"/>
<path id="Vector_2" d="M154.521 12.8066L152.885 11.5728V8.04346C152.885 5.24637 150.61 1.99897 148.137 0.600423C145.664 -0.798122 143.654 0.333161 143.654 3.13391V3.64647C143.136 2.82009 142.431 2.12219 141.592 1.60723C139.81 0.600423 138.368 1.41685 138.368 3.43778V3.67209L136.09 2.37972C134.92 1.71706 133.968 2.25524 133.968 3.58057C134.008 4.30209 134.221 5.00414 134.59 5.62997C134.959 6.2558 135.472 6.78785 136.09 7.1831L154.529 17.6136C155.698 18.2763 156.651 17.7417 156.651 16.4128C156.61 15.6898 156.397 14.9864 156.027 14.3598C155.657 13.7331 155.141 13.2009 154.521 12.8066Z" fill="#E6E6E6"/>
</g>
</g>
<g id="freepik--Arrows--inject-8">
<g id="freepik--Way--inject-8">
<path id="Vector_3" d="M146.026 141.839V144.142L127.023 143.574V141.271L127.624 140.931L85.4117 117.038C86.6519 121.296 87.2795 126.433 87.2795 132.58H91.4971V134.886L78.7735 142.893L66.0499 134.897V132.591H70.2412C69.326 112.089 56.1242 106.513 46.3817 100.999C43.7182 99.487 29.3397 91.352 16.8215 84.2751V81.9649C19.6069 79.8263 22.5457 77.887 25.6152 76.162C30.5381 73.406 35.6981 71.0784 41.036 69.2059L69.7519 85.4576C79.8381 91.1726 90.07 99.0037 129.657 99.0037V96.602L143.792 103.803V106.106L129.657 113.304V110.906C118.793 110.906 109.712 110.558 102.188 109.859L142.38 132.602L145.014 131.108L146.026 141.839Z" fill="#F8B45B"/>
<path id="Vector_4" opacity="0.15" d="M146.026 141.839V144.142L127.023 143.574V141.271L127.624 140.931L85.4117 117.038C86.6519 121.296 87.2795 126.433 87.2795 132.58H91.4971V134.886L78.7735 142.893L66.0499 134.897V132.591H70.2412C69.326 112.089 56.1242 106.513 46.3817 100.999L16.8215 84.2751V81.9649C19.6069 79.8263 22.5457 77.887 25.6152 76.162C30.5381 73.406 35.6981 71.0784 41.036 69.2059L41.1331 69.2609L69.7519 85.4576C79.8381 91.1726 90.07 99.0037 129.657 99.0037V96.602L143.792 103.803V106.106L129.657 113.304V110.906C118.793 110.906 109.712 110.558 102.188 109.859L142.38 132.602L145.014 131.108L146.026 141.839Z" fill="black"/>
<path id="Vector_5" opacity="0.15" d="M129.668 108.589V110.888C118.804 110.888 109.723 110.54 102.199 109.841L97.1377 106.989C101.34 107.523 106.103 107.922 111.52 108.189C116.937 108.457 122.958 108.589 129.668 108.589Z" fill="black"/>
<path id="Vector_6" d="M127.023 141.271L129.66 139.781L84.4367 114.183C86.3306 118.942 87.2646 124.99 87.2646 132.58H91.497L78.7734 140.579L66.0498 132.58H70.2898C70.2898 110.185 56.4679 104.389 46.3817 98.6852L16.8477 81.9759C19.633 79.8373 22.5718 77.898 25.6414 76.173C30.5642 73.417 35.7243 71.0894 41.0621 69.2169L41.1592 69.2718L69.778 85.4686C79.8642 91.1836 90.0962 99.0147 129.683 99.0147V96.613L143.818 103.814L129.683 111.012V108.614C122.959 108.614 116.948 108.482 111.546 108.215C106.145 107.948 101.367 107.552 97.1677 107.014L142.406 132.613L145.04 131.119L146.041 141.868L127.023 141.271Z" fill="#F8B45B"/>
<path id="Vector_7" opacity="0.15" d="M129.668 139.781L127.632 140.934L85.4193 117.042C85.1055 115.944 84.7805 115.025 84.4443 114.186L129.668 139.781Z" fill="black"/>
<path id="Vector_8" opacity="0.15" d="M78.7734 140.583V142.886L66.0498 134.886V132.583L78.7734 140.583Z" fill="black"/>
</g>
</g>
<g id="freepik--Sign--inject-8">
<g id="freepik--Signal--inject-8">
<path id="Vector_9" d="M109.705 17.8443C109.691 17.7351 109.65 17.6309 109.585 17.5414C109.519 17.4519 109.432 17.3798 109.331 17.3317C109.042 17.1885 108.722 17.1139 108.397 17.1139C108.073 17.1139 107.753 17.1885 107.463 17.3317C107.362 17.379 107.274 17.4508 107.209 17.5405C107.143 17.6302 107.102 17.7347 107.09 17.8443V111.466C107.09 111.869 107.68 112.198 108.409 112.198C109.137 112.198 109.727 111.869 109.727 111.466V17.8443H109.705Z" fill="#37474F"/>
<path id="Vector_10" d="M108.386 18.5765C109.114 18.5765 109.705 18.2487 109.705 17.8443C109.705 17.4399 109.114 17.1121 108.386 17.1121C107.658 17.1121 107.067 17.4399 107.067 17.8443C107.067 18.2487 107.658 18.5765 108.386 18.5765Z" fill="#455A64"/>
<path id="Vector_11" d="M123.291 34.4291L120.703 30.0358L103.504 20.3119L102.204 21.0478V26.9019L119.403 36.6258L120.729 35.9082L123.291 34.4291Z" fill="#F8B45B"/>
<path id="Vector_12" d="M102.204 21.0477L119.403 30.7716L121.988 35.165L119.403 36.6258L102.204 26.9018V21.0477Z" fill="#F8B45B"/>
<g id="Group" opacity="0.3">
<path id="Vector_13" d="M102.204 21.0477L119.403 30.7716L121.995 35.176L119.403 36.6258L102.204 26.9018V21.0477Z" fill="black"/>
</g>
<path id="Vector_14" opacity="0.1" d="M120.703 30.0358L119.403 30.7717L102.204 21.0478L103.504 20.3119L120.703 30.0358Z" fill="black"/>
<path id="Vector_15" opacity="0.2" d="M119.403 30.7717L120.703 30.0358L123.292 34.4291L121.995 35.176L119.403 30.7717Z" fill="black"/>
<path id="Vector_16" d="M123.291 54.9387L120.703 50.5453L103.504 40.8214L102.204 41.5573V47.4114L119.403 57.1353L120.729 56.4177L123.291 54.9387Z" fill="#F8B45B"/>
<path id="Vector_17" d="M102.204 41.5573L119.403 51.2812L121.988 55.6708L119.403 57.1353L102.204 47.4114V41.5573Z" fill="#F8B45B"/>
<g id="Group_2" opacity="0.3">
<path id="Vector_18" d="M102.204 41.5573L119.403 51.2812L121.995 55.6855L119.403 57.1353L102.204 47.4114V41.5573Z" fill="black"/>
</g>
<path id="Vector_19" opacity="0.1" d="M120.703 50.5453L119.403 51.2812L102.204 41.5573L103.504 40.8214L120.703 50.5453Z" fill="black"/>
<path id="Vector_20" opacity="0.2" d="M119.403 51.2812L120.703 50.5453L123.292 54.9386L121.995 55.6855L119.403 51.2812Z" fill="black"/>
<path id="Vector_21" d="M113.291 37.6033L96.0922 27.8647L93.5034 29.3292L96.0922 33.7189L113.291 43.4574V37.6033Z" fill="#F8B45B"/>
<path id="Vector_22" d="M96.0923 27.8648L97.3549 27.1179L114.58 36.8748L113.291 37.6033L96.0923 27.8648Z" fill="#F8B45B"/>
<g id="Group_3" opacity="0.4">
<path id="Vector_23" d="M96.0923 27.8648L97.3549 27.1179L114.58 36.8748L113.291 37.6033L96.0923 27.8648Z" fill="white"/>
</g>
<path id="Vector_24" d="M114.58 42.7289L113.291 43.4574V37.6033L114.58 36.8748V42.7289Z" fill="#F8B45B"/>
<path id="Vector_25" opacity="0.1" d="M114.58 42.7289L113.291 43.4574V37.6033L114.58 36.8748V42.7289Z" fill="black"/>
</g>
</g>
<g id="freepik--Character--inject-8">
<path id="freepik--shadow--inject-8_2" opacity="0.1" d="M44.8912 93.3034C53.0241 93.3034 59.6171 89.5728 59.6171 84.9707C59.6171 80.3687 53.0241 76.6381 44.8912 76.6381C36.7583 76.6381 30.1653 80.3687 30.1653 84.9707C30.1653 89.5728 36.7583 93.3034 44.8912 93.3034Z" fill="black"/>
<g id="freepik--character--inject-8">
<path id="Vector_26" d="M56.9125 83.25C56.9655 83.4077 56.9842 83.5745 56.9675 83.7397C56.9508 83.9049 56.899 84.0648 56.8154 84.2092C56.3791 84.5749 55.8708 84.8491 55.3221 85.0147C54.7734 85.1803 54.1958 85.2339 53.6252 85.1721C52.3906 85.0542 51.2029 84.6474 50.1622 83.9859C49.3644 83.5047 48.4333 83.2795 47.4987 83.3415C46.5312 83.3415 45.8139 83.1585 45.7318 82.9132C45.5861 82.4775 45.5749 82.2029 45.7878 82.2066L56.9125 83.25Z" fill="#263238"/>
<path id="Vector_27" d="M46.4937 79.1899C46.9675 79.5402 47.5348 79.7484 48.1268 79.7893C48.7189 79.8303 49.3103 79.7022 49.8296 79.4206L50.0314 73.215H45.8586L46.4937 79.1899Z" fill="#FFA8A7"/>
<path id="Vector_28" d="M56.0458 82.0125C54.5382 81.5011 53.0955 80.8218 51.746 79.9879C51.4621 79.7902 51.2417 79.6218 51.0549 79.4681C50.6328 79.0507 50.375 78.1464 50.192 78.0439C50.009 77.9414 49.7026 78.2709 49.5569 78.3478C49.2525 78.5129 48.9193 78.6209 48.5745 78.6663C47.5546 78.7944 47.5135 78.593 47.4837 78.9189C47.4743 79.0407 47.4743 79.1631 47.4837 79.285C46.942 79.2154 46.5124 79.0617 46.4788 78.8603L46.3891 78.2233C45.8512 78.194 45.8512 79.1385 45.7167 80.2039C45.6046 81.0643 45.4178 81.694 45.6831 82.3164C46.5236 82.9827 47.9506 82.7594 48.7725 82.8619C49.9342 83.0083 50.5058 83.8248 52.1345 84.3263C54.7495 85.1098 56.3521 84.0371 56.819 83.5758C57.1291 82.9864 56.9535 82.3457 56.0458 82.0125Z" fill="#37474F"/>
<path id="Vector_29" d="M41.1482 88.7564C41.1034 89.1445 41.0436 90.2208 39.0301 90.4991C37.0166 90.7773 35.7502 90.1037 35.216 89.1518C34.6818 88.1999 34.8088 87.4274 34.7266 86.5487C34.6444 85.6701 33.9048 85.1978 33.6918 84.7438C33.3818 84.0775 33.845 83.0414 33.845 83.0414L41.1482 88.7564Z" fill="#263238"/>
<path id="Vector_30" d="M34.3193 81.5146C34.5622 83.3159 38.126 83.1841 37.8383 81.7453L38.4883 77.3776L34.4576 77.4874L34.3193 81.5146Z" fill="#FFA8A7"/>
<path id="Vector_31" d="M41.0061 87.8594C40.7209 87.4757 40.4128 87.109 40.0834 86.761C38.8829 85.2504 38.1619 83.4273 38.0101 81.5183C38.0101 81.4122 37.9877 81.2071 37.8831 81.1522C37.7785 81.0973 37.6627 81.1778 37.5506 81.2254C37.351 81.3095 37.1393 81.3626 36.923 81.3829C36.3629 81.3986 35.8024 81.3754 35.2457 81.3133C35.1075 81.3316 35.0627 81.749 35.0701 82.2066C34.8199 82.0455 34.7377 81.7343 34.5098 81.5513C34.3865 81.4524 34.3305 81.4488 34.3342 81.2877C34.338 81.1266 34.3342 81.09 34.3342 80.9838C34.1512 80.9289 33.9943 81.6172 33.8449 82.1407C33.6655 82.7485 33.4489 83.4331 33.688 84.0518C33.8408 84.3891 34.0299 84.7094 34.252 85.0074C34.635 85.5244 34.8837 86.125 34.9768 86.7574C35.0029 87.032 34.9768 87.3139 35.0216 87.5885C35.0846 88.0533 35.283 88.4905 35.5931 88.8477C35.9031 89.2048 36.3117 89.4667 36.7699 89.6021C37.9952 89.9682 39.8406 89.9279 40.9239 89.0895C41.3087 88.8039 41.1817 88.1852 41.0061 87.8594Z" fill="#37474F"/>
<path id="Vector_32" d="M36.2843 41.0118C35.4848 48.2168 35.3541 61.0271 35.3541 61.0271C35.3541 61.0271 34.1437 64.3806 34.1475 66.8848C34.1475 72.1349 34.2857 79.3326 34.2857 79.3326C35.5655 79.7896 36.9591 79.8433 38.2716 79.4864C38.2716 79.4864 40.3113 67.7708 41.219 63.5312C42.0147 59.8445 43.2923 51.4313 43.2923 51.4313L45.0518 61.7373C44.6714 63.6457 44.5036 65.5889 44.5512 67.5328C44.6334 69.5172 46.1352 77.1396 46.1352 77.1396C46.7926 77.7473 49.1872 77.2385 50.0314 76.7113C50.0314 76.7113 50.6217 63.8644 50.801 61.7812C51.0363 59.0354 51.4659 39.3606 51.4659 39.3606L36.2843 41.0118Z" fill="#37474F"/>
<path id="Vector_33" d="M43.2925 51.424L44.275 46.994C45.6302 46.6663 46.9069 46.0817 48.033 45.2733C48.033 45.2733 47.4577 46.6865 45.0445 47.7702L44.0433 51.9182L44.9025 61.0271L43.2925 51.424Z" fill="#263238"/>
<path id="Vector_34" d="M79.3302 21.3443C79.1173 20.7146 77.9443 21.2564 76.7152 21.8385C75.5945 22.3731 73.4055 23.3982 73.2486 23.1785C73.0917 22.9588 73.2187 22.0362 72.946 21.4358C72.6733 20.8354 71.9486 20.6487 71.9523 21.1832C71.9523 21.4907 71.7618 22.5122 71.6983 22.9808C71.6348 23.4494 71.5152 24.0791 71.0445 24.3574C70.5738 24.6356 61.3991 26.0232 61.3991 26.0232C61.3991 26.0232 54.264 21.8752 52.8071 20.9306C51.3502 19.986 50.1922 19.0744 48.0255 19.1806C45.1864 20.1801 46.1577 22.7428 47.3643 24.383C48.033 25.2836 48.2795 25.2617 50.7562 26.2868C53.7448 27.5279 58.4666 30.1786 61.0106 30.552C63.8683 30.2664 71.3994 28.2016 72.1391 28.0844C73.0207 27.9416 73.581 28.11 74.2945 27.9929C75.15 27.8464 75.8822 27.7622 76.6555 27.3119C76.7719 27.2582 76.875 27.1803 76.9576 27.0835C77.0402 26.9868 77.1003 26.8736 77.1336 26.7517C77.156 26.6273 77.1336 26.4991 77.1336 26.3856C77.2023 26.1844 77.2573 25.979 77.298 25.7706C77.298 25.496 76.9879 25.236 77.0029 24.9615C77.0029 24.8406 77.1897 24.5185 77.156 24.4013C77.0795 24.2261 76.9803 24.0612 76.8609 23.9107C76.8049 23.8082 76.6368 23.6325 76.7489 23.5226C76.8609 23.4128 77.2681 23.2371 78.0899 22.6806C78.9118 22.1241 79.4759 21.7617 79.3302 21.3443Z" fill="#FFA8A7"/>
<path id="Vector_35" d="M47.9097 19.0011C49.1798 19.0011 49.968 18.8034 53.4907 20.9818C57.0134 23.1601 61.4327 25.9133 61.4327 25.9133L66.0649 25.2836C66.0649 25.2836 65.4597 26.9714 66.6701 29.4133C66.6701 29.4133 62.3629 30.5556 61.3543 30.7313C60.3456 30.9071 60.4652 30.8375 58.8999 30.2554C57.3347 29.6733 49.3778 26.0305 49.3778 26.0305L47.9097 19.0011Z" fill="#E0E0E0"/>
<path id="Vector_36" d="M75.4337 23.8485C74.7539 24.2842 73.8909 24.5807 73.8461 25.0384C73.8428 25.1291 73.8595 25.2195 73.8952 25.3033C73.9308 25.3872 73.9846 25.4624 74.0527 25.524C74.1208 25.5855 74.2017 25.6319 74.2899 25.66C74.378 25.688 74.4713 25.697 74.5633 25.6864C74.4803 25.7589 74.4179 25.8514 74.3825 25.9548C74.3472 26.0582 74.3399 26.1689 74.3616 26.2758C74.3883 26.3787 74.4437 26.4722 74.5215 26.5459C74.5994 26.6196 74.6966 26.6706 74.8024 26.6932C74.7624 26.7648 74.7378 26.8436 74.7302 26.9249C74.7225 27.0061 74.7319 27.088 74.7578 27.1656C74.7837 27.2431 74.8256 27.3146 74.8808 27.3757C74.936 27.4368 75.0034 27.4861 75.0789 27.5206C74.8211 27.5206 74.3317 27.3778 74.4886 26.9055C74.4886 26.9055 73.8648 26.5394 74.1151 26.0086C74.1151 26.0086 73.8573 26.6273 72.8337 26.7774C73.2963 26.5584 73.6691 26.1917 73.8909 25.7376C73.7653 25.6296 73.6721 25.49 73.6214 25.3338C73.5707 25.1777 73.5645 25.011 73.6033 24.8517C73.7639 24.3354 75.4337 23.8485 75.4337 23.8485Z" fill="#F28F8F"/>
<path id="Vector_37" d="M42.6349 19.1476C40.5803 19.4515 38.2305 19.6126 36.7923 19.8066C35.2196 20.0153 34.6555 21.2711 34.6555 23.9144C34.6555 27.7952 36.684 34.268 36.684 34.268L36.2843 41.0264C38.1259 42.9595 46.8001 43.6588 51.507 40.8287C51.507 40.8287 51.6303 27.667 51.507 25.4521C51.2829 21.5493 48.978 19.0488 47.5099 18.9389C47.5099 18.917 46.165 18.6058 42.6349 19.1476Z" fill="#F0F0F0"/>
<path id="Vector_38" d="M40.6476 7.06592C40.6476 7.06592 39.5269 7.21968 39.1085 8.05076C38.7349 8.78298 38.8769 10.5183 39.3588 12.4221C39.629 13.6538 40.0348 14.8532 40.5691 15.999C40.7559 16.324 41.0638 16.5654 41.4283 16.6727L41.3723 14.4138L41.2864 12.8432C41.2864 12.8432 42.3174 11.4629 42.4332 10.3316C42.5789 8.86718 42.2651 8.28141 42.2651 8.28141L40.6476 7.06592Z" fill="#263238"/>
<path id="Vector_39" d="M40.3823 7.34424L38.7947 6.63398C38.8903 6.41837 39.0676 6.24752 39.2891 6.15739C39.5107 6.06725 39.7593 6.06486 39.9826 6.15072C40.0897 6.20238 40.1853 6.27449 40.2636 6.36282C40.3419 6.45114 40.4014 6.55391 40.4386 6.66508C40.4758 6.77626 40.49 6.8936 40.4804 7.01023C40.4707 7.12685 40.4374 7.24041 40.3823 7.34424Z" fill="#263238"/>
<path id="Vector_40" d="M42.4631 9.26267C42.4654 10.097 42.72 10.9119 43.1949 11.6044C43.6698 12.2968 44.3436 12.8357 45.131 13.1528C45.9184 13.4699 46.7841 13.551 47.6185 13.3858C48.453 13.2206 49.2187 12.8166 49.8188 12.2249C50.419 11.6331 50.8265 10.8802 50.99 10.0615C51.1534 9.24266 51.0654 8.39474 50.7371 7.62498C50.4088 6.85521 49.8548 6.19818 49.1454 5.73699C48.436 5.27581 47.603 5.03119 46.7517 5.03408C45.611 5.03796 44.5185 5.48553 43.7144 6.27844C42.9102 7.07135 42.4602 8.14472 42.4631 9.26267Z" fill="#263238"/>
<path id="Vector_41" d="M41.35 12.5942C40.9764 12.9237 40.6477 12.0707 40.3189 11.7375C39.9902 11.4044 38.933 10.9541 38.4063 12.0487C37.8795 13.1434 38.8956 14.6774 39.6876 15.0399C40.8494 15.5671 41.3724 14.4175 41.3724 14.4175L41.4956 19.1769C42.7209 21.337 45.1304 21.293 45.5115 22.2815C45.7393 21.4029 47.0057 20.3082 46.1764 19.3526V17.8077C46.8176 17.9044 47.4675 17.9351 48.1152 17.8992C49.1724 17.7344 49.7253 16.951 50.0428 15.8307C50.5508 14.0257 50.7563 10.9943 50.0428 7.49064C48.8586 6.59367 44.7494 6.75842 42.2652 8.2851C42.4482 11.3934 41.7347 12.2647 41.35 12.5942Z" fill="#FFA8A7"/>
<path id="Vector_42" d="M50.6328 5.00842C50.6192 4.97763 50.5975 4.95091 50.57 4.93098C50.5424 4.91105 50.51 4.89861 50.4759 4.89492C50.4232 4.89801 50.3731 4.91868 50.334 4.9535C50.0384 5.18625 49.7235 5.39443 49.3926 5.57589C49.4729 5.15978 49.4729 4.73258 49.3926 4.31647C49.344 4.06019 49.273 3.47075 48.948 3.40851C48.7575 3.36824 48.5745 3.52567 48.4475 3.65747C47.1549 4.84367 45.459 4.2945 43.9087 4.3421C42.6049 4.38603 41.0322 4.90225 40.4457 6.14702C40.1768 6.7145 40.1282 7.31126 40.6624 7.703C41.1376 8.01658 41.6815 8.21601 42.25 8.28511C44.865 8.72811 48.5633 9.77518 50.4685 7.40278C50.7492 7.04802 50.891 6.60642 50.8682 6.15801C50.8714 5.7654 50.7833 5.37724 50.6104 5.02306C50.6108 5.02063 50.6118 5.01832 50.6132 5.01626C50.6145 5.0142 50.6163 5.01243 50.6184 5.01106C50.6205 5.00969 50.6229 5.00875 50.6254 5.0083C50.6278 5.00785 50.6304 5.00789 50.6328 5.00842Z" fill="#263238"/>
<path id="Vector_43" d="M46.1689 17.8077C46.1689 17.8077 43.8042 17.3464 42.9786 16.9217C42.4938 16.675 42.0946 16.2928 41.8318 15.8234C41.9576 16.2966 42.18 16.74 42.4855 17.1267C43.0907 17.8809 46.1689 18.4301 46.1689 18.4301V17.8077Z" fill="#F28F8F"/>
<path id="Vector_44" d="M45.6122 11.8913C45.6142 11.9535 45.6035 12.0154 45.5809 12.0735C45.5582 12.1316 45.5239 12.1846 45.4801 12.2296C45.4363 12.2746 45.3838 12.3106 45.3257 12.3355C45.2675 12.3604 45.2049 12.3737 45.1415 12.3746C45.0431 12.379 44.9457 12.3544 44.8617 12.3041C44.7777 12.2537 44.711 12.1798 44.6703 12.092C44.6295 12.0042 44.6165 11.9064 44.6329 11.8112C44.6493 11.7161 44.6944 11.628 44.7624 11.5582C44.8304 11.4884 44.9181 11.4401 45.0143 11.4196C45.1105 11.3991 45.2108 11.4073 45.3022 11.4431C45.3937 11.479 45.472 11.5408 45.5273 11.6207C45.5825 11.7006 45.6121 11.7948 45.6122 11.8913Z" fill="#263238"/>
<path id="Vector_45" d="M45.433 10.1632L44.3758 10.6245C44.3158 10.4833 44.3139 10.3249 44.3702 10.1824C44.4266 10.0398 44.537 9.92407 44.6784 9.85935C44.748 9.82898 44.8233 9.81277 44.8995 9.8117C44.9758 9.81063 45.0514 9.82473 45.122 9.85313C45.1925 9.88153 45.2564 9.92366 45.3099 9.97695C45.3633 10.0303 45.4052 10.0936 45.433 10.1632Z" fill="#263238"/>
<path id="Vector_46" d="M45.7879 14.985L47.2821 15.5378C47.2494 15.637 47.1966 15.7286 47.1269 15.8074C47.0572 15.8861 46.9721 15.9502 46.8766 15.996C46.7811 16.0418 46.6771 16.0683 46.5709 16.0738C46.4647 16.0794 46.3585 16.0639 46.2586 16.0284C46.0585 15.9469 45.898 15.7931 45.8104 15.5989C45.7228 15.4047 45.7147 15.1849 45.7879 14.985Z" fill="#B16668"/>
<path id="Vector_47" d="M46.2735 16.0284C46.4071 16.0772 46.552 16.0886 46.6918 16.0613C46.6804 15.8749 46.5967 15.6997 46.4578 15.5718C46.3189 15.4438 46.1353 15.3727 45.9447 15.3731C45.8748 15.3727 45.8054 15.3838 45.7393 15.406C45.7639 15.5469 45.8264 15.6788 45.9203 15.7881C46.0142 15.8975 46.1361 15.9804 46.2735 16.0284Z" fill="#F28F8F"/>
<path id="Vector_48" d="M49.9307 10.4598L48.8362 10.0644C48.8564 9.98949 48.8926 9.91969 48.9425 9.85962C48.9923 9.79954 49.0547 9.75055 49.1254 9.71592C49.1961 9.68128 49.2734 9.66179 49.3524 9.65875C49.4314 9.6557 49.5101 9.66917 49.5833 9.69825C49.7306 9.75632 49.8492 9.86816 49.914 10.0102C49.9788 10.1523 49.9848 10.3134 49.9307 10.4598Z" fill="#263238"/>
<path id="Vector_49" d="M49.5198 11.7375C49.5161 11.8286 49.4852 11.9167 49.4309 11.9907C49.3766 12.0647 49.3013 12.1214 49.2143 12.1538C49.1274 12.1862 49.0326 12.1929 48.9419 12.1729C48.8511 12.153 48.7683 12.1073 48.7038 12.0416C48.6393 11.9759 48.596 11.8931 48.5791 11.8034C48.5623 11.7138 48.5727 11.6212 48.6091 11.5373C48.6455 11.4534 48.7063 11.3819 48.7838 11.3315C48.8614 11.2812 48.9523 11.2543 49.0453 11.2543C49.109 11.2552 49.1717 11.2685 49.2301 11.2934C49.2884 11.3182 49.3412 11.3541 49.3853 11.3991C49.4294 11.444 49.464 11.497 49.4871 11.5551C49.5101 11.6132 49.5213 11.6752 49.5198 11.7375Z" fill="#263238"/>
<path id="Vector_50" d="M47.1775 11.624L47.3344 14.271L48.8286 13.7694L47.3344 11.5947C47.2805 11.5933 47.227 11.6033 47.1775 11.624Z" fill="#F28F8F"/>
<path id="Vector_51" d="M41.4769 17.8369C41.1743 17.8589 41.0436 17.9028 40.797 18.3824C40.5206 18.9279 40.2815 19.4258 40.2815 19.4258C40.3456 20.2262 40.7055 20.976 41.2939 21.5346C41.8819 22.1251 42.5508 22.6327 43.2812 23.043C43.5418 22.6964 43.8331 22.373 44.1516 22.0765C44.3061 21.9169 44.5185 21.8233 44.7428 21.8158C44.9671 21.8082 45.1855 21.8874 45.3508 22.0362C45.2129 21.7377 45.0317 21.4602 44.8128 21.2125C44.6298 21.0221 43.8864 20.8024 42.8703 20.1764C42.2288 19.7472 41.7414 19.1311 41.4769 18.4154V17.8369Z" fill="#E0E0E0"/>
<path id="Vector_52" d="M45.6123 22.0069C45.6488 21.6082 45.799 21.2276 46.0456 20.9086C46.3071 20.4107 46.1652 20.0189 46.1689 19.5979C46.1726 19.1769 46.1689 18.236 46.1689 18.236C46.3568 18.2371 46.5389 18.2997 46.6864 18.4138C46.8339 18.5278 46.9384 18.6869 46.9833 18.8657C47.2 19.3892 47.652 20.0372 47.652 21.2198C47.652 22.2815 47.5511 22.4792 47.5511 22.4792C47.2337 22.1907 46.8884 21.9332 46.5201 21.7104C46.4431 21.6607 46.3557 21.6288 46.2643 21.6171C46.173 21.6054 46.0801 21.6141 45.9927 21.6427C45.9053 21.6712 45.8257 21.7189 45.7598 21.7819C45.6939 21.845 45.6435 21.9219 45.6123 22.0069Z" fill="#E0E0E0"/>
<path id="Vector_53" d="M36.7924 19.792C34.6967 19.792 33.2659 21.1649 31.8613 23.4531C30.7705 25.2214 26.6987 31.9835 25.8843 33.8909C25.1372 35.6263 25.0923 36.3439 26.3998 37.552C27.442 38.5332 33.6992 43.7759 34.8199 44.7901C35.6261 45.5894 36.708 46.0647 37.8533 46.1227C39.5605 46.2252 40.3748 45.6102 40.6662 45.2404C42.4108 43.0217 39.0823 42.6117 37.8794 41.9197C37.2933 41.58 36.761 41.1582 36.2993 40.6676L36.3553 39.7634C36.3553 39.7634 35.0403 39.7963 34.6294 39.4851C34.2185 39.1739 30.8676 35.1211 30.8676 35.1211L36.3964 27.3339C37.5245 26.0488 38.2605 21.6006 36.7924 19.792Z" fill="#FFA8A7"/>
<path id="Vector_54" d="M37.1435 19.792C35.4699 19.5431 33.8785 19.9421 32.2012 22.5415C30.5239 25.1409 26.2728 32.551 25.7871 33.7116C25.3015 34.8721 24.5992 36.0913 25.9889 37.3507C27.3785 38.6101 28.7757 39.789 28.7757 39.789C29.1268 38.7712 30.6771 37.0066 31.9547 36.4391L31.1478 35.2199C31.1478 35.2199 36.0041 28.143 36.8932 26.9019C37.7823 25.6608 38.4883 22.8088 37.1435 19.792Z" fill="#E0E0E0"/>
</g>
</g>
</g>
<defs>
<clipPath id="clip0_94_3357">
<rect width="175" height="163" fill="white"/>
</clipPath>
</defs>
</svg>
