<svg width="191" height="170" viewBox="0 0 191 170" fill="none" xmlns="http://www.w3.org/2000/svg">
<g id="&#60;Group&#62;">
<g id="&#60;Group&#62;_2">
<path id="&#60;Path&#62;" d="M99.737 159.742C132.652 163.169 159.584 160.87 176.872 141.091C193.457 122.1 175.722 100.682 178.362 83.7562C182.45 57.5904 197.162 33 178.341 15.0309C159.499 -2.9595 132.907 14.9244 106.273 15.0948C79.6601 15.2651 47.171 -7.98403 26.2 10.0276C11.8716 22.3335 20.1535 44.9013 20.1322 67.3414C20.0897 92.7195 -2.86138 115.309 25.7316 136.684C46.9581 152.567 68.8872 156.548 99.737 159.742Z" fill="#E6F7FF"/>
</g>
<g id="&#60;Group&#62;_3">
<path id="&#60;Path&#62;_2" d="M107.785 157.762C140.189 157.762 166.184 152.822 181.024 131.787C195.267 111.625 175.829 92.5705 176.68 75.8149C178.022 49.9046 189.859 24.4625 169.697 8.8567C149.556 -6.74915 125.434 13.349 99.5241 16.2232C73.6137 19.0761 39.6342 -0.276879 21.0264 19.3741C8.31606 32.8084 18.6632 53.9497 20.8987 75.8149C23.4322 100.533 3.37669 124.847 33.3748 142.794C55.6446 156.101 77.4034 157.762 107.785 157.762Z" fill="#CDECFF"/>
</g>
<g id="&#60;Group&#62;_4">
<g id="&#60;Group&#62;_5">
<g id="&#60;Group&#62;_6">
<path id="&#60;Path&#62;_3" d="M52.2381 60.124C52.2381 61.4227 51.7271 62.5937 50.8755 63.4453C50.0239 64.2757 48.8529 64.8079 47.5542 64.8079H5.50566C2.90824 64.8079 0.821777 62.7002 0.821777 60.124C0.821777 58.8253 1.33275 57.6543 2.18436 56.8027C3.03598 55.9511 4.20695 55.4401 5.50566 55.4401H5.76115C5.76115 47.7969 11.9354 41.6227 19.5786 41.6227C24.4541 41.6227 28.7335 44.135 31.2032 47.9672C32.0761 47.7543 32.9703 47.6266 33.907 47.6266C38.8464 47.6266 42.998 50.9266 44.2967 55.4401H47.5542C50.1516 55.4401 52.2381 57.5266 52.2381 60.124Z" fill="#9FCAED"/>
</g>
<g id="&#60;Group&#62;_7" style="mix-blend-mode:multiply" opacity="0.5">
<path id="&#60;Path&#62;_4" d="M52.0252 61.5291C51.791 62.253 51.3864 62.913 50.8755 63.4453C50.0239 64.2756 48.8529 64.8078 47.5542 64.8078H5.50566C2.90824 64.8078 0.821777 62.7001 0.821777 60.124C0.821777 58.8252 1.33275 57.6543 2.18436 56.8027C2.52501 56.462 2.92953 56.164 3.37662 55.951C3.36243 56.1072 3.35533 56.2562 3.35533 56.3981C3.35533 59.2298 5.6334 61.5291 8.46503 61.5291H52.0252Z" fill="#9FCAED"/>
</g>
<g id="&#60;Group&#62;_8">
<path id="&#60;Path&#62;_5" d="M188.347 45.3696C188.347 46.8174 187.751 48.1374 186.793 49.0954C185.835 50.0322 184.537 50.6284 183.089 50.6284H152.324C149.407 50.6284 147.065 48.2651 147.065 45.3696C147.065 43.9219 147.64 42.6019 148.598 41.6438C149.556 40.707 150.855 40.1109 152.324 40.1109H158.541C159.712 34.6606 164.566 30.5515 170.378 30.5515C176.191 30.5515 181.045 34.6606 182.237 40.1109H183.089C185.984 40.1109 188.347 42.4528 188.347 45.3696Z" fill="#9FCAED"/>
</g>
<g id="&#60;Group&#62;_9" style="mix-blend-mode:multiply" opacity="0.5">
<path id="&#60;Path&#62;_6" d="M188.007 47.1795C187.751 47.9033 187.326 48.5633 186.793 49.0956C185.835 50.0324 184.537 50.6285 183.089 50.6285H152.324C149.407 50.6285 147.065 48.2653 147.065 45.3698C147.065 43.922 147.64 42.602 148.598 41.644C148.896 41.3601 149.223 41.1117 149.578 40.8988C149.365 41.4524 149.258 42.0698 149.258 42.7085C149.258 45.604 151.6 47.9672 154.517 47.9672H185.282C186.282 47.9672 187.219 47.6691 188.007 47.1795Z" fill="#9FCAED"/>
</g>
<g id="&#60;Group&#62;_10">
<path id="&#60;Path&#62;_7" d="M90.7524 19.7362C90.7524 21.0988 91.306 22.3549 92.2002 23.2704C93.1157 24.1646 94.3718 24.7181 95.7557 24.7181H140.593C143.34 24.7181 145.596 22.4826 145.596 19.7362C145.596 18.3523 145.022 17.0962 144.127 16.202C143.212 15.2865 141.977 14.7329 140.593 14.7329H140.316C140.316 6.57873 133.716 0 125.584 0C120.389 0 115.811 2.68259 113.193 6.77034C112.256 6.53615 111.298 6.40841 110.297 6.40841C105.038 6.40841 100.589 9.92132 99.2047 14.7329H95.7557C92.9879 14.7329 90.7524 16.9684 90.7524 19.7362Z" fill="#9FCAED"/>
</g>
<g id="&#60;Group&#62;_11" style="mix-blend-mode:multiply" opacity="0.5">
<path id="&#60;Path&#62;_8" d="M145.469 20.7793C145 23.0361 142.978 24.718 140.593 24.718H95.7557C94.3718 24.718 93.1157 24.1645 92.2002 23.2703C91.306 22.3548 90.7524 21.0987 90.7524 19.7361C90.7524 17.607 92.0512 15.8186 93.9034 15.0735C93.9034 15.1586 93.9034 15.2438 93.9034 15.329C93.9034 16.8406 94.5208 18.2032 95.5002 19.1825C96.5008 20.1619 97.8634 20.7793 99.375 20.7793H145.469Z" fill="#9FCAED"/>
</g>
<g id="&#60;Group&#62;_12">
<path id="&#60;Path&#62;_9" d="M155.39 143.199C155.39 144.412 155.88 145.52 156.689 146.329C157.498 147.138 158.605 147.627 159.819 147.627H185.75C188.199 147.627 190.179 145.647 190.179 143.199C190.179 141.964 189.689 140.857 188.88 140.069C188.092 139.26 186.985 138.771 185.75 138.771H180.513C179.512 134.151 175.424 130.723 170.528 130.723C165.631 130.723 161.522 134.151 160.542 138.771H159.819C157.37 138.771 155.39 140.751 155.39 143.199Z" fill="#9FCAED"/>
</g>
<g id="&#60;Group&#62;_13" style="mix-blend-mode:multiply" opacity="0.5">
<path id="&#60;Path&#62;_10" d="M189.881 144.796C189.242 146.457 187.645 147.628 185.75 147.628H159.819C158.605 147.628 157.498 147.138 156.689 146.329C155.88 145.52 155.39 144.413 155.39 143.199C155.39 141.581 156.242 140.197 157.519 139.41C157.505 139.594 157.498 139.779 157.498 139.963C157.498 141.305 158.03 142.518 158.903 143.391C159.797 144.264 161.011 144.796 162.331 144.796H189.881Z" fill="#9FCAED"/>
</g>
</g>
</g>
<g id="&#60;Group&#62;_14">
<g id="&#60;Group&#62;_15">
<g id="&#60;Group&#62;_16">
<g id="&#60;Group&#62;_17">
<path id="&#60;Path&#62;_11" d="M122.965 68.7894L122.56 68.6829C123.412 65.021 118.153 61.7635 112.064 58.0164C105.124 53.7371 97.2674 48.9041 94.8403 41.708L95.2448 41.559C97.6294 48.6061 105.4 53.4177 112.277 57.6545C118.515 61.4868 123.902 64.8081 122.965 68.7894Z" fill="#306CF1"/>
</g>
</g>
<g id="&#60;Group&#62;_18">
<g id="&#60;Group&#62;_19">
<path id="&#60;Path&#62;_12" d="M90.6673 72.0468C88.5596 72.0468 86.7286 71.7274 85.3235 70.9184C83.9609 70.1307 83.0667 68.9384 82.6409 67.3629L83.0667 67.2565C83.4499 68.7468 84.2589 69.8113 85.5364 70.5352C89.9435 73.09 99.0345 70.6203 107.04 68.4487C114.044 66.5539 120.112 64.8932 122.369 66.639C122.986 67.1074 123.306 67.81 123.306 68.7468H122.88C122.88 67.9378 122.624 67.3629 122.113 66.9797C120.005 65.3616 113.767 67.0648 107.146 68.8532C101.547 70.3861 95.4151 72.0468 90.6673 72.0468Z" fill="#306CF1"/>
</g>
</g>
<g id="&#60;Group&#62;_20">
<g id="&#60;Group&#62;_21">
<path id="&#60;Path&#62;_13" d="M123.178 69.002L122.752 68.9594C123.369 62.1891 113.555 60.5497 99.9926 58.2716C85.0254 55.7807 66.3751 52.651 53.2815 41.1116L53.5583 40.7922C66.5667 52.2465 85.1319 55.3549 100.056 57.8458C113.853 60.1665 123.838 61.8271 123.178 69.002Z" fill="#306CF1"/>
</g>
</g>
</g>
<g id="&#60;Group&#62;_22">
<path id="&#60;Path&#62;_14" d="M96.5009 17.0323C99.6093 23.1852 97.1396 30.6794 90.9867 33.7665C84.8337 36.8536 77.3608 34.384 74.2524 28.2523C71.1653 22.0994 73.635 14.6052 79.7879 11.5181C85.9196 8.43098 93.4138 10.9007 96.5009 17.0323Z" fill="#FFF46A"/>
<g id="&#60;Group&#62;_23">
<g id="&#60;Group&#62;_24">
<path id="&#60;Path&#62;_15" d="M82.6195 24.5264L81.9382 24.867L86.537 34.0219L87.2183 33.6812L82.6195 24.5264Z" fill="#306CF1"/>
</g>
<g id="&#60;Group&#62;_25">
<path id="&#60;Path&#62;_16" d="M89.2196 21.2051L88.5383 21.5457L93.1583 30.7006L93.8396 30.3599L89.2196 21.2051Z" fill="#306CF1"/>
</g>
<g id="&#60;Group&#62;_26">
<g id="&#60;Group&#62;_27">
<path id="&#60;Compound Path&#62;" fill-rule="evenodd" clip-rule="evenodd" d="M89.2623 22.9721L87.4313 23.8876C87.6442 24.0154 87.8358 24.207 87.9423 24.4625C88.3255 25.1863 88.0275 26.0805 87.3036 26.4425C86.5584 26.8044 85.6855 26.5063 85.3023 25.7825C85.1958 25.5483 85.132 25.2928 85.1533 25.0373L83.3223 25.9528L83.0029 25.2928L88.9217 22.3121L89.2623 22.9721ZM86.3029 24.4625C85.941 24.6541 85.792 25.1012 85.9836 25.4631C86.1539 25.825 86.601 25.9741 86.9629 25.7825C87.3462 25.6121 87.4739 25.1438 87.3036 24.7818C87.112 24.4199 86.6649 24.2709 86.3029 24.4625Z" fill="#306CF1"/>
</g>
</g>
</g>
<g id="&#60;Group&#62;_28" style="mix-blend-mode:multiply" opacity="0.5">
<path id="&#60;Path&#62;_17" d="M97.8424 22.5679C97.8424 22.5963 97.8424 22.6247 97.8424 22.6531C97.8424 23.0505 97.8211 23.4408 97.7785 23.824C97.7785 23.8524 97.7785 23.8737 97.7785 23.8879C97.374 27.9757 94.9256 31.7866 90.9869 33.7666C84.834 36.8538 77.361 34.3841 74.2526 28.2524C72.6559 25.0589 72.5494 21.5034 73.6778 18.395C73.6778 20.2898 74.1036 22.206 74.9978 24.0156C78.1062 30.1686 85.5791 32.6383 91.732 29.5299C91.9307 29.4305 92.1224 29.3311 92.3069 29.2318C92.0372 29.2602 91.7604 29.2744 91.4766 29.2744C87.9636 29.2744 85.1107 26.4215 85.1107 22.9085C85.1107 19.3956 87.9636 16.5427 91.4766 16.5427C94.883 16.5427 97.6721 19.2253 97.8424 22.5679Z" fill="#FF9656"/>
</g>
<g id="&#60;Group&#62;_29">
<path id="&#60;Path&#62;_18" d="M95.2659 29.636L98.502 36.0657C99.2259 37.5134 98.651 39.3018 97.182 40.0257L92.3278 42.4741C92.1433 42.5734 91.9588 42.6444 91.7742 42.687C91.391 42.7934 91.0078 42.8147 90.6459 42.7721C90.2413 42.7296 89.8581 42.6018 89.4962 42.3889C89.2407 42.2399 88.9852 42.0483 88.7936 41.7928C88.6233 41.6083 88.4813 41.4025 88.3678 41.1754L85.1104 34.7457L95.2659 29.636Z" fill="#306CF1"/>
</g>
<g id="&#60;Group&#62;_30">
<path id="&#60;Path&#62;_19" d="M90.7313 31.9144L86.9629 38.3867L86.4519 37.4073L89.2197 32.6809L90.7313 31.9144Z" fill="#CF8EFF"/>
</g>
<g id="&#60;Group&#62;_31">
<path id="&#60;Path&#62;_20" d="M94.1803 30.1683L88.0912 40.6432L87.6016 39.6426L92.6687 30.9348L94.1803 30.1683Z" fill="#CF8EFF"/>
</g>
<g id="&#60;Group&#62;_32">
<path id="&#60;Path&#62;_21" d="M95.5428 30.1898L96.0324 31.1692L89.4963 42.3892C89.2408 42.2402 88.9853 42.0486 88.7937 41.7931L95.5428 30.1898Z" fill="#CF8EFF"/>
</g>
<g id="&#60;Group&#62;_33">
<path id="&#60;Path&#62;_22" d="M96.6712 32.4254L97.1608 33.4261L91.7744 42.6874C91.3912 42.7938 91.0079 42.8151 90.646 42.7725L96.6712 32.4254Z" fill="#CF8EFF"/>
</g>
<g id="&#60;Group&#62;_34">
<path id="&#60;Path&#62;_23" d="M97.7996 34.6819L98.2893 35.6612L95.1596 41.0477L93.6479 41.8142L97.7996 34.6819Z" fill="#CF8EFF"/>
</g>
<g id="&#60;Group&#62;_35">
<path id="&#60;Path&#62;_24" d="M95.99 29.2743L84.3867 35.1079L85.1745 36.6833L96.7777 30.8498L95.99 29.2743Z" fill="#306CF1"/>
</g>
<g id="&#60;Group&#62;_36">
<path id="&#60;Path&#62;_25" d="M96.2455 40.5156C96.5861 41.2182 96.2242 42.1337 95.4152 42.5595C94.5848 42.964 93.6268 42.7085 93.2861 42.006L96.2455 40.5156Z" fill="#306CF1"/>
</g>
</g>
<g id="&#60;Group&#62;_37">
<g id="&#60;Group&#62;_38">
<path id="&#60;Path&#62;_26" d="M83.0028 67.8736C82.7899 67.8736 79.6176 64.0413 79.6176 64.0413L68.866 76.3472C67.7802 77.582 65.9279 77.6885 64.693 76.6239L53.984 67.2562C52.7491 66.1917 52.6214 64.3181 53.7072 63.0833L56.5388 59.8258L67.9718 46.7535C69.0576 45.54 70.9311 45.4122 72.1447 46.4768L83.237 56.1852C83.6628 56.5471 83.8331 57.7181 83.8544 59.2084C83.8757 62.6575 83.0879 67.7884 83.0028 67.8736Z" fill="#4177FC"/>
</g>
<g id="&#60;Group&#62;_39">
<path id="&#60;Path&#62;_27" d="M63.5434 67.0221C63.9266 67.3415 63.9692 67.9376 63.6285 68.3208C63.3092 68.7041 62.713 68.7466 62.3298 68.406C61.9466 68.0653 61.904 67.4905 62.2447 67.1073C62.5853 66.7241 63.1601 66.6815 63.5434 67.0221Z" fill="#00618E"/>
</g>
<g id="&#60;Group&#62;_40">
<path id="&#60;Path&#62;_28" d="M68.9513 60.8265C69.3345 61.1672 69.3771 61.7633 69.0365 62.1465C68.6958 62.5298 68.121 62.5724 67.7378 62.2317C67.3545 61.8911 67.312 61.3162 67.6526 60.933C67.972 60.5285 68.5681 60.5072 68.9513 60.8265Z" fill="#00618E"/>
</g>
<g id="&#60;Group&#62;_41">
<path id="&#60;Path&#62;_29" d="M74.4015 54.6096C74.7847 54.929 74.8273 55.5251 74.4867 55.9084C74.146 56.2916 73.5712 56.3342 73.188 55.9935C72.8047 55.6529 72.7622 55.078 73.1028 54.6948C73.4435 54.3116 74.0183 54.269 74.4015 54.6096Z" fill="#00618E"/>
</g>
<g id="&#60;Group&#62;_42" style="mix-blend-mode:multiply" opacity="0.5">
<path id="&#60;Path&#62;_30" d="M83.0028 67.8738C82.7899 67.8738 79.6176 64.0415 79.6176 64.0415L68.866 76.3474C67.7802 77.5822 65.9279 77.6887 64.693 76.6242L53.984 67.2564C52.7491 66.1919 52.6214 64.3183 53.7072 63.0835L56.5388 59.826C60.2434 61.3802 70.995 65.8938 71.7189 65.8938C72.5918 65.8938 81.0653 60.1028 81.7466 60.0602C82.4279 60.0177 83.0028 67.8738 83.0028 67.8738Z" fill="#1256FB"/>
</g>
</g>
<g id="&#60;Group&#62;_43">
<path id="&#60;Path&#62;_31" d="M53.8561 41.3885C53.8278 41.4595 53.8136 41.5376 53.8136 41.6227L54.0903 52.6724C54.0903 52.9066 53.9413 53.077 53.771 53.1621C53.6007 53.2473 53.4091 53.226 53.2387 53.1195L44.3181 46.6047C44.2542 46.5621 44.169 46.5195 44.0839 46.5195C43.9987 46.4982 43.9135 46.4982 43.8284 46.5408L33.3961 50.2028C33.1832 50.2879 32.949 50.2027 32.8213 50.0537C32.7148 49.926 32.6509 49.7344 32.7148 49.5427L36.1426 39.0253C36.1567 38.9685 36.1638 38.9117 36.1638 38.855C36.1638 38.7485 36.1213 38.6421 36.0574 38.5569L29.3509 29.764C29.2019 29.5724 29.2019 29.3382 29.3083 29.1678C29.4148 29.0188 29.5638 28.9124 29.7554 28.9124L40.8264 28.9337C40.9116 28.9337 41.018 28.8911 41.1032 28.8485C41.16 28.8059 41.2097 28.7562 41.2522 28.6995L47.5329 19.6085C47.6607 19.4169 47.8523 19.353 48.0439 19.3743C48.2355 19.4169 48.4058 19.5233 48.4697 19.7362L51.8761 30.2537C51.8974 30.3388 51.9613 30.424 52.0252 30.4879C52.0819 30.5304 52.1458 30.5659 52.2168 30.5943L62.8194 33.7453C63.011 33.8092 63.1388 33.9582 63.1813 34.1285C63.2239 34.3201 63.16 34.5543 62.9684 34.6821L54.0265 41.1756C53.9626 41.2395 53.8987 41.3034 53.8561 41.3885Z" fill="#FF9656"/>
</g>
<g id="&#60;Group&#62;_44" style="mix-blend-mode:multiply" opacity="0.5">
<path id="&#60;Path&#62;_32" d="M36.164 38.8548L44.0201 36.6406C44.3821 36.5341 44.6375 36.9812 44.3821 37.258L32.8214 50.0535C32.7149 49.9258 32.6511 49.7342 32.7149 49.5426L36.1427 39.0251C36.1569 38.9683 36.164 38.9116 36.164 38.8548Z" fill="#FF9656"/>
</g>
<g id="&#60;Group&#62;_45" style="mix-blend-mode:multiply" opacity="0.5">
<path id="&#60;Path&#62;_33" d="M41.1035 28.8485L44.7015 35.3208C44.8719 35.6189 44.5525 35.9808 44.2332 35.8318L29.3299 29.1679H29.3086C29.415 29.0188 29.5641 28.9124 29.7557 28.9124L40.8267 28.9337C40.9119 28.9337 41.0183 28.8911 41.1035 28.8485Z" fill="#FF9656"/>
</g>
<g id="&#60;Group&#62;_46" style="mix-blend-mode:multiply" opacity="0.5">
<path id="&#60;Path&#62;_34" d="M52.0252 30.4877L46.0426 35.6187C45.7658 35.8529 45.3613 35.6187 45.4252 35.2781L48.0439 19.3741C48.2355 19.4167 48.4058 19.5232 48.4697 19.7361L51.8762 30.2535C51.8975 30.3387 51.9613 30.4239 52.0252 30.4877Z" fill="#FF9656"/>
</g>
<g id="&#60;Group&#62;_47" style="mix-blend-mode:multiply" opacity="0.5">
<path id="&#60;Path&#62;_35" d="M44.084 46.5193L45.1059 37.5347C45.1485 37.1728 45.6595 37.0664 45.8085 37.407L53.7711 53.1619C53.6008 53.247 53.4092 53.2258 53.2388 53.1193L44.3182 46.6044C44.2543 46.5619 44.1691 46.5193 44.084 46.5193Z" fill="#FF9656"/>
</g>
<g id="&#60;Group&#62;_48" style="mix-blend-mode:multiply" opacity="0.5">
<path id="&#60;Path&#62;_36" d="M62.9685 34.682L54.0266 41.1755C53.9627 41.2394 53.8988 41.3033 53.8562 41.3884L46.1917 36.8536C45.8936 36.662 45.9788 36.1936 46.3407 36.151L63.1814 34.1284C63.224 34.32 63.1601 34.5542 62.9685 34.682Z" fill="#FF9656"/>
</g>
</g>
<g id="&#60;Group&#62;_49">
<g id="&#60;Group&#62;_50">
<path id="&#60;Path&#62;_37" d="M142.807 124.549C142.722 124.868 142.829 125.932 142.765 126.231C142.701 126.507 142.424 126.741 141.807 126.507C141.168 126.273 140.721 124.655 140.721 124.549C140.7 124.272 140.763 120.801 140.891 120.397C141.019 119.971 142.083 119.269 142.083 119.269C141.572 123.931 142.871 124.357 142.871 124.357C142.829 124.442 142.807 124.527 142.807 124.549Z" fill="#BE347E"/>
</g>
<g id="&#60;Group&#62;_51">
<path id="&#60;Path&#62;_38" d="M144.127 120.631C144.127 120.631 143.127 123.505 142.871 124.357C142.871 124.357 141.572 123.931 142.083 119.269L144.127 120.631Z" fill="#FFC1A5"/>
</g>
<g id="&#60;Group&#62;_52">
<path id="&#60;Path&#62;_39" d="M149.812 112.392L144.127 120.631L142.083 119.269L145.873 111.37L149.812 112.392Z" fill="#CC1300"/>
</g>
</g>
<g id="&#60;Group&#62;_53">
<g id="&#60;Group&#62;_54">
<path id="&#60;Path&#62;_40" d="M61.0951 159.721C58.157 166.768 50.6202 171.068 42.8067 169.642C35.3976 168.279 30.0537 162.19 29.3086 155.079C29.266 154.71 29.2376 154.341 29.2234 153.972C29.6066 154.072 29.9898 154.157 30.3731 154.228C38.1228 155.654 45.5957 151.439 48.5976 144.519C49.5557 145.052 50.5989 145.435 51.7486 145.648C52.3447 145.747 52.9338 145.804 53.5157 145.818C53.4731 145.988 53.4377 146.159 53.4093 146.329C52.6428 150.417 54.0906 154.419 56.8796 157.102C58.0719 158.252 59.4983 159.146 61.0951 159.721Z" fill="#85B5E0"/>
</g>
<g id="&#60;Group&#62;_55" style="mix-blend-mode:multiply" opacity="0.5">
<path id="&#60;Path&#62;_41" d="M61.0951 159.721C58.1571 166.768 50.6203 171.068 42.8067 169.642C35.3976 168.279 30.0538 162.19 29.3086 155.079C32.3744 159.87 37.7396 163.063 43.8499 163.063C49.0661 163.063 53.7287 160.764 56.8796 157.102C58.0719 158.251 59.4984 159.146 61.0951 159.721Z" fill="#85B5E0"/>
</g>
<g id="&#60;Group&#62;_56">
<path id="&#60;Path&#62;_42" d="M55.3679 102.407C51.6421 102.151 48.1079 103.663 45.7021 106.281C44.2117 107.878 43.1685 109.922 42.7427 112.243C42.6008 112.952 42.5298 113.662 42.5298 114.372C37.9737 113.733 33.6091 115.756 31.0969 119.311C30.5717 120.063 30.1246 120.872 29.7556 121.738C28.8472 121.937 27.9601 122.221 27.0943 122.59C26.0936 122.994 25.1356 123.484 24.2414 124.08C20.622 126.486 17.9181 130.297 17.0665 134.917C16.8962 135.854 16.811 136.791 16.811 137.706C16.7471 141.006 17.6839 144.136 19.3871 146.818C18.1523 146.861 16.8962 146.776 15.6188 146.542C6.61292 144.902 0.65161 136.258 2.31226 127.252C2.46839 126.387 2.68839 125.556 2.97226 124.762C5.37808 117.885 12.042 113.371 19.3233 113.691C19.0465 111.711 19.0891 109.667 19.451 107.623C21.3672 97.2118 31.3523 90.335 41.7421 92.2511C47.8524 93.3795 52.7492 97.2756 55.3679 102.407Z" fill="#85B5E0"/>
</g>
<g id="&#60;Group&#62;_57" style="mix-blend-mode:multiply" opacity="0.5">
<path id="&#60;Path&#62;_43" d="M19.3871 146.818C18.1523 146.861 16.8962 146.776 15.6188 146.542C6.61292 144.902 0.65161 136.258 2.31226 127.253C2.46839 126.387 2.68839 125.556 2.97226 124.762C4.01549 131.702 9.72131 137.11 16.811 137.706C16.7471 141.006 17.6839 144.136 19.3871 146.818Z" fill="#85B5E0"/>
</g>
<g id="&#60;Group&#62;_58">
<path id="&#60;Path&#62;_44" d="M84.1311 136.812C83.5917 137.096 83.0737 137.43 82.5769 137.813C82.5343 137.841 82.4917 137.87 82.4492 137.898C81.924 137.685 81.3775 137.529 80.8098 137.43C80.3556 137.345 79.9014 137.302 79.4472 137.302C77.1266 137.281 74.9336 138.26 73.4433 139.921C72.7407 140.709 72.1872 141.624 71.8253 142.667C71.6975 143.05 71.5982 143.441 71.5272 143.838C71.0588 146.393 71.8465 148.863 73.4646 150.651C72.4001 150.758 71.3143 150.715 70.2072 150.502C66.6943 149.863 63.8201 147.734 62.1168 144.86C61.5207 144.967 60.882 144.945 60.2433 144.839C60.1581 144.825 60.0801 144.81 60.0091 144.796C59.6046 144.711 59.2426 144.562 58.8807 144.413C57.433 143.732 56.3471 142.454 55.8788 140.943C55.7936 140.645 55.7297 140.339 55.6871 140.027C55.6233 139.474 55.6233 138.878 55.7297 138.303C55.7723 138.118 55.8149 137.941 55.8575 137.77C56.5813 135.237 58.9659 133.555 61.5633 133.704C61.6768 133.463 61.8046 133.221 61.9465 132.98C62.3155 132.313 62.7414 131.688 63.2239 131.107C65.9065 127.934 70.1646 126.231 74.5291 127.04C75.6788 127.253 76.7646 127.636 77.7653 128.126C81.1504 129.85 83.5137 133.087 84.1311 136.812Z" fill="#85B5E0"/>
</g>
<g id="&#60;Group&#62;_59" style="mix-blend-mode:multiply" opacity="0.5">
<path id="&#60;Path&#62;_45" d="M73.4646 150.651C72.4001 150.757 71.3143 150.715 70.2072 150.502C66.6943 149.863 63.8201 147.734 62.1168 144.86C61.5207 144.966 60.882 144.945 60.2433 144.839C60.1581 144.824 60.0801 144.81 60.0091 144.796C59.6046 144.711 59.2426 144.562 58.8807 144.413C57.433 143.731 56.3471 142.454 55.8788 140.942C55.7936 140.644 55.7297 140.339 55.6871 140.027C55.6233 139.473 55.6233 138.877 55.7297 138.302C55.7723 138.118 55.8149 137.94 55.8575 137.77C56.922 140.261 60.0091 142.007 63.2026 141.475C64.9485 142.433 66.9498 142.986 69.0788 142.986C69.7033 142.986 70.3136 142.937 70.9098 142.837C71.222 142.795 71.5272 142.738 71.8253 142.667C71.6975 143.05 71.5982 143.44 71.5272 143.838C71.0588 146.393 71.8465 148.862 73.4646 150.651Z" fill="#85B5E0"/>
</g>
<g id="&#60;Group&#62;_60">
<path id="&#60;Path&#62;_46" d="M76.3175 152.652C74.3375 157.975 68.7594 161.275 62.9684 160.21C62.3297 160.097 61.7052 159.933 61.0949 159.72C57.9439 158.592 55.4955 156.229 54.2181 153.291C53.2813 151.183 52.9407 148.777 53.4091 146.329C53.4374 146.158 53.4729 145.988 53.5155 145.818C55.4316 145.839 57.2839 145.328 58.8807 144.413C59.2426 144.562 59.6046 144.711 60.0091 144.796C60.08 144.81 60.1581 144.824 60.2433 144.838C60.882 144.945 61.5207 144.966 62.1168 144.86C63.8201 147.734 66.6943 149.863 70.2072 150.502C70.704 150.601 71.1936 150.658 71.6762 150.672C72.2865 150.715 72.8827 150.707 73.4646 150.651C74.2523 151.502 75.2104 152.205 76.3175 152.652Z" fill="#9FCAED"/>
</g>
<g id="&#60;Group&#62;_61" style="mix-blend-mode:multiply" opacity="0.5">
<path id="&#60;Path&#62;_47" d="M76.3177 152.652C74.3377 157.975 68.7596 161.275 62.9686 160.21C62.3299 160.097 61.7054 159.933 61.0951 159.72C57.9441 158.592 55.4957 156.229 54.2183 153.291C56.0918 155.59 58.966 157.08 62.1809 157.08C66.4602 157.08 70.1435 154.44 71.6764 150.672C72.2867 150.715 72.8828 150.708 73.4648 150.651C74.2525 151.502 75.2106 152.205 76.3177 152.652Z" fill="#9FCAED"/>
</g>
<g id="&#60;Group&#62;_62">
<path id="&#60;Path&#62;_48" d="M101.483 149.501C101.249 150.715 100.844 151.865 100.291 152.908C97.9274 157.4 92.839 160.04 87.6015 159.061C84.0035 158.401 81.0867 156.208 79.4047 153.27C78.908 153.27 78.4183 153.22 77.9357 153.121C77.368 153.021 76.8286 152.865 76.3176 152.652C75.2105 152.205 74.2525 151.503 73.4647 150.651C71.9105 148.948 71.1228 146.585 71.4634 144.136C71.4776 144.037 71.4989 143.938 71.5273 143.838C71.8041 142.327 72.4854 140.985 73.4434 139.921C75.2318 137.941 77.9996 136.919 80.8099 137.43C81.3777 137.529 81.9241 137.685 82.4493 137.898C82.9815 137.494 83.5351 137.132 84.1312 136.812C86.4306 135.578 89.1557 135.088 91.9022 135.599C92.6687 135.741 93.3996 135.947 94.0951 136.216C99.3112 138.26 102.526 143.774 101.483 149.501Z" fill="#679DC9"/>
</g>
<g id="&#60;Group&#62;_63" style="mix-blend-mode:multiply" opacity="0.5">
<path id="&#60;Path&#62;_49" d="M100.653 150.863C100.653 151.587 100.525 152.29 100.291 152.907C97.9274 157.4 92.839 160.04 87.6015 159.06C84.0035 158.4 81.0867 156.207 79.4047 153.269C78.908 153.269 78.4183 153.22 77.9357 153.12C77.368 153.021 76.8286 152.865 76.3176 152.652C75.2105 152.205 74.2525 151.502 73.4647 150.651C71.9105 148.947 71.1228 146.584 71.4634 144.136C72.0596 147.053 74.657 149.267 77.7654 149.267C79.2557 149.267 80.6183 148.756 81.7041 147.925C83.4499 151.332 86.6648 153.865 90.497 154.738C89.5815 153.716 89.028 152.354 89.028 150.863C89.028 147.67 91.6254 145.051 94.8403 145.051C95.6706 145.051 96.4796 145.243 97.2035 145.562C99.2261 146.456 100.653 148.5 100.653 150.863Z" fill="#679DC9"/>
</g>
<g id="&#60;Group&#62;_64">
<path id="&#60;Path&#62;_50" d="M49.6834 140.921C49.4492 142.177 49.0873 143.391 48.5976 144.519C48.4273 144.917 48.2428 145.3 48.044 145.669C44.744 151.907 37.6756 155.569 30.373 154.228C29.9898 154.157 29.6066 154.071 29.2233 153.972C25.0291 152.886 21.5801 150.268 19.3872 146.819C17.2156 143.412 16.2788 139.197 17.0665 134.917C17.322 133.555 17.7478 132.235 18.3014 131.021C19.6001 128.147 21.6866 125.762 24.2414 124.08C25.9233 122.973 27.7756 122.186 29.7556 121.738C30.6924 121.526 31.6434 121.398 32.6085 121.355C33.8434 121.291 35.0995 121.377 36.3769 121.611C40.5285 122.377 44.0202 124.634 46.4473 127.721C46.575 127.87 46.7028 128.04 46.8092 128.211C48.1718 130.084 49.1299 132.256 49.6195 134.555C49.7899 135.449 49.9176 136.344 49.9389 137.28C50.0028 138.473 49.9176 139.686 49.6834 140.921Z" fill="#679DC9"/>
</g>
<g id="&#60;Group&#62;_65" style="mix-blend-mode:multiply" opacity="0.5">
<path id="&#60;Path&#62;_51" d="M48.4911 142.539C48.4911 143.625 48.3421 144.69 48.0441 145.669C44.744 151.907 37.6756 155.569 30.373 154.228C29.9898 154.157 29.6066 154.072 29.2233 153.972C25.0291 152.886 21.5801 150.268 19.3872 146.819C17.2156 143.412 16.2788 139.197 17.0665 134.917C17.322 133.555 17.7478 132.235 18.3014 131.021V131.106C18.3014 137.685 22.0698 143.391 27.5627 146.201C27.1369 145.052 26.924 143.817 26.924 142.539C26.924 136.599 31.7569 131.766 37.6969 131.766C38.5627 131.766 39.3931 131.859 40.1879 132.043C44.6589 133.108 48.0653 136.94 48.4486 141.645C48.477 141.943 48.4911 142.241 48.4911 142.539Z" fill="#679DC9"/>
</g>
<g id="&#60;Group&#62;_66">
<path id="&#60;Path&#62;_52" d="M63.2241 131.106C62.7415 131.688 62.3157 132.312 61.9467 132.98C61.8047 133.221 61.677 133.462 61.5635 133.703C58.7744 133.554 56.2621 135.492 55.7299 138.302C55.6234 138.877 55.6234 139.473 55.6873 140.027C55.7299 140.339 55.7938 140.644 55.8789 140.942C56.3473 142.454 57.4331 143.731 58.8809 144.413C57.2841 145.328 55.4318 145.839 53.5157 145.818C52.9196 145.803 52.3305 145.747 51.7486 145.647C50.6415 145.434 49.5983 145.073 48.6615 144.562C48.6331 144.547 48.6118 144.533 48.5976 144.519C49.0873 143.391 49.4492 142.177 49.6834 140.921C49.9176 139.686 50.0028 138.472 49.9389 137.28C49.9176 136.343 49.7899 135.449 49.6195 134.555C49.1299 132.256 48.1718 130.084 46.8092 128.211C46.7028 128.04 46.575 127.87 46.4473 127.721C44.0202 124.634 40.5286 122.377 36.3769 121.611C35.0995 121.376 33.8434 121.291 32.6085 121.355C31.6434 121.398 30.6924 121.525 29.7556 121.738C30.1246 120.872 30.5717 120.063 31.0969 119.311C31.2388 119.127 31.3808 118.935 31.5227 118.736C34.0989 115.543 38.2292 113.754 42.5298 114.372C42.7215 114.393 42.8918 114.414 43.0834 114.436C48.0015 115.351 51.6634 119.141 52.6428 123.74C52.7421 124.109 52.806 124.492 52.8344 124.889C53.7286 124.818 54.6299 124.861 55.5383 125.017C56.2338 125.159 56.9079 125.358 57.5609 125.613C57.7596 125.684 57.9583 125.769 58.157 125.869H58.1783C60.4564 126.976 62.2447 128.849 63.2241 131.106Z" fill="#9FCAED"/>
</g>
<g id="&#60;Group&#62;_67">
<path id="&#60;Path&#62;_53" d="M78.2976 126.209C78.2834 126.238 78.2763 126.266 78.2763 126.294C78.1699 126.933 77.9996 127.551 77.7654 128.125C76.7647 127.636 75.6789 127.253 74.5292 127.04C70.1647 126.231 65.9066 127.934 63.224 131.106C62.2447 128.849 60.4563 126.976 58.1782 125.869H58.1569C57.9582 125.769 57.7595 125.684 57.5608 125.613C56.9079 125.358 56.2337 125.159 55.5382 125.017C54.6298 124.861 53.7285 124.818 52.8343 124.889C52.8059 124.492 52.7421 124.109 52.6427 123.74C51.6634 119.141 48.0014 115.351 43.0833 114.436C42.8917 114.414 42.7214 114.393 42.5298 114.372C42.5298 113.903 42.5582 113.442 42.6149 112.988C42.6433 112.733 42.6859 112.484 42.7427 112.243C43.8498 106.175 49.3427 102.002 55.3679 102.407C55.8221 102.435 56.2763 102.492 56.7305 102.577C58.1782 102.854 59.5195 103.365 60.7331 104.089C64.2034 106.154 66.4389 109.901 66.5879 114.01C67.6524 113.861 68.7383 113.882 69.8666 114.095C73.6776 114.798 76.637 117.48 77.8505 120.908C78.4467 122.547 78.617 124.378 78.2976 126.209Z" fill="#679DC9"/>
</g>
<g id="&#60;Group&#62;_68" style="mix-blend-mode:multiply" opacity="0.5">
<path id="&#60;Path&#62;_54" d="M78.2976 126.209C78.2834 126.238 78.2763 126.266 78.2763 126.294C78.1699 126.933 77.9996 127.551 77.7654 128.125C76.7647 127.636 75.6789 127.253 74.5292 127.04C70.1647 126.231 65.9066 127.934 63.224 131.106C62.2447 128.849 60.4563 126.976 58.1782 125.869H58.1569C57.9582 125.769 57.7595 125.684 57.5608 125.613C56.9079 125.358 56.2337 125.159 55.5382 125.017C54.6298 124.861 53.7285 124.818 52.8343 124.889C52.8059 124.492 52.7421 124.109 52.6427 123.74C51.6634 119.141 48.0014 115.351 43.0833 114.436C42.8917 114.414 42.7214 114.393 42.5298 114.372C42.5298 113.903 42.5582 113.442 42.6149 112.988C43.722 112.626 44.8717 112.434 46.0853 112.434C51.4292 112.434 55.8789 116.203 56.9221 121.227C59.2214 120.099 61.8189 119.46 64.5653 119.46C70.1434 119.46 75.1254 122.1 78.2976 126.209Z" fill="#679DC9"/>
</g>
<g id="&#60;Group&#62;_69">
<path id="&#60;Path&#62;_55" d="M81.8317 111.881C81.8459 112.619 81.782 113.371 81.6401 114.138C81.1504 116.863 79.7665 119.184 77.8504 120.908C77.2755 119.311 76.3388 117.864 75.1039 116.714C73.6775 115.415 71.8891 114.478 69.8665 114.095C68.7381 113.882 67.6523 113.861 66.5878 114.01C66.4387 109.901 64.2032 106.154 60.7329 104.089C63.4155 100.98 67.6523 99.3409 71.9955 100.129C76.9136 101.044 80.5968 104.834 81.5762 109.454C81.7465 110.249 81.8317 111.058 81.8317 111.881Z" fill="#85B5E0"/>
</g>
<g id="&#60;Group&#62;_70" style="mix-blend-mode:multiply" opacity="0.5">
<path id="&#60;Path&#62;_56" d="M81.8318 111.881C81.846 112.619 81.7821 113.371 81.6401 114.138C81.1505 116.863 79.7666 119.183 77.8505 120.908C77.2756 119.311 76.3388 117.863 75.104 116.714C77.9995 115.117 80.2989 112.541 81.5763 109.454C81.7466 110.249 81.8318 111.058 81.8318 111.881Z" fill="#9FCAED"/>
</g>
<g id="&#60;Group&#62;_71">
<path id="&#60;Path&#62;_57" d="M111.724 121.249C111.319 123.463 109.403 125.038 107.231 125.102C106.529 127.572 104.038 129.147 101.462 128.679C101.206 128.637 100.951 128.551 100.695 128.466C99.2261 129.552 96.2241 132.086 94.0951 136.216C93.3996 135.946 92.6686 135.74 91.9022 135.598C89.1557 135.087 86.4306 135.577 84.1312 136.812C83.5138 133.086 81.1506 129.85 77.7654 128.126C77.9996 127.551 78.1699 126.933 78.2763 126.295C78.617 124.421 78.4467 122.569 77.8505 120.908C79.7667 119.184 81.1505 116.863 81.6402 114.138C81.7822 113.371 81.846 112.619 81.8318 111.881C83.8544 112.988 88.5383 115.16 94.7764 115.479C95.7983 113.073 98.3958 111.625 101.078 112.115C103.207 112.52 104.868 114.053 105.485 115.99C106.252 115.713 107.104 115.628 107.955 115.777C109.531 116.075 110.765 117.118 111.383 118.481C111.766 119.311 111.894 120.269 111.724 121.249Z" fill="#9FCAED"/>
</g>
<g id="&#60;Group&#62;_72" style="mix-blend-mode:multiply" opacity="0.5">
<path id="&#60;Path&#62;_58" d="M111.723 121.249C111.319 123.463 109.403 125.038 107.231 125.102C106.529 127.572 104.038 129.147 101.461 128.679C101.206 128.636 100.951 128.551 100.695 128.466C99.226 129.552 96.224 132.085 94.095 136.216C93.3995 135.946 92.6685 135.74 91.9021 135.598C89.1556 135.087 86.4305 135.577 84.1311 136.812C88.666 130.148 97.6292 126.848 97.6292 126.848C103.016 127.7 103.782 123.484 103.782 123.484C105.421 123.207 106.294 122.015 106.294 122.015C106.294 122.015 97.1182 124.378 96.6711 122.398C96.224 120.397 106.443 116.714 111.383 118.481C111.766 119.311 111.894 120.269 111.723 121.249Z" fill="#9FCAED"/>
</g>
</g>
<g id="&#60;Group&#62;_73">
<g id="&#60;Group&#62;_74">
<path id="&#60;Path&#62;_59" d="M184.558 102.3C184.217 102.96 181.79 103.514 180.64 104.259C179.363 105.111 177.298 107.069 175.041 108.176C172.805 109.262 171.081 108.24 171.081 108.24L169.442 107.154C169.42 106.686 169.314 106.133 169.207 105.685C169.101 105.238 168.952 104.685 168.76 104.238L169.74 102.556C169.74 102.556 170.825 100.852 173.316 100.831C175.807 100.81 178.554 101.662 180.065 101.832C181.428 102.002 183.834 101.406 184.451 101.853C184.536 101.896 184.586 101.96 184.6 102.045C184.614 102.13 184.6 102.215 184.558 102.3Z" fill="#FFC010"/>
</g>
<g id="&#60;Group&#62;_75">
<path id="&#60;Path&#62;_60" d="M169.421 108.496C168.931 108.815 164.268 113.052 156.859 114.776C155.944 114.989 154.986 115.181 153.942 115.351C152.793 115.522 151.579 115.692 150.238 115.841C149.287 115.94 148.279 116.047 147.215 116.16C146.022 116.267 144.766 116.395 143.404 116.522C136.378 117.225 126.712 118.268 112.384 120.802C111.979 120.865 111.66 120.844 111.404 120.738C110.574 120.44 110.34 119.524 110.34 119.524C110.34 119.524 110.148 118.651 110.723 117.991C110.915 117.778 111.191 117.608 111.596 117.48C119.729 115.075 126.244 112.924 131.545 111.051C132.673 110.646 133.717 110.263 134.739 109.901C144.234 106.452 149.535 104.11 154.091 103.024C154.574 102.911 155.05 102.811 155.518 102.726C155.83 102.669 156.142 102.62 156.455 102.577C162.735 101.64 167.632 102.982 168.143 103.045C168.441 103.088 168.697 103.471 168.91 103.982C168.91 103.996 168.917 104.011 168.931 104.025C169.144 104.536 169.314 105.132 169.421 105.622C169.527 106.111 169.655 106.729 169.697 107.261C169.697 107.289 169.697 107.311 169.697 107.325C169.719 107.878 169.676 108.347 169.421 108.496Z" fill="#1256FB"/>
</g>
<g id="&#60;Group&#62;_76" style="mix-blend-mode:multiply" opacity="0.5">
<path id="&#60;Path&#62;_61" d="M155.092 104.749C153.815 105.345 135.909 111.114 134.228 111.54C133.525 111.711 132.503 111.434 131.545 111.051C132.673 110.646 133.717 110.263 134.738 109.901C144.234 106.452 149.535 104.11 154.091 103.024C154.574 102.911 155.05 102.811 155.518 102.726C155.731 103.216 156.05 104.302 155.092 104.749Z" fill="#306CF1"/>
</g>
<g id="&#60;Group&#62;_77" style="mix-blend-mode:multiply" opacity="0.5">
<path id="&#60;Path&#62;_62" d="M169.42 108.496C168.931 108.815 164.268 113.052 156.859 114.776C155.943 114.989 154.985 115.181 153.942 115.351C152.792 115.521 151.579 115.692 150.238 115.841C149.287 115.94 148.279 116.047 147.214 116.16C146.022 116.267 144.766 116.394 143.403 116.522C136.378 117.225 126.712 118.268 112.383 120.801C111.979 120.865 111.659 120.844 111.404 120.738C110.574 120.439 110.339 119.524 110.339 119.524C110.339 119.524 110.169 118.779 110.616 118.161C110.687 118.204 110.765 118.239 110.85 118.268C111.106 118.353 111.447 118.396 111.83 118.332C126.478 115.798 136.356 114.734 143.552 114.052C144.936 113.903 146.235 113.776 147.427 113.669C148.52 113.556 149.549 113.449 150.514 113.35C151.898 113.201 153.154 113.03 154.304 112.86C155.369 112.69 156.369 112.519 157.306 112.307C163.672 110.838 168.058 107.601 169.591 106.43C169.633 106.707 169.676 107.005 169.697 107.261C169.697 107.289 169.697 107.31 169.697 107.325C169.718 107.878 169.676 108.347 169.42 108.496Z" fill="#306CF1"/>
</g>
<g id="&#60;Group&#62;_78">
<path id="&#60;Path&#62;_63" d="M174.21 105.685C173.593 105.834 172.976 105.451 172.827 104.834C172.678 104.195 173.061 103.577 173.678 103.428C174.296 103.279 174.934 103.663 175.062 104.301C175.211 104.919 174.828 105.536 174.21 105.685Z" fill="#EB9400"/>
</g>
<g id="&#60;Group&#62;_79">
<g id="&#60;Group&#62;_80">
<path id="&#60;Path&#62;_64" d="M184.558 102.3L173.998 104.77L173.891 104.344L184.451 101.853C184.536 101.896 184.586 101.96 184.6 102.045C184.614 102.13 184.6 102.215 184.558 102.3Z" fill="#EB9400"/>
</g>
</g>
</g>
<g id="&#60;Group&#62;_81">
<g id="&#60;Group&#62;_82">
<path id="&#60;Path&#62;_65" d="M147.449 79.4554C147.194 79.6683 146.47 79.6683 145.661 79.5618C144.617 79.3915 143.425 79.0509 142.978 78.7741C142.552 78.4973 142.339 77.8799 142.212 77.3476C142.126 76.8793 142.105 76.5173 142.105 76.5173C142.105 76.5173 140.572 76.6664 140.253 75.4102C139.934 74.1328 140.806 72.7063 142.02 73.856C142.02 73.856 146.895 73.1321 146.895 69.6831C146.895 69.6831 147.449 70.1089 147.662 70.6199C147.811 71.0031 147.896 71.7057 147.96 72.5573C148.109 75.1547 147.875 79.0722 147.449 79.4554Z" fill="#FFC1A5"/>
</g>
<g id="&#60;Group&#62;_83">
<path id="&#60;Path&#62;_66" d="M154.751 101.023H152.154C152.154 101.023 145.405 93.8054 145.021 93.4648C144.617 93.0815 143.574 90.4415 143.574 90.4415L144.83 88.866L145.66 88.0144C145.66 88.0144 145.831 88.3551 146.086 88.8022C146.448 89.5047 146.959 90.4415 147.087 90.6331C147.278 90.9738 154.751 101.023 154.751 101.023Z" fill="#FFC1A5"/>
</g>
<path id="&#60;Path&#62;_67" d="M146.086 88.8022L145.021 93.4648C144.617 93.0815 143.574 90.4415 143.574 90.4415L144.83 88.866L145.66 88.0144C145.66 88.0144 145.831 88.3551 146.086 88.8022Z" fill="#F4867D"/>
<g id="&#60;Group&#62;_84">
<path id="&#60;Path&#62;_68" d="M156.668 103.769C156.625 104.323 154.943 111.242 153.666 116.501C152.857 119.78 152.197 122.398 152.197 122.398L149.812 121.951C149.812 121.951 150.6 110.454 150.685 109.454C150.791 108.453 151.92 105.728 151.92 105.728C151.92 105.728 136.761 110.412 135.399 110.156C134.036 109.901 132.503 107.644 132.46 107.154L136.442 102.471L137.059 101.768L141.296 100.32H142.616C142.616 100.32 155.199 100.916 155.603 101.151C156.008 101.363 156.71 102.854 156.668 103.769Z" fill="#FF3A00"/>
</g>
<g id="&#60;Group&#62;_85">
<path id="&#60;Path&#62;_69" d="M153.666 116.501C152.857 119.78 152.197 122.398 152.197 122.398L149.812 121.951C149.812 121.951 150.6 110.454 150.685 109.454C150.791 108.453 151.92 105.728 151.92 105.728C151.92 105.728 136.761 110.412 135.399 110.156C134.036 109.901 132.503 107.644 132.46 107.154L136.442 102.47C136.825 102.811 138.337 104.152 138.699 104.323C139.103 104.493 152.835 104.749 152.835 104.749L154.751 103.854C154.751 103.854 152.324 107.687 152.111 108.24C151.941 108.602 152.963 113.35 153.666 116.501Z" fill="#CC1300"/>
</g>
<g id="&#60;Group&#62;_86">
<path id="&#60;Path&#62;_70" d="M143.872 83.5221L146.171 88.0144C146.171 88.0144 145.128 89.3557 143.872 89.8666V83.5221Z" fill="#0081D1"/>
</g>
<g id="&#60;Group&#62;_87">
<path id="&#60;Path&#62;_71" d="M144.596 90.1647C144.511 90.5053 143.404 91.5273 142.424 91.7828C142.424 91.7828 141.381 94.7634 141.487 96.0408C141.551 97.0202 142.169 98.9576 142.467 99.8518C142.552 100.15 142.616 100.32 142.616 100.32C142.616 100.32 140.146 101.065 139.124 101.64C137.591 102.513 137.166 105.856 132.311 107.729C132.311 107.729 131.566 105.622 131.651 103.322C131.758 101.023 133.887 95.2105 133.653 91.6976C133.653 91.6124 133.631 91.5273 133.631 91.4421C133.525 89.3557 133.695 87.5247 134.078 85.9492C135.42 85.9279 136.995 85.8853 137.357 85.7576C137.868 85.566 139.252 84.4376 139.891 83.3518C139.955 83.2027 139.997 83.1176 139.997 83.1176C140.104 82.9047 140.167 82.6705 140.189 82.4789C140.231 81.2653 139.912 79.7537 138.847 79.5834C138.989 79.5834 139.124 79.5976 139.252 79.626C139.891 79.8814 140.444 80.3072 141.189 81.244C141.935 82.1808 143.063 82.8408 143.574 82.8621C143.645 82.9756 143.702 83.075 143.744 83.1602C143.787 83.2666 143.829 83.3944 143.872 83.5221C144.191 84.5015 144.255 86.0131 144.319 86.3537C144.362 86.6518 144.553 88.4402 144.596 89.4621C144.617 89.824 144.617 90.0795 144.596 90.1647Z" fill="#306CF1"/>
</g>
<g id="&#60;Group&#62;_88">
<path id="&#60;Path&#62;_72" d="M142.616 100.32C142.616 100.32 140.146 101.065 139.124 101.64C137.591 102.513 137.166 105.856 132.311 107.729C132.311 107.729 131.566 105.621 131.651 103.322C131.758 101.023 133.887 95.2104 133.653 91.6975C133.653 91.6123 133.631 91.5272 133.631 91.442C133.525 89.3556 133.695 87.5246 134.078 85.9491C135.42 85.9278 136.995 85.8852 137.357 85.7575C137.868 85.5659 139.252 84.4375 139.891 83.3517C139.55 83.9904 138.592 85.7149 137.847 86.3962C136.931 87.2478 134.355 89.2704 134.291 89.4407C134.227 89.6323 135.356 93.9756 135.356 94.5078C135.356 95.0401 140.529 100.639 142.467 99.8517C142.552 100.15 142.616 100.32 142.616 100.32Z" fill="#0081D1"/>
</g>
<g id="&#60;Group&#62;_89">
<path id="&#60;Path&#62;_73" d="M147.96 72.5577C147.896 71.7061 147.811 71.0035 147.662 70.6203C147.449 70.1093 146.895 69.6835 146.895 69.6835C146.895 73.1326 142.02 73.8564 142.02 73.8564C141.339 73.2177 140.764 73.388 140.444 73.8777C140.338 74.048 140.253 74.2822 140.21 74.5164C140.168 74.7932 140.189 75.1126 140.253 75.4106C140.572 76.6668 142.105 76.5177 142.105 76.5177C142.105 76.5177 142.126 76.8797 142.211 77.3481C142.084 78.0719 142.488 79.9242 139.955 79.9029C139.699 79.7752 139.444 79.69 139.252 79.6261C139.124 79.5977 138.99 79.5835 138.848 79.5835C137.911 79.4558 131.353 80.201 131.353 80.201C131.353 80.201 132.311 81.4145 132.503 82.2661C132.695 83.0965 132.056 85.9494 132.056 85.9494C132.056 85.9494 132.993 85.9707 134.079 85.9494C133.695 87.5249 133.525 89.3558 133.631 91.4423C131.694 96.2539 129.267 94.4229 129.267 94.4229C129.267 94.4229 129.842 96.7223 128.5 98.1062C127.159 99.5113 123.668 99.1707 123.668 99.1707C124.626 98.4894 125.051 96.5733 125.051 96.5733C123.327 98.2978 119.346 98.021 118.238 95.7642C117.153 93.5075 118.728 91.3145 118.728 91.3145C113.469 91.0803 114.47 86.4603 114.47 86.4603C115.641 88.2274 119.175 87.5887 120.623 82.8623C121.943 78.5616 126.393 78.0293 130.587 77.0926C132.482 76.6668 134.057 75.3255 135.292 73.7926C135.306 73.7926 135.313 73.7926 135.313 73.7926C136.825 71.9403 137.89 69.8113 138.507 68.8106C140.466 65.5958 147.3 66.5751 148.002 68.1506C148.705 69.7261 147.96 72.5577 147.96 72.5577Z" fill="#AC1B1A"/>
</g>
<g id="&#60;Group&#62;_90">
<path id="&#60;Path&#62;_74" d="M142.211 77.348C142.084 78.0719 142.488 79.9241 139.955 79.9028C139.699 79.7751 139.444 79.6899 139.252 79.626C139.124 79.5977 138.99 79.5835 138.848 79.5835C137.911 79.4557 131.353 80.2009 131.353 80.2009C131.353 80.2009 132.311 81.4144 132.503 82.2661C132.695 83.0964 132.056 85.9493 132.056 85.9493C132.056 85.9493 132.993 85.9706 134.079 85.9493C133.695 87.5248 133.525 89.3558 133.631 91.4422C131.694 96.2538 129.267 94.4229 129.267 94.4229C129.267 94.4229 129.842 96.7222 128.5 98.1061C127.159 99.5113 123.668 99.1706 123.668 99.1706C124.626 98.4893 125.051 96.5732 125.051 96.5732C123.327 98.2977 119.346 98.0209 118.238 95.7642C117.153 93.5074 118.728 91.3145 118.728 91.3145C113.469 91.0803 114.47 86.4603 114.47 86.4603C115.641 88.2274 119.175 87.5887 120.623 82.8622C121.943 78.5615 126.393 78.0293 130.587 77.0925C132.482 76.6667 134.057 75.3254 135.292 73.7925C135.186 73.9628 134.504 75.0912 133.482 76.2196C132.439 77.3693 133.12 77.348 133.674 77.348C134.228 77.348 136.91 77.4757 138.486 76.3473C139.55 75.6022 139.976 75.0486 140.21 74.5164C140.168 74.7931 140.189 75.1125 140.253 75.4106C140.572 76.6667 142.105 76.5176 142.105 76.5176C142.105 76.5176 142.126 76.8796 142.211 77.348Z" fill="#7C0E0E"/>
</g>
<g id="&#60;Group&#62;_91">
<path id="&#60;Path&#62;_75" d="M145.66 79.5622C144.617 79.4558 143.872 79.6474 143.766 79.7751C143.702 79.839 143.531 80.2222 143.318 80.648C143.02 81.2442 142.701 81.9255 142.701 81.9255C143.063 82.2661 143.382 82.6067 143.574 82.8622C143.063 82.8409 141.935 82.1809 141.189 81.2442C140.444 80.3074 139.891 79.8816 139.252 79.6261C139.444 79.69 139.699 79.7751 139.955 79.9029C141.7 79.9242 142.041 79.0513 142.147 78.2635C142.19 77.9016 142.169 77.5609 142.211 77.348C142.339 77.8803 142.552 78.4977 142.978 78.7745C143.425 79.0512 144.617 79.3919 145.66 79.5622Z" fill="#FFC1A5"/>
</g>
<path id="&#60;Path&#62;_76" d="M145.66 79.5622C144.617 79.4558 143.872 79.6474 143.766 79.7751C143.702 79.839 143.531 80.2222 143.318 80.648C142.68 79.9667 142.318 78.9235 142.147 78.2635C142.19 77.9016 142.169 77.5609 142.211 77.348C142.339 77.8803 142.552 78.4977 142.978 78.7745C143.425 79.0512 144.617 79.3919 145.66 79.5622Z" fill="#F4867D"/>
<g id="&#60;Group&#62;_92">
<path id="&#60;Path&#62;_77" d="M133.227 81.9252L132.992 84.5865C132.992 84.5865 128.692 84.7355 127.436 84.182C127.351 84.1394 127.28 84.0968 127.223 84.0542C126.371 83.3517 122.305 72.2594 122.305 72.2594L123.859 71.2374L129.352 80.5413L131.438 80.3071L131.651 80.2858L133.227 81.9252Z" fill="#FFC1A5"/>
</g>
<path id="&#60;Path&#62;_78" d="M133.227 81.9253L132.993 84.5865C132.993 84.5865 128.692 84.7356 127.436 84.182C129.757 84.3736 131.268 84.182 131.439 84.1182C131.63 84.0543 131.588 83.5859 131.652 82.862C131.694 82.1594 131.439 80.3285 131.439 80.3285V80.3072L131.652 80.2859L133.227 81.9253Z" fill="#F4867D"/>
<g id="&#60;Group&#62;_93">
<path id="&#60;Path&#62;_79" d="M140.189 82.4788C140.146 83.6924 137.996 85.5234 137.357 85.7575C136.995 85.8853 135.42 85.9279 134.079 85.9492C132.993 85.9704 132.056 85.9492 132.056 85.9492C132.056 85.9492 132.695 83.0962 132.503 82.2659C132.312 81.4143 131.354 80.2008 131.354 80.2008C131.354 80.2008 137.911 79.4556 138.848 79.5833C139.912 79.7537 140.232 81.2653 140.189 82.4788Z" fill="#306CF1"/>
</g>
<g id="&#60;Group&#62;_94">
<path id="&#60;Path&#62;_80" d="M152.409 128.7C151.749 128.743 150.685 127.444 150.642 127.338C150.515 127.082 149.195 123.889 149.152 123.463C149.088 123.016 149.812 121.951 149.812 121.951C151.175 126.444 152.537 126.316 152.537 126.316C152.551 126.415 152.558 126.486 152.558 126.529C152.601 126.827 153.133 127.785 153.176 128.062C153.24 128.36 153.091 128.679 152.409 128.7Z" fill="#BE347E"/>
</g>
<g id="&#60;Group&#62;_95">
<path id="&#60;Path&#62;_81" d="M152.537 126.316C152.537 126.316 151.175 126.444 149.812 121.951L152.197 122.398C152.197 122.398 152.431 125.443 152.537 126.316Z" fill="#FFC1A5"/>
</g>
<g id="&#60;Group&#62;_96">
<path id="&#60;Path&#62;_82" d="M124.306 70.3647C124.285 70.535 123.859 71.2376 123.859 71.2376L122.305 72.2595L121.219 71.4079C121.922 70.8969 123.348 69.7047 123.348 69.6195C123.348 69.5982 123.327 69.5769 123.327 69.5343C123.284 69.3427 123.178 69.0021 123.178 69.0021C123.178 69.0021 122.05 68.8317 121.943 68.8105C121.879 68.7892 121.709 68.555 121.666 68.4059C121.666 68.3421 121.666 68.3208 121.666 68.3208C121.688 68.2569 122.305 68.2782 122.922 68.2995C123.497 68.3208 124.051 68.3634 124.072 68.3847C124.157 68.4485 124.328 70.1943 124.306 70.3647Z" fill="#FFC1A5"/>
</g>
<g id="&#60;Group&#62;_97">
<path id="&#60;Path&#62;_83" d="M123.348 69.6193C123.348 69.6193 123.341 69.6264 123.327 69.6406C123.178 69.8535 121.879 70.9393 121.219 71.4077C121.191 71.436 121.162 71.4573 121.134 71.4715C120.964 71.5993 120.857 71.6631 120.836 71.6419C120.708 71.578 119.197 70.258 119.154 70.0451C119.111 69.8535 121.262 67.6393 121.262 67.6393C121.262 67.6393 121.219 67.0644 121.262 67.0218C121.304 66.9793 122.092 66.7876 122.177 66.7664C122.262 66.7664 122.731 67.8522 122.922 68.2993C122.305 68.278 121.688 68.2567 121.666 68.3206C121.624 68.4483 121.858 68.7889 121.943 68.8102C122.049 68.8315 123.178 69.0018 123.178 69.0018C123.178 69.0018 123.327 69.5128 123.348 69.6193Z" fill="#FFC1A5"/>
</g>
</g>
<path id="&#60;Path&#62;_84" d="M123.327 69.5343V69.5556C123.327 69.5556 123.178 69.1298 123.135 69.0872C123.071 69.0659 122.241 69.1085 121.943 68.9169C121.73 68.7891 121.687 68.5549 121.666 68.4059C121.709 68.5549 121.879 68.7891 121.943 68.8104C122.049 68.8317 123.178 69.002 123.178 69.002C123.178 69.002 123.284 69.3427 123.327 69.5343Z" fill="#F4867D"/>
<path id="&#60;Path&#62;_85" d="M123.327 69.641C123.22 69.79 122.709 70.5778 122.645 70.6629C122.56 70.7268 121.176 71.5145 121.176 71.5145L121.134 71.472C121.162 71.4578 121.191 71.4365 121.219 71.4081C121.879 70.9397 123.178 69.8539 123.327 69.641Z" fill="#F4867D"/>
<g id="&#60;Group&#62;_98" style="mix-blend-mode:multiply" opacity="0.5">
<path id="&#60;Path&#62;_86" d="M52.4722 134.151C52.4722 138.111 51.0458 141.751 48.6612 144.562C48.6328 144.547 48.6116 144.533 48.5974 144.519C49.087 143.391 49.449 142.177 49.6832 140.921C49.9174 139.686 50.0025 138.473 49.9387 137.28C49.9174 136.344 49.7896 135.449 49.6193 134.555C49.1296 132.256 48.1716 130.084 46.809 128.211C46.7025 128.04 46.5748 127.87 46.447 127.721C44.0199 124.634 40.5283 122.377 36.3767 121.611C35.0993 121.376 33.8431 121.291 32.6083 121.355C31.6431 121.398 30.6921 121.525 29.7554 121.738C30.1244 120.873 30.5715 120.064 31.0967 119.311C31.2386 119.127 31.3805 118.935 31.5225 118.736C33.0341 118.268 34.6522 118.013 36.3341 118.013C45.2335 118.013 52.4722 125.251 52.4722 134.151Z" fill="#9FCAED"/>
</g>
<path id="&#60;Path&#62;_87" d="M97.8422 22.9086C97.8422 23.2208 97.8209 23.526 97.7783 23.824C97.8209 23.4408 97.8422 23.0505 97.8422 22.6531C97.8564 22.7382 97.8564 22.8234 97.8422 22.9086Z" fill="#FFF46A"/>
</g>
</svg>
