<svg width="191" height="159" viewBox="0 0 191 159" fill="none" xmlns="http://www.w3.org/2000/svg">
<g id="6183566_3053928 1" clip-path="url(#clip0_94_3705)">
<g id="Background_Complete">
<path id="Vector" d="M13.2876 19.5802L13.4569 19.8872C13.6467 20.2316 13.9326 20.5151 14.2804 20.7034L14.5902 20.8712L14.2804 21.0389C13.933 21.2273 13.6472 21.5108 13.4569 21.8551L13.2876 22.1621L13.1182 21.8551C12.9279 21.5108 12.6425 21.2277 12.2951 21.0389L11.9854 20.8712L12.2951 20.7034C12.6425 20.5151 12.9284 20.232 13.1182 19.8872L13.2876 19.5802Z" fill="#EBEBEB"/>
<path id="Vector_2" d="M51.6002 33.6156L51.9212 34.1973C52.2817 34.8504 52.8232 35.3872 53.482 35.7441L54.0688 36.0625L53.482 36.3804C52.8232 36.7377 52.2817 37.2742 51.9212 37.9272L51.6002 38.5089L51.2792 37.9272C50.9187 37.2742 50.3772 36.7373 49.7184 36.3804L49.1316 36.0625L49.7184 35.7441C50.3772 35.3872 50.9187 34.8504 51.2792 34.1973L51.6002 33.6156Z" fill="#EBEBEB"/>
<path id="Vector_3" d="M176.558 86.8833L176.879 87.465C177.239 88.1181 177.781 88.6549 178.44 89.0118L179.027 89.3302L178.44 89.6481C177.781 90.0054 177.239 90.5419 176.879 91.1949L176.558 91.7766L176.237 91.1949C175.876 90.5419 175.335 90.005 174.676 89.6481L174.089 89.3302L174.676 89.0118C175.335 88.6549 175.876 88.1181 176.237 87.465L176.558 86.8833Z" fill="#EBEBEB"/>
<path id="Vector_4" d="M41.8476 8.55884L41.9918 8.82014C42.1535 9.11331 42.3966 9.35447 42.6925 9.51469L42.9562 9.65771L42.6925 9.80073C42.3966 9.96095 42.1535 10.2021 41.9918 10.4953L41.8476 10.7566L41.7034 10.4953C41.5416 10.2021 41.2985 9.96095 41.0026 9.80073L40.739 9.65771L41.0026 9.51469C41.2985 9.35447 41.5416 9.11331 41.7034 8.82014L41.8476 8.55884Z" fill="#EBEBEB"/>
<g id="Group">
<path id="Vector_5" d="M150.909 74.2248H171.425C171.425 74.2248 169.611 70.9211 164.33 71.4017C159.287 71.861 159.03 69.7765 156.465 69.5198C153.901 69.2636 151.764 71.231 150.909 74.2248Z" fill="#EBEBEB"/>
</g>
<g id="Group_2">
<path id="Vector_6" d="M125.508 25.4903H165.603C165.603 25.4903 162.058 19.0338 151.737 19.9733C141.88 20.8708 141.379 16.797 136.367 16.2954C131.355 15.7942 127.179 19.639 125.508 25.4903Z" fill="#EBEBEB"/>
</g>
<g id="Group_3">
<path id="Vector_7" d="M11.9854 38.9154H34.9845C34.9845 38.9154 32.9505 35.2115 27.0304 35.7509C21.3765 36.2659 21.089 33.9289 18.2143 33.6412C15.3391 33.3531 12.9435 35.5588 11.9854 38.9154Z" fill="#EBEBEB"/>
</g>
<g id="Group_4">
<g id="Group_5">
<path id="Vector_8" d="M171.632 53.8713C171.643 53.9099 171.098 54.0509 170.296 54.4506C169.497 54.8452 168.449 55.5427 167.573 56.5892C167.545 56.6223 167.517 56.655 167.491 56.6856L167.389 56.806L167.306 56.6747C166.591 55.5503 165.586 54.8197 164.814 54.4376C164.037 54.0471 163.498 53.9468 163.508 53.9057C163.511 53.8923 163.648 53.9036 163.889 53.9561C164.131 54.0081 164.477 54.1117 164.883 54.2929C165.693 54.6464 166.753 55.3821 167.499 56.5514L167.314 56.5405C167.34 56.5091 167.369 56.4751 167.398 56.4411C168.299 55.3636 169.395 54.6678 170.227 54.3034C170.645 54.1184 170.996 54.0035 171.242 53.9401C171.488 53.8776 171.628 53.8575 171.632 53.8713Z" fill="#222222"/>
</g>
<g id="Group_6">
<path id="Vector_9" d="M13.1271 50.1432C13.1359 50.173 12.7185 50.2808 12.1041 50.587C11.4922 50.8894 10.6887 51.4237 10.0181 52.2248C9.99675 52.2499 9.97537 52.2751 9.95567 52.2986L9.87772 52.3909L9.81359 52.2902C9.26539 51.4287 8.49672 50.8692 7.90493 50.5769C7.30936 50.2778 6.89653 50.2011 6.90491 50.1696C6.90701 50.1592 7.01137 50.1684 7.19662 50.2082C7.38187 50.2481 7.64633 50.3273 7.95774 50.4662C8.57803 50.7371 9.38986 51.3004 9.96154 52.1958L9.81946 52.1875C9.83958 52.1635 9.86179 52.1375 9.88359 52.1115C10.5739 51.2861 11.4134 50.7535 12.0508 50.4746C12.3706 50.3328 12.6397 50.2451 12.8283 50.1961C13.0178 50.1478 13.1246 50.1323 13.1271 50.1432Z" fill="#222222"/>
</g>
<g id="Group_7">
<path id="Vector_10" d="M31.8713 60.538C31.8826 60.577 31.3378 60.7175 30.5356 61.1176C29.7363 61.5123 28.6877 62.2098 27.8122 63.2563C27.7841 63.2894 27.7564 63.3221 27.7304 63.3527L27.6286 63.4731L27.5452 63.3418C26.8297 62.2174 25.8255 61.4867 25.0535 61.1046C24.2761 60.7142 23.7371 60.6139 23.748 60.5728C23.7509 60.5594 23.8871 60.5707 24.1289 60.6232C24.3708 60.6752 24.7161 60.7788 25.1227 60.9599C25.9324 61.3135 26.9928 62.0488 27.7388 63.2185L27.5536 63.2076C27.58 63.1761 27.6089 63.1422 27.6374 63.1082C28.5389 62.0307 29.6345 61.3349 30.4669 60.9708C30.8843 60.7859 31.2355 60.671 31.482 60.6072C31.728 60.5443 31.8675 60.5237 31.8713 60.538Z" fill="#222222"/>
</g>
<g id="Group_8">
<path id="Vector_11" d="M112.638 3.41044C112.649 3.44945 112.104 3.58995 111.302 3.98966C110.503 4.38475 109.454 5.08182 108.579 6.12827C108.551 6.1614 108.523 6.19412 108.497 6.22473L108.395 6.34511L108.312 6.21383C107.597 5.08937 106.592 4.35874 105.82 3.97708C105.043 3.5866 104.504 3.48636 104.514 3.44525C104.517 3.43183 104.653 3.44358 104.895 3.49558C105.137 3.54759 105.482 3.65119 105.889 3.83238C106.699 4.18595 107.759 4.9216 108.505 6.09094L108.32 6.08003C108.346 6.04858 108.375 6.01461 108.404 5.98063C109.305 4.90315 110.401 4.20734 111.233 3.84328C111.651 3.6579 112.002 3.5434 112.248 3.48007C112.494 3.41673 112.634 3.39618 112.638 3.41044Z" fill="#222222"/>
</g>
</g>
<path id="Vector_12" d="M162.777 40.0789L162.861 40.2324C162.955 40.4047 163.097 40.5461 163.269 40.6405L163.422 40.7243L163.269 40.8082C163.097 40.9026 162.955 41.0439 162.861 41.2163L162.777 41.3698L162.694 41.2163C162.599 41.0439 162.458 40.9026 162.286 40.8082L162.132 40.7243L162.286 40.6405C162.458 40.5461 162.599 40.4047 162.694 40.2324L162.777 40.0789Z" fill="#455A64"/>
<path id="Vector_13" d="M11.5593 82.7621L11.6432 82.9156C11.7375 83.088 11.8787 83.2293 12.051 83.3237L12.2044 83.4076L12.051 83.4915C11.8787 83.5858 11.7375 83.7272 11.6432 83.8995L11.5593 84.0531L11.4755 83.8995C11.3816 83.7272 11.24 83.5858 11.0677 83.4915L10.9143 83.4076L11.0677 83.3237C11.24 83.2293 11.3812 83.088 11.4755 82.9156L11.5593 82.7621Z" fill="#455A64"/>
<path id="Vector_14" d="M127.414 60.4038L127.703 60.9335C128.028 61.5283 128.517 62.0169 129.111 62.3424L129.641 62.6322L129.111 62.922C128.517 63.247 128.029 63.7361 127.703 64.3308L127.414 64.8605L127.124 64.3308C126.799 63.7361 126.311 63.2475 125.716 62.922L125.187 62.6322L125.716 62.3424C126.311 62.0173 126.799 61.5283 127.124 60.9335L127.414 60.4038Z" fill="#455A64"/>
<path id="Vector_15" d="M61.2214 8.57898L61.511 9.1087C61.8358 9.70344 62.3245 10.1921 62.9188 10.5175L63.4482 10.8073L62.9188 11.0972C62.3245 11.4222 61.8363 11.9113 61.511 12.506L61.2214 13.0357L60.9318 12.506C60.607 11.9113 60.1183 11.4226 59.524 11.0972L58.9946 10.8073L59.524 10.5175C60.1183 10.1925 60.6066 9.70344 60.9318 9.1087L61.2214 8.57898Z" fill="#455A64"/>
</g>
<g id="Sea">
<g id="Group_9">
<path id="Vector_16" d="M95.3648 144.334C95.3648 144.334 95.3049 144.38 95.1812 144.46C95.0492 144.544 94.8656 144.661 94.6288 144.812C94.12 145.077 93.3623 145.477 92.3027 145.766C91.2491 146.064 89.9083 146.248 88.3538 146.226C86.7989 146.213 85.0344 145.975 83.132 145.532C81.2259 145.092 79.1919 144.429 76.9814 143.83C74.7765 143.242 72.3661 142.677 69.7965 142.739C68.5152 142.766 67.213 142.98 65.9209 143.345C64.6271 143.706 63.3429 144.202 62.0436 144.728C60.7444 145.254 59.4258 145.811 58.0457 146.272C56.6676 146.73 55.2212 147.101 53.7212 147.196C52.2208 147.289 50.7375 147.117 49.3125 146.83C47.8854 146.542 46.5094 146.141 45.1624 145.75C42.4779 144.96 39.8488 144.219 37.2733 144.224C34.7033 144.218 32.2921 144.748 30.0854 145.338C27.875 145.937 25.8448 146.606 23.9659 147.136C22.0891 147.672 20.3615 148.067 18.82 148.268C17.278 148.461 15.931 148.465 14.8438 148.345C13.7541 148.229 12.933 147.996 12.3819 147.835C12.1178 147.739 11.9133 147.666 11.7662 147.613C11.6283 147.562 11.5596 147.53 11.5596 147.53C11.5596 147.53 11.6333 147.548 11.7737 147.592C11.9221 147.64 12.1283 147.707 12.3945 147.792C12.9477 147.939 13.7679 148.157 14.8517 148.26C15.9339 148.366 17.2717 148.349 18.8032 148.145C20.3347 147.935 22.0522 147.531 23.9223 146.986C25.7945 146.447 27.8218 145.77 30.0368 145.161C32.2481 144.562 34.6731 144.02 37.2737 144.021C39.884 144.01 42.5379 144.756 45.2219 145.542C47.9034 146.315 50.7392 147.154 53.7061 146.976C55.1802 146.882 56.6081 146.517 57.9757 146.063C59.3454 145.606 60.6605 145.053 61.9623 144.527C63.2637 144.002 64.5563 143.504 65.8639 143.141C67.169 142.775 68.4939 142.56 69.7919 142.536C72.3959 142.479 74.8205 143.057 77.0296 143.653C79.2434 144.262 81.274 144.932 83.168 145.379C85.0599 145.831 86.8123 146.077 88.3563 146.102C89.8999 146.135 91.2315 145.965 92.2805 145.682C93.3354 145.408 94.0945 145.023 94.6079 144.772C94.8489 144.63 95.0354 144.52 95.1699 144.441C95.2965 144.367 95.3648 144.334 95.3648 144.334Z" fill="#455A64"/>
</g>
<g id="Group_10">
<path id="Vector_17" d="M161.167 150.516C161.165 150.519 161.128 150.506 161.057 150.478C160.974 150.443 160.87 150.4 160.743 150.347C160.468 150.232 160.053 150.082 159.509 149.929C158.417 149.635 156.771 149.428 154.751 149.603C152.727 149.742 150.374 150.322 147.719 150.771C146.392 150.988 144.975 151.15 143.502 151.093C142.025 151.042 140.525 150.697 139.039 150.254C137.548 149.815 136.118 149.317 134.699 148.996C133.286 148.666 131.872 148.524 130.556 148.711C129.237 148.895 128.037 149.345 126.947 149.817C125.855 150.293 124.861 150.795 123.935 151.218C122.097 152.094 120.477 152.547 119.333 152.612C118.762 152.63 118.318 152.622 118.022 152.563C117.884 152.543 117.774 152.527 117.684 152.514C117.609 152.501 117.57 152.493 117.571 152.489C117.572 152.486 117.612 152.486 117.688 152.491C117.778 152.498 117.889 152.507 118.027 152.517C118.323 152.56 118.763 152.553 119.327 152.522C120.455 152.43 122.044 151.962 123.867 151.071C124.785 150.64 125.775 150.129 126.871 149.642C127.965 149.161 129.179 148.697 130.528 148.502C131.875 148.304 133.32 148.446 134.749 148.777C136.185 149.099 137.62 149.598 139.104 150.034C140.585 150.475 142.06 150.815 143.512 150.868C144.962 150.927 146.365 150.773 147.687 150.562C150.329 150.127 152.698 149.561 154.74 149.441C156.777 149.285 158.44 149.52 159.533 149.842C160.627 150.176 161.167 150.516 161.167 150.516Z" fill="#222222"/>
</g>
<g id="Group_11">
<path id="Vector_18" d="M185.728 113.642C185.728 113.703 143.201 113.751 90.7529 113.751C38.2869 113.751 -4.23145 113.702 -4.23145 113.642C-4.23145 113.582 38.2869 113.533 90.7529 113.533C143.201 113.533 185.728 113.582 185.728 113.642Z" fill="#222222"/>
</g>
</g>
<g id="Lighthouse">
<path id="Vector_19" d="M85.2383 24.1039L-2.51465 113.487L52.0449 113.468L85.2383 35.2897V24.1039Z" fill="#E8505B"/>
<path id="Vector_20" opacity="0.9" d="M85.2383 24.1039L-2.51465 113.487L52.0449 113.468L85.2383 35.2897V24.1039Z" fill="white"/>
<path id="Vector_21" d="M63.7451 129.021C71.9276 129.407 80.2701 129.818 87.8868 132.117C90.8533 133.013 93.8173 134.209 97.0089 134.129C101.799 134.01 105.926 131.032 110.717 131.136C114.965 131.228 118.541 133.723 122.757 134.129C127.733 134.608 132.324 132.125 137.269 131.484C144.246 130.578 151.716 133.777 158.345 131.736C160.987 130.922 158.09 129.561 155.725 129.502C155.725 129.502 146.975 129.384 144.61 127.668C142.245 125.952 140.401 125.751 139.047 125.348C137.693 124.946 135.446 125.834 135.446 125.834L108.191 126.188L87.7342 124.555L69.4745 125.597L63.7451 129.021Z" fill="#EBEBEB"/>
<g id="Group_12">
<g id="Group_13">
<g id="Group_14">
<path id="Vector_22" d="M82.2814 47.6127L80.1858 115.226L106.286 114.912L104 47.6131L82.2814 47.6127Z" fill="#FC727E"/>
<path id="Vector_23" d="M105.785 44.6654H80.1858V47.6127H105.785V44.6654Z" fill="#455A64"/>
<path id="Vector_24" d="M85.2383 44.6655V23.9102L92.2166 20.8711H93.8964L101.004 24.104V44.6655H85.2383Z" fill="#FC727E"/>
<path id="Vector_25" d="M101.003 24.1039H85.2383V35.2897H101.003V24.1039Z" fill="#EBEBEB"/>
<path id="Vector_26" d="M92.2168 20.871V18.6083H93.7671V20.871H92.475" fill="#FC727E"/>
<path id="Vector_27" opacity="0.4" d="M104.576 64.5538H81.7542L81.2751 79.9402H105.098L104.576 64.5538Z" fill="white"/>
<g id="Group_15">
<g id="Group_16">
<path id="Vector_28" d="M102.986 44.6654C102.979 44.6654 102.971 44.5803 102.964 44.4172C102.959 44.2305 102.952 43.994 102.944 43.7016C102.935 43.0494 102.923 42.1506 102.909 41.0413L102.986 41.1189C100.531 41.1415 96.9638 41.1558 93.0015 41.1558C89.0375 41.1558 85.4699 41.1415 83.0151 41.1189L83.0927 41.0413C83.078 42.1506 83.0663 43.049 83.0575 43.7016C83.0491 43.994 83.0424 44.2305 83.0369 44.4172C83.0298 44.5803 83.0227 44.665 83.0151 44.665C83.0076 44.665 83.0005 44.5799 82.9933 44.4172C82.9879 44.2305 82.9812 43.994 82.9728 43.7016C82.9644 43.0494 82.9523 42.1506 82.9376 41.0413L82.9368 40.9645L83.0156 40.9637C85.4703 40.941 89.0379 40.9268 93.0019 40.9268C96.9647 40.9268 100.532 40.941 102.987 40.9637L103.065 40.9645L103.065 41.0413C103.05 42.1502 103.038 43.049 103.029 43.7016C103.021 43.994 103.014 44.2305 103.009 44.4172C103.001 44.5803 102.994 44.6654 102.986 44.6654Z" fill="#222222"/>
</g>
<g id="Group_17">
<path id="Vector_29" d="M97.297 44.6654C97.2338 44.6654 97.1826 43.8542 97.1826 42.8535C97.1826 41.8528 97.2338 41.0416 97.297 41.0416C97.3603 41.0416 97.4115 41.8528 97.4115 42.8535C97.4115 43.8538 97.3603 44.6654 97.297 44.6654Z" fill="#222222"/>
</g>
<g id="Group_18">
<path id="Vector_30" d="M89.9218 44.6654C89.8585 44.6654 89.8074 43.8542 89.8074 42.8535C89.8074 41.8528 89.8585 41.0416 89.9218 41.0416C89.9851 41.0416 90.0362 41.8528 90.0362 42.8535C90.0362 43.8538 89.9851 44.6654 89.9218 44.6654Z" fill="#222222"/>
</g>
</g>
<g id="Group_19">
<path id="Vector_31" d="M89.7831 35.2897C89.7198 35.2897 89.6687 32.7854 89.6687 29.6972C89.6687 26.6078 89.7198 24.1039 89.7831 24.1039C89.8464 24.1039 89.8975 26.6074 89.8975 29.6972C89.8975 32.7858 89.8464 35.2897 89.7831 35.2897Z" fill="#222222"/>
</g>
<g id="Group_20">
<path id="Vector_32" d="M95.9777 35.2897C95.9144 35.2897 95.8633 32.7854 95.8633 29.6972C95.8633 26.6078 95.9144 24.1039 95.9777 24.1039C96.041 24.1039 96.0921 26.6074 96.0921 29.6972C96.0921 32.7858 96.041 35.2897 95.9777 35.2897Z" fill="#222222"/>
</g>
<g id="Group_21">
<path id="Vector_33" d="M101.004 29.7241C101.004 29.7401 100.783 29.7568 100.385 29.774C99.9421 29.787 99.3746 29.8042 98.6952 29.824C97.2686 29.8554 95.2979 29.8827 93.1214 29.8923C90.9441 29.902 88.9725 29.8919 87.5454 29.863C86.1217 29.8386 85.229 29.7749 85.2386 29.7241C86.3983 29.7153 89.1263 29.6939 93.1205 29.6633C95.2748 29.6629 97.2237 29.6625 98.6944 29.6625C99.3742 29.6717 99.9413 29.6793 100.384 29.6851C100.782 29.6952 101.003 29.7082 101.004 29.7241Z" fill="#222222"/>
</g>
<path id="Vector_34" opacity="0.4" d="M80.7734 96.0458H105.645L106.17 111.504L80.2952 111.397L80.7734 96.0458Z" fill="white"/>
<g id="Group_22">
<path id="Vector_35" d="M81.9888 58.9373C81.9888 58.9088 82.506 58.8832 83.3631 58.8631C84.2202 58.8429 85.4172 58.8291 86.7772 58.8245L86.6645 58.9373C86.664 58.6269 86.6632 58.3036 86.6628 57.9739C86.6632 57.6438 86.664 57.3205 86.6645 57.0101L86.7772 57.1229C85.4167 57.1183 84.2197 57.104 83.3626 57.0843C82.5055 57.0642 81.9888 57.0382 81.9888 57.0101C81.9888 56.982 82.5055 56.9556 83.3626 56.9359C84.2197 56.9157 85.4167 56.9019 86.7772 56.8973L86.8899 56.8969V57.0101C86.8904 57.3209 86.8912 57.6442 86.8916 57.9739C86.8912 58.3036 86.8904 58.6269 86.8899 58.9373V59.0506L86.7772 59.0501C85.4172 59.0455 84.2197 59.0317 83.3631 59.0116C82.506 58.9918 81.9888 58.9658 81.9888 58.9373Z" fill="#222222"/>
</g>
<g id="Group_23">
<path id="Vector_36" d="M94.8478 38.1301C94.8369 38.141 94.826 37.9686 94.811 37.6385C94.7967 37.3089 94.7778 36.8181 94.7674 36.2029L94.7661 36.124L94.8478 36.1227C96.062 36.1018 97.759 36.0884 99.6358 36.0884C99.5336 35.986 99.7758 36.228 99.7507 36.2033V36.2045V36.2066V36.2104V36.2184V36.2343V36.2658V36.3287V36.4545V36.7041C99.7503 36.8693 99.7503 37.0329 99.7498 37.1939C99.7486 37.5156 99.7473 37.8289 99.7461 38.1301L99.7457 38.2404L99.6363 38.24C98.2247 38.2333 97.0105 38.2098 96.1639 38.1884C95.7783 38.1762 95.4522 38.1662 95.181 38.1578C94.956 38.1481 94.839 38.1393 94.8478 38.1301C94.8571 38.1209 94.9916 38.112 95.2305 38.1024C95.5088 38.094 95.8432 38.0839 96.2385 38.0718C97.0918 38.0504 98.272 38.0269 99.6367 38.0202L99.5269 38.1301C99.5256 37.8285 99.5244 37.5156 99.5231 37.1939C99.5227 37.0325 99.5227 36.8693 99.5223 36.7041V36.4545V36.3287V36.2658V36.2343V36.2184V36.2104V36.2066V36.2045V36.2037C99.4975 36.1785 99.739 36.4201 99.6363 36.3178C97.7595 36.3178 96.0625 36.3048 94.8483 36.2834L94.9283 36.2033C94.9183 36.7817 94.8994 37.2548 94.8851 37.5903C94.8701 37.925 94.8587 38.1192 94.8478 38.1301Z" fill="#222222"/>
</g>
<g id="Group_24">
<path id="Vector_37" d="M92.0383 40.0951C92.0274 40.106 92.0165 39.9336 92.0014 39.6035C91.9871 39.2739 91.9683 38.7831 91.9578 38.1679L91.9565 38.089L92.0383 38.0877C93.2525 38.0664 94.9495 38.0534 96.8263 38.0534C96.724 37.951 96.9663 38.1926 96.9411 38.1683V38.1687V38.1695V38.1716V38.1754V38.1834V38.1993V38.2308V38.2937V38.4195L96.9407 38.6691C96.9403 38.8343 96.9399 38.9979 96.9399 39.1589C96.9386 39.4806 96.9374 39.7939 96.9361 40.0951L96.9357 40.2054L96.8263 40.205C95.4147 40.1983 94.2005 40.1748 93.3535 40.1534C92.9679 40.1412 92.6418 40.1311 92.3706 40.1228C92.146 40.1131 92.0291 40.1039 92.0383 40.0951C92.0475 40.0858 92.182 40.077 92.4209 40.0674C92.6992 40.059 93.0337 40.0489 93.4289 40.0368C94.2822 40.0154 95.4625 39.9919 96.8271 39.9852L96.7173 40.0951C96.7161 39.7939 96.7148 39.4806 96.7135 39.1589C96.7131 38.9975 96.7127 38.8343 96.7127 38.6691V38.4195V38.2937V38.2308V38.1993V38.1834V38.1754V38.1716V38.1695V38.1687V38.1683C96.688 38.1431 96.9294 38.3851 96.8267 38.2828C94.9499 38.2828 93.2529 38.2698 92.0387 38.2484L92.1187 38.1683C92.1083 38.7471 92.0898 39.2198 92.0752 39.5553C92.0601 39.8896 92.0492 40.0838 92.0383 40.0951Z" fill="#222222"/>
</g>
<g id="Group_25">
<path id="Vector_38" d="M80.8769 91.6888C80.8769 91.6603 81.3941 91.6343 82.2508 91.6145C83.1079 91.5944 84.3049 91.5806 85.6649 91.576L85.5522 91.6888C85.5517 91.3784 85.5513 91.0555 85.5505 90.7254C85.5509 90.3953 85.5517 90.0719 85.5522 89.7616L85.6649 89.8744C84.3044 89.8698 83.1074 89.8559 82.2503 89.8358C81.3932 89.8157 80.8765 89.7897 80.8765 89.7616C80.8765 89.733 81.3932 89.7075 82.2503 89.6873C83.1074 89.6672 84.3044 89.6533 85.6649 89.6487L85.7776 89.6483V89.7616C85.7781 90.0723 85.7789 90.3953 85.7793 90.7254C85.7789 91.055 85.7781 91.3784 85.7776 91.6888V91.8024L85.6649 91.802C84.3049 91.7974 83.1079 91.7836 82.2508 91.7634C81.3937 91.7433 80.8769 91.7173 80.8769 91.6888Z" fill="#222222"/>
</g>
<g id="Group_26">
<path id="Vector_39" d="M89.9218 61.0521C89.9113 61.0416 89.9009 60.8327 89.8866 60.4666C89.8728 60.1 89.8543 59.5799 89.8443 58.9378L89.9218 59.0154C88.4893 59.038 86.4071 59.0523 84.094 59.0523C83.9913 59.1546 84.2331 58.9126 84.208 58.9378V58.9395V58.9416V58.9458V58.9546V58.9718V59.0062V59.0749V59.2121L84.2076 59.4851C84.2071 59.6659 84.2071 59.845 84.2067 60.022C84.2055 60.3751 84.2046 60.7195 84.2038 61.0517L84.0936 60.9413C85.7537 60.9476 87.1934 60.9711 88.2328 60.9929C88.7236 61.0055 89.1326 61.0156 89.4595 61.024C89.7496 61.0336 89.9126 61.0428 89.9218 61.0521C89.931 61.0613 89.786 61.0705 89.5098 61.0802C89.1896 61.0886 88.7894 61.0986 88.3082 61.1112C87.2751 61.133 85.8006 61.1565 84.0936 61.1628L83.9833 61.1632L83.9829 61.0525C83.9821 60.7203 83.9808 60.376 83.98 60.0228C83.9796 59.8458 83.9796 59.6667 83.9791 59.486V59.2129V59.0758V59.007V58.9726V58.9554V58.9466V58.9424V58.9403V58.939C83.954 58.9638 84.1962 58.7214 84.094 58.8237C86.4067 58.8237 88.4893 58.838 89.9218 58.8606L90.0006 58.8619L89.9994 58.9382C89.9893 59.616 89.9709 60.1533 89.957 60.514C89.9428 60.8742 89.9323 61.0626 89.9218 61.0521Z" fill="#222222"/>
</g>
<g id="Group_27">
<path id="Vector_40" d="M95.9057 85.6626C95.8952 85.6521 95.8847 85.4432 95.8705 85.0771C95.8567 84.7105 95.8386 84.1904 95.8282 83.5483L95.9057 83.6259C94.4732 83.6486 92.391 83.6628 90.0779 83.6628C89.9752 83.7652 90.2166 83.5231 90.1919 83.5483V83.5487V83.55V83.5521V83.5563V83.5651V83.5823V83.6167V83.6855V83.823V84.0961C90.1914 84.2768 90.1914 84.4564 90.191 84.6329C90.1902 84.9861 90.1889 85.3304 90.1881 85.6626L90.0779 85.5523C91.738 85.5586 93.1777 85.5825 94.2171 85.6039C94.7083 85.616 95.1169 85.6265 95.4438 85.6349C95.7334 85.6441 95.8965 85.653 95.9057 85.6626C95.9149 85.6718 95.7703 85.6811 95.4937 85.6907C95.1735 85.6991 94.7732 85.7092 94.2921 85.7217C93.259 85.7431 91.7845 85.767 90.0774 85.7733L89.9672 85.7737L89.9668 85.663C89.966 85.3308 89.9647 84.9865 89.9639 84.6333C89.9634 84.4564 89.9634 84.2773 89.963 84.0965V83.8235V83.6859V83.6171V83.5827V83.5655V83.5567V83.5525V83.5504V83.5492C89.9379 83.5739 90.1801 83.3315 90.0779 83.4338C92.391 83.4338 94.4727 83.4481 95.9057 83.4707L95.9845 83.472L95.9832 83.5483C95.9732 84.2261 95.9547 84.7634 95.9409 85.1241C95.9267 85.4848 95.9162 85.6731 95.9057 85.6626Z" fill="#222222"/>
</g>
<g id="Group_28">
<path id="Vector_41" d="M88.3083 93.8035C88.2978 93.793 88.2873 93.5842 88.2731 93.218C88.2593 92.8515 88.2412 92.3314 88.2308 91.6892L88.3083 91.7668C86.8757 91.7895 84.7936 91.8037 82.4805 91.8037C82.3778 91.9061 82.6192 91.6641 82.5945 91.6892V91.6897V91.6909V91.693V91.6972V91.706V91.7232V91.7576V91.8264V91.964L82.594 92.2366C82.5936 92.4174 82.5936 92.5965 82.5932 92.7734C82.5924 93.1266 82.5911 93.4709 82.5903 93.8031L82.48 93.6928C84.1402 93.6991 85.5798 93.7226 86.6192 93.7444C87.1105 93.7566 87.5191 93.767 87.846 93.7754C88.136 93.7851 88.2991 93.7943 88.3083 93.8035C88.3175 93.8128 88.1725 93.822 87.8963 93.8316C87.5761 93.84 87.1758 93.8501 86.6947 93.8627C85.6616 93.8845 84.1871 93.908 82.48 93.9143L82.3698 93.9147L82.3694 93.804C82.3685 93.4718 82.3673 93.1274 82.3665 92.7743C82.366 92.5973 82.366 92.4182 82.3656 92.2374V91.9648V91.8272V91.7584V91.7241V91.7069V91.6981V91.6939V91.6918V91.6905V91.6901C82.3405 91.7148 82.5827 91.4728 82.4805 91.5752C84.7936 91.5752 86.8753 91.5894 88.3083 91.6121L88.3871 91.6133L88.3858 91.6897C88.3758 92.3674 88.3573 92.9047 88.3435 93.2654C88.3292 93.6257 88.3188 93.814 88.3083 93.8035Z" fill="#222222"/>
</g>
<g id="Group_29">
<path id="Vector_42" d="M102.371 104.729C102.361 104.719 102.35 104.51 102.336 104.144C102.322 103.777 102.304 103.257 102.294 102.615L102.371 102.693C100.939 102.715 98.8565 102.73 96.5434 102.73C96.4407 102.832 96.6825 102.59 96.6574 102.615V102.616V102.617V102.619V102.623V102.632V102.649V102.683V102.752V102.889L96.657 103.162C96.6565 103.343 96.6565 103.522 96.6561 103.699C96.6549 104.052 96.654 104.397 96.6532 104.729L96.543 104.619C98.2031 104.625 99.6427 104.649 100.682 104.67C101.173 104.683 101.582 104.693 101.909 104.701C102.199 104.711 102.362 104.72 102.371 104.729C102.38 104.739 102.236 104.748 101.959 104.757C101.639 104.766 101.238 104.776 100.758 104.788C99.7245 104.81 98.25 104.833 96.543 104.84L96.4327 104.84L96.4323 104.729C96.4315 104.397 96.4302 104.053 96.429 103.7C96.429 103.523 96.4285 103.344 96.4281 103.163V102.89V102.753V102.684V102.649V102.632V102.623V102.619V102.617V102.616C96.403 102.641 96.6452 102.398 96.543 102.501C98.8557 102.501 100.938 102.515 102.371 102.538L102.45 102.539L102.448 102.615C102.438 103.293 102.42 103.83 102.406 104.191C102.392 104.552 102.382 104.74 102.371 104.729Z" fill="#222222"/>
</g>
<g id="Group_30">
<path id="Vector_43" d="M106.044 106.942C106.034 106.931 106.023 106.722 106.009 106.356C105.995 105.99 105.977 105.47 105.967 104.828L106.044 104.905C104.612 104.928 102.529 104.942 100.216 104.942C100.114 105.044 100.355 104.802 100.33 104.828V104.828V104.829V104.831V104.836V104.844V104.862V104.896V104.965V105.102V105.375C100.33 105.556 100.33 105.735 100.329 105.912C100.328 106.265 100.327 106.61 100.326 106.942L100.216 106.832C101.876 106.838 103.316 106.861 104.355 106.883C104.847 106.896 105.255 106.906 105.582 106.914C105.872 106.923 106.035 106.933 106.044 106.942C106.053 106.951 105.909 106.96 105.632 106.97C105.312 106.978 104.912 106.988 104.43 107.001C103.397 107.023 101.923 107.046 100.216 107.053L100.106 107.053L100.105 106.942C100.104 106.61 100.103 106.265 100.102 105.912C100.102 105.735 100.102 105.556 100.101 105.375L100.101 105.102V104.965V104.896V104.862V104.844V104.836V104.831V104.829V104.828V104.828C100.076 104.852 100.318 104.61 100.216 104.713C102.529 104.713 104.611 104.727 106.044 104.75L106.122 104.751L106.121 104.827C106.111 105.505 106.093 106.042 106.079 106.403C106.065 106.764 106.055 106.952 106.044 106.942Z" fill="#222222"/>
</g>
<g id="Group_31">
<path id="Vector_44" d="M101.649 71.1441C101.639 71.1336 101.628 70.9248 101.614 70.5586C101.6 70.192 101.582 69.672 101.572 69.0298L101.649 69.1074C100.217 69.1301 98.1344 69.1443 95.8213 69.1443C95.7186 69.2467 95.9604 69.0047 95.9353 69.0298V69.0303V69.0315V69.0336V69.0378V69.0466V69.0638V69.0982V69.167V69.3041V69.5772C95.9349 69.7579 95.9349 69.937 95.9344 70.114C95.9332 70.4672 95.9323 70.8115 95.9315 71.1437L95.8213 71.0334C97.4814 71.0397 98.9211 71.0632 99.9605 71.085C100.452 71.0976 100.86 71.1076 101.187 71.116C101.477 71.1257 101.64 71.1345 101.649 71.1441C101.658 71.1533 101.513 71.1626 101.237 71.1722C100.917 71.1806 100.516 71.1907 100.036 71.2033C99.0024 71.2251 97.5279 71.2485 95.8209 71.2548L95.7111 71.2553L95.7106 71.1445C95.7098 70.8124 95.7085 70.468 95.7077 70.1149C95.7073 69.9379 95.7073 69.7588 95.7069 69.578L95.7064 69.305V69.1678V69.099V69.0646V69.0474V69.0386V69.0344V69.0323V69.0311V69.0307C95.6813 69.0554 95.9235 68.8134 95.8213 68.9157C98.1344 68.9157 100.217 68.93 101.649 68.9527L101.728 68.9539L101.727 69.0303C101.717 69.708 101.698 70.2453 101.684 70.606C101.67 70.9663 101.66 71.1546 101.649 71.1441Z" fill="#222222"/>
</g>
<path id="Vector_45" opacity="0.4" d="M82.2815 47.6127L97.2972 51.0037L98.415 114.911H106.286L104 47.6127H82.2815Z" fill="black"/>
</g>
<g id="Group_32">
<g id="Group_33">
<path id="Vector_46" d="M71.6404 123.819C71.6404 123.882 66.6202 123.934 60.429 123.934C54.2357 123.934 49.2163 123.882 49.2163 123.819C49.2163 123.756 54.2357 123.705 60.429 123.705C66.6202 123.705 71.6404 123.756 71.6404 123.819Z" fill="#222222"/>
</g>
<g id="Group_34">
<path id="Vector_47" d="M118.039 114.864C118.042 114.88 117.786 114.934 117.323 115.018C116.819 115.103 116.157 115.216 115.356 115.352C113.694 115.624 111.396 115.984 108.855 116.368C108.52 116.418 108.189 116.468 107.865 116.517L107.932 116.481C106.952 117.53 106.04 118.505 105.245 119.356L105.222 119.381L105.189 119.385C103.915 119.566 102.844 119.718 102.047 119.831C101.694 119.875 101.403 119.911 101.167 119.941C100.964 119.963 100.855 119.97 100.854 119.96C100.852 119.95 100.958 119.923 101.158 119.883C101.391 119.839 101.68 119.785 102.03 119.72C102.823 119.587 103.89 119.407 105.159 119.194L105.103 119.224C105.89 118.366 106.794 117.383 107.764 116.326L107.791 116.297L107.831 116.291C108.155 116.242 108.486 116.192 108.821 116.141C111.362 115.757 113.664 115.422 115.332 115.191C116.137 115.084 116.804 114.996 117.309 114.929C117.777 114.873 118.037 114.848 118.039 114.864Z" fill="#222222"/>
</g>
<g id="Group_35">
<path id="Vector_48" d="M58.1164 118.59C58.7082 118.285 59.4048 118.245 60.0616 118.354C60.4145 118.412 60.7825 118.518 61.0226 118.783C61.2628 119.049 61.308 119.515 61.0327 119.743C60.8684 119.879 60.6395 119.899 60.4266 119.897C59.9124 119.891 59.342 119.801 58.9312 120.11C58.6969 120.287 58.5406 120.58 58.2606 120.667C57.9865 120.752 57.6772 120.59 57.5318 120.343C57.3863 120.095 57.3817 119.786 57.4492 119.506C57.4492 119.506 57.5205 118.898 58.1164 118.59Z" fill="#FC727E"/>
<path id="Vector_49" d="M56.7608 115.971C57.1225 116.489 57.8258 116.317 58.1519 116.002C58.4779 115.686 58.6158 115.229 58.7411 114.792C59.0278 113.796 59.3166 112.75 59.1037 111.735C59.04 111.431 58.9264 111.129 58.7135 110.904C58.5006 110.678 58.1728 110.545 57.8731 110.624C57.5186 110.717 57.2981 111.065 57.1389 111.396C56.6707 112.367 56.423 113.444 56.4192 114.523C56.4175 115.027 56.4766 115.555 56.7608 115.971Z" fill="#FC727E"/>
<path id="Vector_50" d="M55.7672 116.713C56.1599 116.247 56.2345 115.566 56.0597 114.982C55.885 114.397 55.4902 113.9 55.035 113.494C54.5015 113.018 53.874 112.648 53.1997 112.411C52.9344 112.317 52.6544 112.244 52.3744 112.27C52.0945 112.297 51.8124 112.44 51.6816 112.69C51.4884 113.059 51.6737 113.506 51.874 113.871C52.2269 114.513 52.6301 115.128 53.0794 115.707C53.4407 116.173 53.8543 116.633 54.4051 116.844C54.9558 117.054 55.5275 117.03 55.8196 116.648" fill="#FC727E"/>
<g id="Group_36">
<path id="Vector_51" d="M56.7361 123.772C56.7428 123.772 56.7537 123.688 56.7688 123.537C56.7856 123.366 56.8065 123.151 56.8312 122.896C56.861 122.626 56.9004 122.305 56.9754 121.955C57.05 121.606 57.167 121.228 57.317 120.845C57.4725 120.463 57.6619 120.117 57.8837 119.84C58.1037 119.562 58.3594 119.36 58.5999 119.244C58.8397 119.126 59.0547 119.078 59.203 119.056C59.3531 119.041 59.4369 119.029 59.4369 119.022C59.4369 119.016 59.3531 119.015 59.1988 119.018C59.0463 119.029 58.8225 119.067 58.5698 119.182C58.3162 119.294 58.045 119.499 57.8141 119.783C57.5815 120.066 57.3853 120.42 57.2269 120.808C57.0743 121.198 56.9591 121.58 56.8878 121.936C56.8166 122.292 56.7843 122.616 56.7629 122.888C56.7424 123.161 56.7348 123.381 56.7311 123.534C56.7277 123.687 56.7298 123.771 56.7361 123.772Z" fill="#222222"/>
</g>
<g id="Group_37">
<path id="Vector_52" d="M56.7806 123.278C56.784 123.278 56.7861 123.241 56.7869 123.169C56.7865 123.088 56.7865 122.984 56.7861 122.858C56.7852 122.587 56.7857 122.195 56.7999 121.712C56.8238 120.745 56.9072 119.704 57.0677 118.237C57.2199 116.858 57.424 115.252 57.6398 114.208C57.6859 113.97 57.7324 113.756 57.7765 113.569C57.8184 113.382 57.854 113.22 57.8884 113.09C57.9181 112.966 57.942 112.866 57.9613 112.786C57.9768 112.717 57.9835 112.68 57.9801 112.678C57.9768 112.678 57.9638 112.713 57.9424 112.781C57.9185 112.859 57.8888 112.958 57.8519 113.079C57.8117 113.209 57.7706 113.37 57.7236 113.556C57.6746 113.743 57.6235 113.956 57.5728 114.193C57.3594 115.139 57.1335 116.461 56.9713 117.932C56.8104 119.402 56.7379 120.741 56.7312 121.71C56.7253 122.195 56.7358 122.587 56.7479 122.858C56.7555 122.985 56.7622 123.088 56.7668 123.17C56.7727 123.241 56.7773 123.278 56.7806 123.278Z" fill="#222222"/>
</g>
<g id="Group_38">
<path id="Vector_53" d="M56.787 120.696C56.7937 120.696 56.7924 120.58 56.7849 120.371C56.7727 120.161 56.7442 119.859 56.6851 119.488C56.6227 119.119 56.5355 118.68 56.3984 118.203C56.3389 117.985 56.1994 117.462 55.8611 116.681C55.4156 115.624 54.8104 114.759 54.2836 114.223C54.1599 114.081 54.0225 113.978 53.9127 113.878C53.8557 113.83 53.8054 113.782 53.7542 113.744C53.7027 113.708 53.6549 113.675 53.6105 113.644C53.437 113.526 53.3401 113.463 53.3364 113.469C53.3209 113.491 53.7245 113.728 54.2345 114.271C54.7425 114.813 55.3309 115.671 55.7727 116.72C56.0191 117.289 56.191 117.797 56.3129 118.228C56.4538 118.7 56.5472 119.135 56.6181 119.501C56.6851 119.868 56.7241 120.167 56.7476 120.374C56.7664 120.581 56.7803 120.697 56.787 120.696Z" fill="#222222"/>
</g>
</g>
</g>
</g>
</g>
<path id="Vector_54" d="M84.7054 68.5299H83.0151V71.1441H84.7054V68.5299Z" fill="#222222"/>
<path id="Vector_55" d="M84.7054 71.8617H83.0151V74.4759H84.7054V71.8617Z" fill="#222222"/>
<g id="Group_39">
<path id="Vector_56" d="M113.63 109.733C113.65 109.07 114.235 108.569 114.818 108.254C115.402 107.939 116.06 107.696 116.468 107.174C117.129 106.327 116.977 104.937 117.862 104.327C118.382 103.969 119.115 104.012 119.602 103.609C119.857 103.397 120.009 103.09 120.169 102.8C120.989 101.321 122.213 100.069 123.674 99.2174C123.34 100.65 122.612 101.989 121.592 103.048C121.182 103.474 120.715 103.87 120.464 104.405C120.056 105.274 120.291 106.361 119.806 107.19C119.252 108.138 117.904 108.488 117.543 109.525C117.237 110.402 117.785 111.409 117.467 112.282C117.332 112.654 117.054 112.954 116.764 113.222C115.742 114.166 114.502 114.659 112.978 114.186L111.083 113.704L113.63 109.733Z" fill="#E8505B"/>
<g id="Group_40" opacity="0.3">
<path id="Vector_57" d="M113.63 109.733C113.65 109.07 114.235 108.569 114.818 108.254C115.402 107.939 116.06 107.696 116.468 107.174C117.129 106.327 116.977 104.937 117.862 104.327C118.382 103.969 119.115 104.012 119.602 103.609C119.857 103.397 120.009 103.09 120.169 102.8C120.989 101.321 122.213 100.069 123.674 99.2174C123.34 100.65 122.612 101.989 121.592 103.048C121.182 103.474 120.715 103.87 120.464 104.405C120.056 105.274 120.291 106.361 119.806 107.19C119.252 108.138 117.904 108.488 117.543 109.525C117.237 110.402 117.785 111.409 117.467 112.282C117.332 112.654 117.054 112.954 116.764 113.222C115.742 114.166 114.502 114.659 112.978 114.186L111.083 113.704L113.63 109.733Z" fill="black"/>
</g>
<g id="Group_41">
<g id="Group_42">
<g id="Group_43">
<path id="Vector_58" d="M110.689 113.642C110.689 113.642 110.496 113.639 110.171 113.49C109.854 113.34 109.37 113.085 108.961 112.527C108.869 112.383 108.782 112.214 108.766 112.014C108.752 111.816 108.795 111.621 108.84 111.42C108.942 111.023 109.056 110.596 108.916 110.142C108.809 109.694 108.545 109.216 108.579 108.643C108.601 108.077 108.859 107.537 109.109 106.998C109.36 106.459 109.618 105.877 109.573 105.239C109.543 104.601 109.285 103.952 109.27 103.219C109.26 102.479 109.567 101.784 109.727 101.068C109.81 100.708 109.844 100.341 109.785 99.9706C109.731 99.599 109.612 99.2245 109.548 98.8218C109.419 98.0057 109.596 97.1819 109.733 96.3708C109.803 95.9623 109.875 95.5491 109.947 95.1322C110.021 94.7111 110.101 94.303 110.088 93.8794C110.086 93.4562 110.031 93.0293 109.977 92.5922C109.953 92.3729 109.923 92.1523 109.936 91.9124C109.965 91.6699 110.015 91.4653 110.065 91.2409C110.259 90.3525 110.697 89.5305 111.05 88.7026C111.061 88.6778 111.071 88.6531 111.08 88.6304L111.144 88.479L111.264 88.5889C111.98 89.244 112.256 90.207 112.329 91.0958C112.407 92.0013 112.272 92.8833 112.195 93.7335C112.114 94.5836 112.086 95.4296 112.301 96.2114C112.508 96.9823 112.953 97.7431 112.845 98.5987C112.717 99.448 112.075 100.016 111.967 100.726C111.835 101.438 112.125 102.136 112.332 102.8C112.557 103.461 112.704 104.185 112.537 104.843C112.396 105.496 112.13 106.069 112.011 106.644C111.884 107.216 111.931 107.784 112.021 108.309C112.111 108.835 112.241 109.327 112.333 109.795C112.43 110.258 112.489 110.714 112.431 111.126C112.377 111.536 112.263 111.898 112.126 112.207C111.853 112.828 111.474 113.222 111.178 113.417C110.879 113.616 110.689 113.642 110.689 113.642C110.683 113.627 110.869 113.585 111.151 113.38C111.43 113.177 111.789 112.785 112.043 112.172C112.171 111.868 112.275 111.513 112.321 111.115C112.37 110.715 112.309 110.285 112.206 109.821C112.109 109.359 111.974 108.869 111.876 108.335C111.779 107.804 111.723 107.213 111.851 106.612C111.971 106.013 112.233 105.434 112.362 104.808C112.515 104.181 112.376 103.52 112.15 102.86C112.041 102.528 111.919 102.189 111.831 101.828C111.744 101.47 111.694 101.08 111.767 100.691C111.901 99.8968 112.539 99.3193 112.634 98.571C112.735 97.814 112.315 97.0766 112.089 96.2701C111.86 95.4464 111.89 94.5706 111.97 93.7138C112.047 92.8535 112.177 91.9879 112.1 91.1155C112.029 90.2552 111.763 89.3556 111.108 88.7588L111.291 88.7172C111.282 88.7403 111.271 88.7655 111.261 88.7906C110.897 89.6416 110.475 90.4318 110.286 91.2946C110.238 91.5038 110.186 91.7329 110.162 91.9296C110.151 92.1317 110.177 92.3506 110.202 92.5666C110.253 93.0003 110.311 93.4386 110.311 93.879C110.325 94.3211 110.239 94.7581 110.165 95.1695C110.092 95.5869 110.02 96 109.948 96.4089C109.807 97.2251 109.637 98.0258 109.756 98.7904C109.815 99.1716 109.933 99.5479 109.989 99.9417C110.051 100.337 110.012 100.743 109.924 101.113C109.751 101.855 109.452 102.532 109.46 103.218C109.466 103.903 109.719 104.556 109.749 105.231C109.792 105.918 109.51 106.533 109.256 107.067C108.999 107.606 108.749 108.125 108.724 108.65C108.684 109.175 108.93 109.641 109.04 110.112C109.1 110.347 109.121 110.592 109.088 110.818C109.058 111.044 108.995 111.25 108.946 111.447C108.898 111.642 108.854 111.834 108.865 112.008C108.876 112.182 108.95 112.341 109.036 112.478C109.413 113.02 109.886 113.29 110.191 113.448C110.504 113.608 110.692 113.63 110.689 113.642Z" fill="#222222"/>
</g>
<g id="Group_44">
<path id="Vector_59" d="M111.21 89.796C111.233 89.7964 111.198 90.1337 111.198 90.7343C111.208 90.8836 111.21 91.0471 111.228 91.2292C111.252 91.4125 111.28 91.6113 111.298 91.8264C111.34 92.2559 111.366 92.7475 111.364 93.291C111.363 93.8346 111.33 94.4289 111.291 95.0631C111.256 95.6989 111.209 96.3683 111.361 97.0603C111.426 97.4089 111.51 97.7687 111.55 98.1508C111.594 98.5346 111.562 98.9318 111.507 99.3189C111.479 99.5114 111.45 99.7056 111.421 99.9015C111.403 100.097 111.385 100.295 111.367 100.494C111.33 100.893 111.293 101.296 111.255 101.705C111.09 104.998 110.981 107.985 110.889 110.147C110.839 111.203 110.797 112.069 110.766 112.705C110.748 112.986 110.733 113.216 110.721 113.401C110.708 113.56 110.697 113.643 110.689 113.643C110.682 113.642 110.677 113.559 110.675 113.4C110.675 113.215 110.676 112.984 110.677 112.703C110.689 112.065 110.707 111.198 110.728 110.142C110.778 107.979 110.861 104.992 111.027 101.69C111.065 101.278 111.103 100.87 111.141 100.468C111.16 100.267 111.179 100.067 111.197 99.8696C111.227 99.6741 111.256 99.4804 111.285 99.2879C111.341 98.9058 111.372 98.535 111.333 98.1726C111.298 97.809 111.218 97.4533 111.154 97.0989C111.003 96.3851 111.059 95.68 111.102 95.0509C111.149 94.4163 111.192 93.8279 111.202 93.2893C111.215 92.7512 111.201 92.2643 111.171 91.8373C111.159 91.6238 111.137 91.4259 111.12 91.2434C111.109 91.0585 111.113 90.8852 111.11 90.7326C111.107 90.426 111.156 90.1966 111.169 90.0372C111.188 89.8782 111.202 89.7956 111.21 89.796Z" fill="#222222"/>
</g>
</g>
<g id="Group_45">
<path id="Vector_60" d="M110.356 113.552C109.343 112.465 109.637 110.15 110.536 108.968C111.435 107.786 112.685 106.83 113.237 105.451C113.661 104.39 113.631 103.166 114.196 102.173C114.958 100.834 116.688 100.129 117.103 98.6445C117.336 97.8115 117.092 96.8926 117.371 96.0739C117.714 95.0698 118.73 94.4906 119.474 93.7356C120.614 92.5797 121.136 90.9721 121.837 89.5075C122.539 88.0433 123.605 86.5669 125.188 86.2087C125.008 87.5735 125.091 88.568 124.467 90.3056C124.243 90.9297 123.151 91.9304 122.645 93.2935C122.342 94.1085 122.057 94.9297 121.764 95.7476C121.478 96.5436 121.185 97.3535 120.673 98.0271C120.282 98.5434 119.77 98.9666 119.43 99.5181C118.79 100.556 118.842 101.898 118.258 102.968C117.763 103.875 116.849 104.513 116.426 105.455C115.831 106.779 116.306 108.474 115.465 109.657C115.048 110.244 114.358 110.612 114.009 111.242C113.738 111.731 113.706 112.322 113.445 112.817C113.026 113.613 111.219 113.8 110.372 113.496" fill="#E8505B"/>
<g id="Group_46">
<path id="Vector_61" d="M124.471 87.4062C124.478 87.4096 124.441 87.5069 124.364 87.6893C124.284 87.8718 124.175 88.1394 124.008 88.482C123.835 88.8268 123.534 89.1799 123.247 89.6258C122.951 90.0683 122.634 90.5854 122.316 91.1751C121.995 91.7635 121.677 92.4254 121.338 93.1401C120.997 93.8464 120.625 94.6387 120.024 95.3148C119.737 95.6578 119.431 95.9934 119.167 96.3662C118.901 96.7357 118.705 97.1585 118.529 97.606C118.443 97.8317 118.355 98.0594 118.267 98.2888C118.165 98.5141 118.063 98.741 117.96 98.9696C117.754 99.4267 117.544 99.8902 117.332 100.36C116.407 102.194 115.506 103.93 114.684 105.508C113.852 107.073 113.101 108.485 112.466 109.68C111.837 110.846 111.324 111.797 110.953 112.483C110.78 112.795 110.64 113.046 110.532 113.24C110.433 113.412 110.378 113.5 110.371 113.497C110.365 113.493 110.406 113.397 110.491 113.218C110.589 113.02 110.716 112.762 110.875 112.442C111.229 111.748 111.72 110.784 112.323 109.604C112.945 108.403 113.681 106.983 114.497 105.409C115.306 103.824 116.194 102.085 117.126 100.259C117.337 99.7937 117.545 99.3336 117.75 98.8802C117.853 98.6537 117.955 98.4285 118.056 98.2054C118.145 97.976 118.233 97.7482 118.321 97.5226C118.5 97.0709 118.708 96.625 118.989 96.2392C119.266 95.8529 119.577 95.5157 119.862 95.1784C120.454 94.5221 120.815 93.765 121.167 93.0566C121.514 92.3465 121.842 91.6839 122.174 91.0963C122.504 90.5074 122.833 89.9919 123.141 89.5532C123.443 89.1082 123.753 88.7643 123.93 88.4392C124.092 88.1217 124.221 87.8663 124.322 87.6696C124.413 87.4939 124.464 87.4029 124.471 87.4062Z" fill="#222222"/>
</g>
</g>
</g>
</g>
<path id="Vector_62" d="M116.707 129.669C119.778 130.544 123.049 130.26 125.983 129.001C126.684 128.7 127.397 128.443 128.135 128.297C131.85 127.563 135.534 129.747 139.322 129.785C141.592 129.807 143.788 129.059 146.028 128.67C144.022 127.255 141.546 125.531 141.546 125.531L140.902 123.973L135.332 122.273L128.731 117.976L124.584 117.4L120.053 114.982L106.286 112.609H79.6664L72.212 117.272L56.135 118.188L49.251 123.62L39.133 126.32L34.6694 129.701C35.7985 129.798 36.9289 129.851 38.063 129.808C43.8108 129.586 49.3428 127.017 55.0885 127.283C61.2847 127.569 67.1968 131.139 73.3432 130.303C78.238 129.636 82.6639 126.213 87.5882 126.606C92.1716 126.972 96.09 130.613 100.688 130.621C103.398 130.625 105.924 129.358 108.534 128.628C111.575 127.777 113.599 128.783 116.707 129.669Z" fill="#455A64"/>
</g>
<g id="Ship">
<g id="Group_47">
<g id="Group_48">
<path id="Vector_63" d="M164.891 115.382C164.891 115.433 161.307 115.475 156.886 115.475C152.464 115.475 148.881 115.433 148.881 115.382C148.881 115.331 152.464 115.29 156.886 115.29C161.306 115.29 164.891 115.331 164.891 115.382Z" fill="#455A64"/>
</g>
<g id="Group_49">
<path id="Vector_64" d="M162.416 117.208C162.416 117.26 160.119 117.301 157.286 117.301C154.453 117.301 152.156 117.26 152.156 117.208C152.156 117.157 154.453 117.116 157.286 117.116C160.119 117.116 162.416 117.157 162.416 117.208Z" fill="#455A64"/>
</g>
<g id="Group_50">
<path id="Vector_65" d="M158.236 119.173C158.236 119.225 157.881 119.266 157.444 119.266C157.007 119.266 156.652 119.225 156.652 119.173C156.652 119.122 157.007 119.081 157.444 119.081C157.881 119.081 158.236 119.122 158.236 119.173Z" fill="#455A64"/>
</g>
<path id="Vector_66" d="M161.089 109.715V104.992H157.27V102.431H156.197V105.121H155.64V102.458H154.695V104.992H148.86V105.765H149.67C149.639 106.189 149.619 107.02 149.619 107.977C149.619 108.642 149.629 109.245 149.645 109.695L145.555 109.716L149.16 113.71H164.007L166.839 109.716H161.089V109.715ZM149.765 105.765H151.602C151.571 106.189 151.55 107.02 151.55 107.976C151.55 108.637 151.56 109.236 151.577 109.684L149.791 109.694C149.808 109.244 149.818 108.641 149.818 107.976C149.817 107.02 149.796 106.189 149.765 105.765ZM153.966 109.672L151.721 109.684C151.738 109.235 151.748 108.636 151.748 107.976C151.748 107.02 151.727 106.189 151.696 105.765H153.966V109.672Z" fill="#455A64"/>
</g>
</g>
</g>
<defs>
<clipPath id="clip0_94_3705">
<rect width="191" height="158" fill="white" transform="translate(0 0.914429)"/>
</clipPath>
</defs>
</svg>
