<svg width="51" height="48" viewBox="0 0 51 48" fill="none" xmlns="http://www.w3.org/2000/svg">
<g id="&#60;Group&#62;">
<g id="&#60;Group&#62;_2" style="mix-blend-mode:multiply" opacity="0.3">
<path id="&#60;Path&#62;" d="M32.5174 32.3554C32.5174 40.0261 26.275 46.2279 18.6454 46.2279C10.975 46.2279 4.77344 40.0261 4.77344 32.3554C4.77344 24.7256 10.975 18.483 18.6454 18.483C26.275 18.483 32.5174 24.7256 32.5174 32.3554Z" fill="white"/>
<path id="&#60;Path&#62;_2" d="M32.7215 32.1514C32.7215 39.8221 26.5199 46.0239 18.8495 46.0239C11.1791 46.0239 4.97754 39.8221 4.97754 32.1514C4.97754 24.4808 11.1791 18.279 18.8495 18.279C26.5199 18.279 32.7215 24.4808 32.7215 32.1514Z" fill="#F7F7F7"/>
<path id="&#60;Path&#62;_3" d="M32.9254 31.9066C32.9254 39.5773 26.7238 45.7791 19.0534 45.7791C11.4238 45.7791 5.1814 39.5773 5.1814 31.9066C5.1814 24.2768 11.4238 18.075 19.0534 18.075C26.7238 18.075 32.9254 24.2768 32.9254 31.9066Z" fill="#EFEFEF"/>
<path id="&#60;Path&#62;_4" d="M33.1703 31.7026C33.1703 39.3733 26.9687 45.5751 19.2983 45.5751C11.6279 45.5751 5.42627 39.3733 5.42627 31.7026C5.42627 24.032 11.6279 17.8302 19.2983 17.8302C26.9687 17.8302 33.1703 24.032 33.1703 31.7026Z" fill="#E6E6E6"/>
<path id="&#60;Path&#62;_5" d="M33.3744 31.4986C33.3744 39.1285 27.1728 45.3711 19.5024 45.3711C11.8728 45.3711 5.63037 39.1285 5.63037 31.4986C5.63037 23.828 11.8728 17.6262 19.5024 17.6262C27.1728 17.6262 33.3744 23.828 33.3744 31.4986Z" fill="#DEDEDE"/>
<path id="&#60;Path&#62;_6" d="M33.619 31.2538C33.619 38.9245 27.3766 45.1263 19.747 45.1263C12.0766 45.1263 5.875 38.9245 5.875 31.2538C5.875 23.5832 12.0766 17.3813 19.747 17.3813C27.3766 17.3813 33.619 23.5832 33.619 31.2538Z" fill="#D6D6D6"/>
<path id="&#60;Path&#62;_7" d="M33.8231 31.0498C33.8231 38.7205 27.6215 44.9223 19.9511 44.9223C12.2807 44.9223 6.0791 38.7205 6.0791 31.0498C6.0791 23.3791 12.2807 17.1773 19.9511 17.1773C27.6215 17.1773 33.8231 23.3791 33.8231 31.0498Z" fill="#CECECE"/>
<path id="&#60;Path&#62;_8" d="M34.0677 30.805C34.0677 38.4756 27.8253 44.6775 20.1957 44.6775C12.5253 44.6775 6.32373 38.4756 6.32373 30.805C6.32373 23.1751 12.5253 16.9325 20.1957 16.9325C27.8253 16.9325 34.0677 23.1751 34.0677 30.805Z" fill="#C5C5C5"/>
<path id="&#60;Path&#62;_9" d="M34.2718 30.601C34.2718 38.2716 28.0702 44.4734 20.3998 44.4734C12.7294 44.4734 6.52783 38.2716 6.52783 30.601C6.52783 22.9303 12.7294 16.7285 20.3998 16.7285C28.0702 16.7285 34.2718 22.9303 34.2718 30.601Z" fill="#BDBDBD"/>
<path id="&#60;Path&#62;_10" d="M34.4759 30.3562C34.4759 38.0269 28.2743 44.2287 20.6039 44.2287C12.9743 44.2287 6.73193 38.0269 6.73193 30.3562C6.73193 22.7263 12.9743 16.4837 20.6039 16.4837C28.2743 16.4837 34.4759 22.7263 34.4759 30.3562Z" fill="#B5B5B5"/>
<path id="&#60;Path&#62;_11" d="M34.7206 30.1522C34.7206 37.8228 28.519 44.0247 20.8486 44.0247C13.1782 44.0247 6.97656 37.8228 6.97656 30.1522C6.97656 22.4815 13.1782 16.2797 20.8486 16.2797C28.519 16.2797 34.7206 22.4815 34.7206 30.1522Z" fill="#ADADAD"/>
<path id="&#60;Path&#62;_12" d="M34.9247 29.9482C34.9247 37.578 28.7231 43.8206 21.0527 43.8206C13.4231 43.8206 7.18066 37.578 7.18066 29.9482C7.18066 22.2775 13.4231 16.0757 21.0527 16.0757C28.7231 16.0757 34.9247 22.2775 34.9247 29.9482Z" fill="#A5A5A5"/>
<path id="&#60;Path&#62;_13" d="M35.1695 29.7034C35.1695 37.374 28.9271 43.5758 21.2975 43.5758C13.6271 43.5758 7.42554 37.374 7.42554 29.7034C7.42554 22.0327 13.6271 15.8309 21.2975 15.8309C28.9271 15.8309 35.1695 22.0327 35.1695 29.7034Z" fill="#9C9C9C"/>
<path id="&#60;Path&#62;_14" d="M35.3734 29.4994C35.3734 37.1292 29.1718 43.3718 21.5014 43.3718C13.831 43.3718 7.62939 37.1292 7.62939 29.4994C7.62939 21.8287 13.831 15.6269 21.5014 15.6269C29.1718 15.6269 35.3734 21.8287 35.3734 29.4994Z" fill="#949494"/>
<path id="&#60;Path&#62;_15" d="M35.6183 29.2545C35.6183 36.9252 29.3759 43.127 21.7463 43.127C14.0759 43.127 7.87427 36.9252 7.87427 29.2545C7.87427 21.6247 14.0759 15.3821 21.7463 15.3821C29.3759 15.3821 35.6183 21.6247 35.6183 29.2545Z" fill="#8C8C8C"/>
<path id="&#60;Path&#62;_16" d="M35.8221 29.0505C35.8221 36.7212 29.6205 42.923 21.9501 42.923C14.2797 42.923 8.07812 36.7212 8.07812 29.0505C8.07812 21.3799 14.2797 15.1781 21.9501 15.1781C29.6205 15.1781 35.8221 21.3799 35.8221 29.0505Z" fill="#848484"/>
<path id="&#60;Path&#62;_17" d="M36.0262 28.8057C36.0262 36.4764 29.8246 42.6782 22.1542 42.6782C14.5246 42.6782 8.28223 36.4764 8.28223 28.8057C8.28223 21.1759 14.5246 14.9333 22.1542 14.9333C29.8246 14.9333 36.0262 21.1759 36.0262 28.8057Z" fill="#7B7B7B"/>
<path id="&#60;Path&#62;_18" d="M36.2711 28.6017C36.2711 36.2724 30.0695 42.4742 22.3991 42.4742C14.7287 42.4742 8.5271 36.2724 8.5271 28.6017C8.5271 20.9311 14.7287 14.7292 22.3991 14.7292C30.0695 14.7292 36.2711 20.9311 36.2711 28.6017Z" fill="#737373"/>
<path id="&#60;Path&#62;_19" d="M36.475 28.3977C36.475 36.0276 30.2734 42.2702 22.603 42.2702C14.9734 42.2702 8.73096 36.0276 8.73096 28.3977C8.73096 20.727 14.9734 14.5252 22.603 14.5252C30.2734 14.5252 36.475 20.727 36.475 28.3977Z" fill="#808080"/>
<path id="&#60;Path&#62;_20" d="M36.7198 28.1529C36.7198 35.8236 30.4774 42.0254 22.8478 42.0254C15.1774 42.0254 8.97583 35.8236 8.97583 28.1529C8.97583 20.4823 15.1774 14.2805 22.8478 14.2805C30.4774 14.2805 36.7198 20.4823 36.7198 28.1529Z" fill="#636363"/>
<path id="&#60;Path&#62;_21" d="M36.9239 27.9489C36.9239 35.5788 30.7223 41.8214 23.0519 41.8214C15.3815 41.8214 9.17993 35.5788 9.17993 27.9489C9.17993 20.2783 15.3815 14.0764 23.0519 14.0764C30.7223 14.0764 36.9239 20.2783 36.9239 27.9489Z" fill="#5A5A5A"/>
<path id="&#60;Path&#62;_22" d="M37.1688 27.7041C37.1688 35.3748 30.9264 41.5766 23.2968 41.5766C15.6264 41.5766 9.4248 35.3748 9.4248 27.7041C9.4248 20.0742 15.6264 13.8316 23.2968 13.8316C30.9264 13.8316 37.1688 20.0742 37.1688 27.7041Z" fill="#525252"/>
<path id="&#60;Path&#62;_23" d="M37.3727 27.5001C37.3727 35.1707 31.1711 41.3726 23.5007 41.3726C15.8303 41.3726 9.62866 35.1707 9.62866 27.5001C9.62866 19.8294 15.8303 13.6276 23.5007 13.6276C31.1711 13.6276 37.3727 19.8294 37.3727 27.5001Z" fill="#4A4A4A"/>
<path id="&#60;Path&#62;_24" d="M37.5765 27.2553C37.5765 34.9259 31.3749 41.1277 23.7045 41.1277C16.0749 41.1277 9.83252 34.9259 9.83252 27.2553C9.83252 19.6254 16.0749 13.3828 23.7045 13.3828C31.3749 13.3828 37.5765 19.6254 37.5765 27.2553Z" fill="#424242"/>
<path id="&#60;Path&#62;_25" d="M37.8214 27.0513C37.8214 34.7219 31.6198 40.9237 23.9494 40.9237C16.279 40.9237 10.0774 34.7219 10.0774 27.0513C10.0774 19.3806 16.279 13.1788 23.9494 13.1788C31.6198 13.1788 37.8214 19.3806 37.8214 27.0513Z" fill="#3A3A3A"/>
<path id="&#60;Path&#62;_26" d="M38.0255 26.8473C38.0255 34.4771 31.8239 40.7197 24.1535 40.7197C16.5239 40.7197 10.2815 34.4771 10.2815 26.8473C10.2815 19.1766 16.5239 12.9748 24.1535 12.9748C31.8239 12.9748 38.0255 19.1766 38.0255 26.8473Z" fill="#313131"/>
<path id="&#60;Path&#62;_27" d="M38.2704 26.6025C38.2704 34.2731 32.028 40.4749 24.3984 40.4749C16.728 40.4749 10.5264 34.2731 10.5264 26.6025C10.5264 18.9318 16.728 12.73 24.3984 12.73C32.028 12.73 38.2704 18.9318 38.2704 26.6025Z" fill="#292929"/>
<path id="&#60;Path&#62;_28" d="M38.4742 26.3985C38.4742 34.0283 32.2726 40.2709 24.6022 40.2709C16.9318 40.2709 10.7302 34.0283 10.7302 26.3985C10.7302 18.7278 16.9318 12.526 24.6022 12.526C32.2726 12.526 38.4742 18.7278 38.4742 26.3985Z" fill="#212121"/>
<path id="&#60;Path&#62;_29" d="M38.7191 26.1536C38.7191 33.8243 32.4767 40.0261 24.8471 40.0261C17.1767 40.0261 10.9751 33.8243 10.9751 26.1536C10.9751 18.5238 17.1767 12.2812 24.8471 12.2812C32.4767 12.2812 38.7191 18.5238 38.7191 26.1536Z" fill="#191919"/>
<path id="&#60;Path&#62;_30" d="M38.9232 25.9496C38.9232 33.6203 32.7216 39.8221 25.0512 39.8221C17.3808 39.8221 11.1792 33.6203 11.1792 25.9496C11.1792 18.279 17.3808 12.0771 25.0512 12.0771C32.7216 12.0771 38.9232 18.279 38.9232 25.9496Z" fill="#101010"/>
<path id="&#60;Path&#62;_31" d="M39.1271 25.7048C39.1271 33.3755 32.9255 39.5773 25.2551 39.5773C17.6255 39.5773 11.3831 33.3755 11.3831 25.7048C11.3831 18.075 17.6255 11.8324 25.2551 11.8324C32.9255 11.8324 39.1271 18.075 39.1271 25.7048Z" fill="#080808"/>
<path id="&#60;Path&#62;_32" d="M39.3719 25.5009C39.3719 33.1715 33.1703 39.3733 25.4999 39.3733C17.8295 39.3733 11.6279 33.1715 11.6279 25.5009C11.6279 17.8302 17.8295 11.6284 25.4999 11.6284C33.1703 11.6284 39.3719 17.8302 39.3719 25.5009Z" fill="black"/>
</g>
<g id="&#60;Group&#62;_3">
<path id="&#60;Path&#62;_33" d="M2.244 25.5009C2.244 25.0384 2.25759 24.576 2.28479 24.1136L0.04079 23.9912C0.01359 24.4808 0 24.984 0 25.5009C0 34.2732 4.44719 42.3518 11.8728 47.044L13.0968 45.1671C6.28319 40.8422 2.244 33.4979 2.244 25.5009Z" fill="url(#paint0_linear_94_2832)"/>
<path id="&#60;Path&#62;_34" d="M48.756 25.5009C48.756 33.9467 44.1456 41.7806 36.72 45.8607L37.8216 47.86C45.9408 43.3311 51 34.8036 51 25.5009H48.756Z" fill="url(#paint1_linear_94_2832)"/>
<path id="&#60;Path&#62;_35" d="M40.3921 4.77376C36.0265 1.67286 30.8857 0 25.5001 0C21.6649 0 17.9929 0.816026 14.5657 2.44808L15.5041 4.48815C18.6457 3.0193 21.9913 2.24407 25.5001 2.24407C30.3961 2.24407 35.0881 3.75373 39.0865 6.65062L40.3921 4.77376Z" fill="url(#paint2_linear_94_2832)"/>
</g>
<g id="&#60;Group&#62;_4">
<path id="&#60;Path&#62;_36" d="M28.8864 8.16028L29.3352 5.95701C27.132 5.50819 24.888 5.46739 22.644 5.7938C13.3416 7.14025 6.36477 14.6069 5.63037 23.9504L7.87437 24.1136C8.52717 15.8309 14.7288 9.22112 22.9704 8.03788C24.9288 7.75227 26.928 7.79307 28.8864 8.16028Z" fill="url(#paint3_linear_94_2832)"/>
<path id="&#60;Path&#62;_37" d="M43.0033 23.012C44.3905 32.6411 37.6993 41.6174 28.0297 43.0454C27.3769 43.127 26.7241 43.1814 26.0713 43.2086L26.1529 45.4935C26.8873 45.4663 27.6217 45.3983 28.3561 45.2895C39.2497 43.6982 46.7977 33.5387 45.2473 22.6855L43.0033 23.012Z" fill="url(#paint4_linear_94_2832)"/>
</g>
<path id="&#60;Path&#62;_38" d="M39.3719 25.5009C39.3719 33.1715 33.1703 39.3733 25.4999 39.3733C17.8295 39.3733 11.6279 33.1715 11.6279 25.5009C11.6279 17.8302 17.8295 11.6284 25.4999 11.6284C33.1703 11.6284 39.3719 17.8302 39.3719 25.5009Z" fill="url(#paint5_linear_94_2832)"/>
<g id="&#60;Group&#62;_5">
<path id="&#60;Compound Path&#62;" fill-rule="evenodd" clip-rule="evenodd" d="M25.5 40.8014C17.0544 40.8014 10.2 33.9467 10.2 25.5009C10.2 17.055 17.0544 10.2003 25.5 10.2003C33.9048 10.2003 40.7999 17.055 40.7999 25.5009C40.7999 33.9467 33.9048 40.8014 25.5 40.8014ZM25.5 13.0564C18.6456 13.0564 13.056 18.6462 13.056 25.5009C13.056 32.3555 18.6456 37.9453 25.5 37.9453C32.3544 37.9453 37.944 32.3555 37.944 25.5009C37.944 18.6462 32.3544 13.0564 25.5 13.0564Z" fill="white"/>
</g>
<g id="&#60;Group&#62;_6">
<path id="&#60;Compound Path&#62;_2" fill-rule="evenodd" clip-rule="evenodd" d="M21.216 30.7642C19.856 30.7642 18.836 30.2882 18.156 29.3362C17.476 28.4114 17.136 27.1737 17.136 25.6233C17.136 24.0728 17.476 22.8352 18.156 21.9103C18.836 20.9583 19.856 20.4823 21.216 20.4823C22.6032 20.4823 23.6368 20.9583 24.3168 21.9103C24.9968 22.8352 25.3368 24.0728 25.3368 25.6233C25.3368 27.1737 24.9968 28.4114 24.3168 29.3362C23.6368 30.2882 22.6032 30.7642 21.216 30.7642ZM19.788 23.216C19.4616 23.8416 19.2984 24.644 19.2984 25.6233C19.2984 26.6297 19.4616 27.4321 19.788 28.0305C20.0872 28.629 20.5632 28.9282 21.216 28.9282C21.896 28.9282 22.3856 28.629 22.6848 28.0305C23.0112 27.4321 23.1744 26.6297 23.1744 25.6233C23.1744 24.644 23.0112 23.8416 22.6848 23.216C22.3856 22.6176 21.896 22.3184 21.216 22.3184C20.5632 22.3184 20.0872 22.6176 19.788 23.216Z" fill="white"/>
<path id="&#60;Compound Path&#62;_3" d="M30.5592 24.6032C30.804 24.2496 30.9264 23.896 30.9264 23.5424C30.9264 23.216 30.8176 22.944 30.6 22.7264C30.3824 22.5088 30.0968 22.4 29.7432 22.4C29.1176 22.4 28.5328 22.8488 27.9888 23.7464L26.1936 22.6856C26.656 21.9511 27.1728 21.4071 27.744 21.0535C28.288 20.6727 28.9952 20.4823 29.8656 20.4823C30.7088 20.4823 31.4568 20.7543 32.1096 21.2983C32.7624 21.8423 33.0888 22.5904 33.0888 23.5424C33.0888 24.032 32.9528 24.5216 32.6808 25.0113C32.436 25.4737 31.96 26.0721 31.2528 26.8065L29.4576 28.6426H33.3744V30.6418H26.3976V28.969L29.2944 25.9905C29.8656 25.4193 30.2872 24.9568 30.5592 24.6032Z" fill="white"/>
</g>
</g>
<defs>
<linearGradient id="paint0_linear_94_2832" x1="-25.5481" y1="42.0679" x2="10.9078" y2="9.63969" gradientUnits="userSpaceOnUse">
<stop stop-color="#FC727E"/>
<stop offset="1" stop-color="#FC727E" stop-opacity="0.72"/>
</linearGradient>
<linearGradient id="paint1_linear_94_2832" x1="8.86377" y1="43.0336" x2="44.4654" y2="7.43316" gradientUnits="userSpaceOnUse">
<stop stop-color="#FC727E"/>
<stop offset="1" stop-color="#FC727E" stop-opacity="0.72"/>
</linearGradient>
<linearGradient id="paint2_linear_94_2832" x1="-35.8143" y1="5.21503" x2="-32.4227" y2="-15.4062" gradientUnits="userSpaceOnUse">
<stop stop-color="#FC727E"/>
<stop offset="1" stop-color="#FC727E" stop-opacity="0.72"/>
</linearGradient>
<linearGradient id="paint3_linear_94_2832" x1="-40.6109" y1="20.1129" x2="-17.0201" y2="-27.1285" gradientUnits="userSpaceOnUse">
<stop stop-color="#FC727E"/>
<stop offset="1" stop-color="#FC727E" stop-opacity="0.72"/>
</linearGradient>
<linearGradient id="paint4_linear_94_2832" x1="-11.7294" y1="40.5702" x2="23.1568" y2="-5.83694" gradientUnits="userSpaceOnUse">
<stop stop-color="#FC727E"/>
<stop offset="1" stop-color="#FC727E" stop-opacity="0.72"/>
</linearGradient>
<linearGradient id="paint5_linear_94_2832" x1="-42.4927" y1="33.3844" x2="-2.41119" y2="-29.3697" gradientUnits="userSpaceOnUse">
<stop stop-color="#FC727E"/>
<stop offset="1" stop-color="#FC727E" stop-opacity="0.72"/>
</linearGradient>
</defs>
</svg>
