<svg width="51" height="48" viewBox="0 0 51 48" fill="none" xmlns="http://www.w3.org/2000/svg">
<g id="&#60;Group&#62;">
<g id="&#60;Group&#62;_2" style="mix-blend-mode:multiply" opacity="0.3">
<path id="&#60;Path&#62;" d="M32.4769 32.3542C32.4769 40.0246 26.2753 46.2262 18.6049 46.2262C10.9753 46.2262 4.73291 40.0246 4.73291 32.3542C4.73291 24.7246 10.9753 18.4822 18.6049 18.4822C26.2753 18.4822 32.4769 24.7246 32.4769 32.3542Z" fill="white"/>
<path id="&#60;Path&#62;_2" d="M32.7215 32.1503C32.7215 39.8207 26.5199 46.0223 18.8495 46.0223C11.1791 46.0223 4.97754 39.8207 4.97754 32.1503C4.97754 24.4799 11.1791 18.2783 18.8495 18.2783C26.5199 18.2783 32.7215 24.4799 32.7215 32.1503Z" fill="#F7F7F7"/>
<path id="&#60;Path&#62;_3" d="M32.9256 31.9054C32.9256 39.5758 26.724 45.7774 19.0536 45.7774C11.3832 45.7774 5.18164 39.5758 5.18164 31.9054C5.18164 24.2758 11.3832 18.0742 19.0536 18.0742C26.724 18.0742 32.9256 24.2758 32.9256 31.9054Z" fill="#EFEFEF"/>
<path id="&#60;Path&#62;_4" d="M33.1703 31.7013C33.1703 39.3717 26.9279 45.5733 19.2983 45.5733C11.6279 45.5733 5.42627 39.3717 5.42627 31.7013C5.42627 24.0309 11.6279 17.8293 19.2983 17.8293C26.9279 17.8293 33.1703 24.0309 33.1703 31.7013Z" fill="#E6E6E6"/>
<path id="&#60;Path&#62;_5" d="M33.3744 31.4975C33.3744 39.1271 27.1728 45.3695 19.5024 45.3695C11.832 45.3695 5.63037 39.1271 5.63037 31.4975C5.63037 23.8271 11.832 17.6255 19.5024 17.6255C27.1728 17.6255 33.3744 23.8271 33.3744 31.4975Z" fill="#DEDEDE"/>
<path id="&#60;Path&#62;_6" d="M33.5787 31.2526C33.5787 38.923 27.3771 45.1246 19.7067 45.1246C12.0771 45.1246 5.87549 38.923 5.87549 31.2526C5.87549 23.5822 12.0771 17.3806 19.7067 17.3806C27.3771 17.3806 33.5787 23.5822 33.5787 31.2526Z" fill="#D6D6D6"/>
<path id="&#60;Path&#62;_7" d="M33.8231 31.0488C33.8231 38.7192 27.6215 44.9208 19.9511 44.9208C12.2807 44.9208 6.0791 38.7192 6.0791 31.0488C6.0791 23.3784 12.2807 17.1768 19.9511 17.1768C27.6215 17.1768 33.8231 23.3784 33.8231 31.0488Z" fill="#CECECE"/>
<path id="&#60;Path&#62;_8" d="M34.0272 30.8039C34.0272 38.4743 27.8256 44.6759 20.1552 44.6759C12.5256 44.6759 6.2832 38.4743 6.2832 30.8039C6.2832 23.1743 12.5256 16.9319 20.1552 16.9319C27.8256 16.9319 34.0272 23.1743 34.0272 30.8039Z" fill="#C5C5C5"/>
<path id="&#60;Path&#62;_9" d="M34.2723 30.5998C34.2723 38.2702 28.0707 44.4718 20.4003 44.4718C12.7299 44.4718 6.52832 38.2702 6.52832 30.5998C6.52832 22.9294 12.7299 16.7278 20.4003 16.7278C28.0707 16.7278 34.2723 22.9294 34.2723 30.5998Z" fill="#BDBDBD"/>
<path id="&#60;Path&#62;_10" d="M34.4764 30.3549C34.4764 38.0253 28.2748 44.2269 20.6044 44.2269C12.934 44.2269 6.73242 38.0253 6.73242 30.3549C6.73242 22.7253 12.934 16.4829 20.6044 16.4829C28.2748 16.4829 34.4764 22.7253 34.4764 30.3549Z" fill="#B5B5B5"/>
<path id="&#60;Path&#62;_11" d="M34.7211 30.1511C34.7211 37.8215 28.4787 44.0231 20.8491 44.0231C13.1787 44.0231 6.97705 37.8215 6.97705 30.1511C6.97705 22.4807 13.1787 16.2791 20.8491 16.2791C28.4787 16.2791 34.7211 22.4807 34.7211 30.1511Z" fill="#ADADAD"/>
<path id="&#60;Path&#62;_12" d="M34.9247 29.947C34.9247 37.5766 28.7231 43.819 21.0527 43.819C13.3823 43.819 7.18066 37.5766 7.18066 29.947C7.18066 22.2766 13.3823 16.075 21.0527 16.075C28.7231 16.075 34.9247 22.2766 34.9247 29.947Z" fill="#A5A5A5"/>
<path id="&#60;Path&#62;_13" d="M35.129 29.7023C35.129 37.3727 28.9274 43.5743 21.257 43.5743C13.6274 43.5743 7.42578 37.3727 7.42578 29.7023C7.42578 22.0319 13.6274 15.8303 21.257 15.8303C28.9274 15.8303 35.129 22.0319 35.129 29.7023Z" fill="#9C9C9C"/>
<path id="&#60;Path&#62;_14" d="M35.3739 29.4982C35.3739 37.1278 29.1723 43.3702 21.5019 43.3702C13.8315 43.3702 7.62988 37.1278 7.62988 29.4982C7.62988 21.8278 13.8315 15.6262 21.5019 15.6262C29.1723 15.6262 35.3739 21.8278 35.3739 29.4982Z" fill="#949494"/>
<path id="&#60;Path&#62;_15" d="M35.5775 29.2536C35.5775 36.924 29.3759 43.1256 21.7055 43.1256C14.0759 43.1256 7.8335 36.924 7.8335 29.2536C7.8335 21.624 14.0759 15.3816 21.7055 15.3816C29.3759 15.3816 35.5775 21.624 35.5775 29.2536Z" fill="#8C8C8C"/>
<path id="&#60;Path&#62;_16" d="M35.8226 29.0495C35.8226 36.7199 29.621 42.9215 21.9506 42.9215C14.2802 42.9215 8.07861 36.7199 8.07861 29.0495C8.07861 21.3791 14.2802 15.1775 21.9506 15.1775C29.621 15.1775 35.8226 21.3791 35.8226 29.0495Z" fill="#848484"/>
<path id="&#60;Path&#62;_17" d="M36.0267 28.8046C36.0267 36.475 29.8251 42.6766 22.1547 42.6766C14.4843 42.6766 8.28271 36.475 8.28271 28.8046C8.28271 21.175 14.4843 14.9326 22.1547 14.9326C29.8251 14.9326 36.0267 21.175 36.0267 28.8046Z" fill="#7B7B7B"/>
<path id="&#60;Path&#62;_18" d="M36.2713 28.6005C36.2713 36.2709 30.0289 42.4725 22.3993 42.4725C14.7289 42.4725 8.52734 36.2709 8.52734 28.6005C8.52734 20.9301 14.7289 14.7285 22.3993 14.7285C30.0289 14.7285 36.2713 20.9301 36.2713 28.6005Z" fill="#737373"/>
<path id="&#60;Path&#62;_19" d="M36.4754 28.3967C36.4754 36.0263 30.2738 42.2687 22.6034 42.2687C14.933 42.2687 8.73145 36.0263 8.73145 28.3967C8.73145 20.7263 14.933 14.5247 22.6034 14.5247C30.2738 14.5247 36.4754 20.7263 36.4754 28.3967Z" fill="#6B6B6B"/>
<path id="&#60;Path&#62;_20" d="M36.6793 28.1518C36.6793 35.8222 30.4777 42.0238 22.8481 42.0238C15.1777 42.0238 8.97607 35.8222 8.97607 28.1518C8.97607 20.4814 15.1777 14.2798 22.8481 14.2798C30.4777 14.2798 36.6793 20.4814 36.6793 28.1518Z" fill="#636363"/>
<path id="&#60;Path&#62;_21" d="M36.9242 27.9479C36.9242 35.5775 30.7226 41.8199 23.0522 41.8199C15.3818 41.8199 9.18018 35.5775 9.18018 27.9479C9.18018 20.2775 15.3818 14.0759 23.0522 14.0759C30.7226 14.0759 36.9242 20.2775 36.9242 27.9479Z" fill="#5A5A5A"/>
<path id="&#60;Path&#62;_22" d="M37.1283 27.7031C37.1283 35.3735 30.9267 41.5751 23.2563 41.5751C15.6267 41.5751 9.38428 35.3735 9.38428 27.7031C9.38428 20.0735 15.6267 13.8311 23.2563 13.8311C30.9267 13.8311 37.1283 20.0735 37.1283 27.7031Z" fill="#525252"/>
<path id="&#60;Path&#62;_23" d="M37.3729 27.4992C37.3729 35.1696 31.1713 41.3712 23.5009 41.3712C15.8305 41.3712 9.62891 35.1696 9.62891 27.4992C9.62891 19.8288 15.8305 13.6272 23.5009 13.6272C31.1713 13.6272 37.3729 19.8288 37.3729 27.4992Z" fill="#4A4A4A"/>
<path id="&#60;Path&#62;_24" d="M37.577 27.2543C37.577 34.9247 31.3754 41.1263 23.705 41.1263C16.0346 41.1263 9.83301 34.9247 9.83301 27.2543C9.83301 19.6247 16.0346 13.3823 23.705 13.3823C31.3754 13.3823 37.577 19.6247 37.577 27.2543Z" fill="#424242"/>
<path id="&#60;Path&#62;_25" d="M37.8216 27.0502C37.8216 34.7206 31.5792 40.9222 23.9496 40.9222C16.2792 40.9222 10.0776 34.7206 10.0776 27.0502C10.0776 19.3798 16.2792 13.1782 23.9496 13.1782C31.5792 13.1782 37.8216 19.3798 37.8216 27.0502Z" fill="#3A3A3A"/>
<path id="&#60;Path&#62;_26" d="M38.0257 26.8464C38.0257 34.476 31.8241 40.7184 24.1537 40.7184C16.4833 40.7184 10.2817 34.476 10.2817 26.8464C10.2817 19.176 16.4833 12.9744 24.1537 12.9744C31.8241 12.9744 38.0257 19.176 38.0257 26.8464Z" fill="#313131"/>
<path id="&#60;Path&#62;_27" d="M38.2296 26.6015C38.2296 34.2719 32.028 40.4735 24.3984 40.4735C16.728 40.4735 10.5264 34.2719 10.5264 26.6015C10.5264 18.9311 16.728 12.7295 24.3984 12.7295C32.028 12.7295 38.2296 18.9311 38.2296 26.6015Z" fill="#292929"/>
<path id="&#60;Path&#62;_28" d="M38.4745 26.3974C38.4745 34.027 32.2729 40.2694 24.6025 40.2694C16.9321 40.2694 10.7305 34.027 10.7305 26.3974C10.7305 18.727 16.9321 12.5254 24.6025 12.5254C32.2729 12.5254 38.4745 18.727 38.4745 26.3974Z" fill="#212121"/>
<path id="&#60;Path&#62;_29" d="M38.6786 26.1525C38.6786 33.8229 32.477 40.0245 24.8066 40.0245C17.177 40.0245 10.9346 33.8229 10.9346 26.1525C10.9346 18.5229 17.177 12.2805 24.8066 12.2805C32.477 12.2805 38.6786 18.5229 38.6786 26.1525Z" fill="#191919"/>
<path id="&#60;Path&#62;_30" d="M38.9232 25.9487C38.9232 33.6191 32.7216 39.8207 25.0512 39.8207C17.3808 39.8207 11.1792 33.6191 11.1792 25.9487C11.1792 18.2783 17.3808 12.0767 25.0512 12.0767C32.7216 12.0767 38.9232 18.2783 38.9232 25.9487Z" fill="#101010"/>
<path id="&#60;Path&#62;_31" d="M39.1273 25.7038C39.1273 33.3742 32.9257 39.5758 25.2553 39.5758C17.5849 39.5758 11.3833 33.3742 11.3833 25.7038C11.3833 18.0742 17.5849 11.8318 25.2553 11.8318C32.9257 11.8318 39.1273 18.0742 39.1273 25.7038Z" fill="#080808"/>
<path id="&#60;Path&#62;_32" d="M39.3719 25.4999C39.3719 33.1703 33.1295 39.3719 25.4999 39.3719C17.8295 39.3719 11.6279 33.1703 11.6279 25.4999C11.6279 17.8295 17.8295 11.6279 25.4999 11.6279C33.1295 11.6279 39.3719 17.8295 39.3719 25.4999Z" fill="black"/>
</g>
<g id="&#60;Group&#62;_3">
<path id="&#60;Path&#62;_33" d="M2.244 25.4998C2.244 25.0374 2.2576 24.575 2.2848 24.1126L0.0407994 23.9902C0.0135994 24.4798 0 24.983 0 25.4998C0 34.2718 4.4064 42.3502 11.8728 47.0422L13.056 45.1654C6.2832 40.8406 2.244 33.4966 2.244 25.4998Z" fill="url(#paint0_linear_94_2989)"/>
<path id="&#60;Path&#62;_34" d="M48.7154 25.5C48.7154 33.9456 44.105 41.7792 36.7202 45.8592L37.781 47.8584C45.941 43.3296 51.0002 34.8024 51.0002 25.5H48.7154Z" fill="url(#paint1_linear_94_2989)"/>
<path id="&#60;Path&#62;_35" d="M40.3921 4.7736C36.0265 1.6728 30.8857 0 25.5001 0C21.6649 0 17.9521 0.815999 14.5249 2.448L15.5041 4.488C18.6457 3.0192 21.9913 2.244 25.5001 2.244C30.3961 2.244 35.0881 3.7536 39.0457 6.6504L40.3921 4.7736Z" fill="url(#paint2_linear_94_2989)"/>
</g>
<g id="&#60;Group&#62;_4">
<path id="&#60;Path&#62;_36" d="M28.8866 8.16013L29.2946 5.95693C27.0914 5.50813 24.8474 5.46733 22.6442 5.79373C13.3418 7.14013 6.36504 14.6065 5.58984 23.9497L7.87464 24.1129C8.52744 15.8305 14.729 9.22093 22.9298 8.03773C24.929 7.75213 26.9282 7.79293 28.8866 8.16013Z" fill="url(#paint3_linear_94_2989)"/>
<path id="&#60;Path&#62;_37" d="M43.0036 23.0112C44.3908 32.64 37.6588 41.616 28.03 43.044C27.3772 43.1256 26.7108 43.18 26.0308 43.2072L26.1124 45.492C26.874 45.4648 27.622 45.3968 28.3564 45.288C39.25 43.6968 46.798 33.5376 45.2476 22.6848L43.0036 23.0112Z" fill="url(#paint4_linear_94_2989)"/>
</g>
<path id="&#60;Path&#62;_38" d="M39.3719 25.4999C39.3719 33.1703 33.1295 39.3719 25.4999 39.3719C17.8295 39.3719 11.6279 33.1703 11.6279 25.4999C11.6279 17.8295 17.8295 11.6279 25.4999 11.6279C33.1295 11.6279 39.3719 17.8295 39.3719 25.4999Z" fill="url(#paint5_linear_94_2989)"/>
<g id="&#60;Group&#62;_5">
<path id="&#60;Compound Path&#62;" fill-rule="evenodd" clip-rule="evenodd" d="M25.5002 40.8C17.0546 40.8 10.2002 33.9456 10.2002 25.5C10.2002 17.0544 17.0546 10.2 25.5002 10.2C33.905 10.2 40.7594 17.0544 40.7594 25.5C40.7594 33.9456 33.905 40.8 25.5002 40.8ZM25.5002 13.056C18.605 13.056 13.0154 18.6456 13.0154 25.5C13.0154 32.3544 18.605 37.944 25.5002 37.944C32.3546 37.944 37.9442 32.3544 37.9442 25.5C37.9442 18.6456 32.3546 13.056 25.5002 13.056Z" fill="white"/>
</g>
<g id="&#60;Group&#62;_6">
<path id="&#60;Compound Path&#62;_2" fill-rule="evenodd" clip-rule="evenodd" d="M22.644 30.7633C21.284 30.7633 20.264 30.2873 19.584 29.3353C18.904 28.4105 18.564 27.1729 18.564 25.6225C18.564 24.0721 18.904 22.8345 19.584 21.9097C20.264 20.9577 21.284 20.4817 22.644 20.4817C24.0312 20.4817 25.0648 20.9577 25.7448 21.9097C26.4248 22.8345 26.7648 24.0721 26.7648 25.6225C26.7648 27.1729 26.4248 28.4105 25.7448 29.3353C25.0648 30.2873 24.0312 30.7633 22.644 30.7633ZM21.216 23.2153C20.8896 23.8409 20.7264 24.6433 20.7264 25.6225C20.7264 26.6289 20.8896 27.4313 21.216 28.0297C21.5152 28.6281 21.9912 28.9273 22.644 28.9273C23.324 28.9273 23.8136 28.6281 24.1128 28.0297C24.4392 27.4313 24.6024 26.6289 24.6024 25.6225C24.6024 24.6433 24.4392 23.8409 24.1128 23.2153C23.8136 22.6169 23.324 22.3177 22.644 22.3177C21.9912 22.3177 21.5152 22.6169 21.216 23.2153Z" fill="white"/>
<path id="&#60;Compound Path&#62;_3" d="M27.4175 20.7266H31.4159V30.641H29.2943V22.6034H27.4175V20.7266Z" fill="white"/>
</g>
</g>
<defs>
<linearGradient id="paint0_linear_94_2989" x1="-13.1003" y1="155.821" x2="32.0156" y2="149.251" gradientUnits="userSpaceOnUse">
<stop stop-color="#F8B45B"/>
<stop offset="1" stop-color="#F8B45B"/>
</linearGradient>
<linearGradient id="paint1_linear_94_2989" x1="22.3918" y1="153.364" x2="71.4605" y2="145.307" gradientUnits="userSpaceOnUse">
<stop stop-color="#F8B45B"/>
<stop offset="1" stop-color="#F8B45B"/>
</linearGradient>
<linearGradient id="paint2_linear_94_2989" x1="-11.43" y1="38.0325" x2="34.2105" y2="-7.60798" gradientUnits="userSpaceOnUse">
<stop stop-color="#F8B45B"/>
<stop offset="1" stop-color="#F8B45B"/>
</linearGradient>
<linearGradient id="paint3_linear_94_2989" x1="-18.1953" y1="111.569" x2="57.2922" y2="86.7456" gradientUnits="userSpaceOnUse">
<stop stop-color="#F8B45B"/>
<stop offset="1" stop-color="#F8B45B"/>
</linearGradient>
<linearGradient id="paint4_linear_94_2989" x1="6.54625" y1="153.115" x2="71.9381" y2="138.801" gradientUnits="userSpaceOnUse">
<stop stop-color="#F8B45B"/>
<stop offset="1" stop-color="#F8B45B"/>
</linearGradient>
<linearGradient id="paint5_linear_94_2989" x1="-16.2102" y1="170.291" x2="75.6236" y2="146.681" gradientUnits="userSpaceOnUse">
<stop stop-color="#F8B45B"/>
<stop offset="1" stop-color="#F8B45B"/>
</linearGradient>
</defs>
</svg>
