<svg width="51" height="48" viewBox="0 0 51 48" fill="none" xmlns="http://www.w3.org/2000/svg">
<g id="&#60;Group&#62;">
<g id="&#60;Group&#62;_2" style="mix-blend-mode:multiply" opacity="0.3">
<path id="&#60;Path&#62;" d="M32.5174 32.3554C32.5174 40.026 26.3158 46.2278 18.6454 46.2278C10.975 46.2278 4.77344 40.026 4.77344 32.3554C4.77344 24.7255 10.975 18.4829 18.6454 18.4829C26.3158 18.4829 32.5174 24.7255 32.5174 32.3554Z" fill="white"/>
<path id="&#60;Path&#62;_2" d="M32.7215 32.1515C32.7215 39.8222 26.5199 46.024 18.8495 46.024C11.1791 46.024 4.97754 39.8222 4.97754 32.1515C4.97754 24.4809 11.1791 18.2791 18.8495 18.2791C26.5199 18.2791 32.7215 24.4809 32.7215 32.1515Z" fill="#F7F7F7"/>
<path id="&#60;Path&#62;_3" d="M32.9662 31.9066C32.9662 39.5773 26.7238 45.7791 19.0942 45.7791C11.4238 45.7791 5.22217 39.5773 5.22217 31.9066C5.22217 24.2768 11.4238 18.075 19.0942 18.075C26.7238 18.075 32.9662 24.2768 32.9662 31.9066Z" fill="#EFEFEF"/>
<path id="&#60;Path&#62;_4" d="M33.1703 31.7028C33.1703 39.3734 26.9687 45.5752 19.2983 45.5752C11.6279 45.5752 5.42627 39.3734 5.42627 31.7028C5.42627 24.0321 11.6279 17.8303 19.2983 17.8303C26.9687 17.8303 33.1703 24.0321 33.1703 31.7028Z" fill="#E6E6E6"/>
<path id="&#60;Path&#62;_5" d="M33.3741 31.4987C33.3741 39.1285 27.1725 45.3711 19.5021 45.3711C11.8725 45.3711 5.6709 39.1285 5.6709 31.4987C5.6709 23.828 11.8725 17.6262 19.5021 17.6262C27.1725 17.6262 33.3741 23.828 33.3741 31.4987Z" fill="#DEDEDE"/>
<path id="&#60;Path&#62;_6" d="M33.619 31.2538C33.619 38.9245 27.4174 45.1263 19.747 45.1263C12.0766 45.1263 5.875 38.9245 5.875 31.2538C5.875 23.5832 12.0766 17.3813 19.747 17.3813C27.4174 17.3813 33.619 23.5832 33.619 31.2538Z" fill="#D6D6D6"/>
<path id="&#60;Path&#62;_7" d="M33.8231 31.0497C33.8231 38.7204 27.6215 44.9222 19.9511 44.9222C12.3215 44.9222 6.0791 38.7204 6.0791 31.0497C6.0791 23.3791 12.3215 17.1772 19.9511 17.1772C27.6215 17.1772 33.8231 23.3791 33.8231 31.0497Z" fill="#CECECE"/>
<path id="&#60;Path&#62;_8" d="M34.0677 30.8051C34.0677 38.4757 27.8661 44.6775 20.1957 44.6775C12.5253 44.6775 6.32373 38.4757 6.32373 30.8051C6.32373 23.1752 12.5253 16.9326 20.1957 16.9326C27.8661 16.9326 34.0677 23.1752 34.0677 30.8051Z" fill="#C5C5C5"/>
<path id="&#60;Path&#62;_9" d="M34.2718 30.601C34.2718 38.2716 28.0702 44.4734 20.3998 44.4734C12.7294 44.4734 6.52783 38.2716 6.52783 30.601C6.52783 22.9303 12.7294 16.7285 20.3998 16.7285C28.0702 16.7285 34.2718 22.9303 34.2718 30.601Z" fill="#BDBDBD"/>
<path id="&#60;Path&#62;_10" d="M34.5165 30.3561C34.5165 38.0268 28.2741 44.2286 20.6445 44.2286C12.9741 44.2286 6.77246 38.0268 6.77246 30.3561C6.77246 22.7263 12.9741 16.4836 20.6445 16.4836C28.2741 16.4836 34.5165 22.7263 34.5165 30.3561Z" fill="#B5B5B5"/>
<path id="&#60;Path&#62;_11" d="M34.7206 30.1523C34.7206 37.8229 28.519 44.0247 20.8486 44.0247C13.1782 44.0247 6.97656 37.8229 6.97656 30.1523C6.97656 22.4816 13.1782 16.2798 20.8486 16.2798C28.519 16.2798 34.7206 22.4816 34.7206 30.1523Z" fill="#ADADAD"/>
<path id="&#60;Path&#62;_12" d="M34.9249 29.9482C34.9249 37.578 28.7233 43.8206 21.0937 43.8206C13.4233 43.8206 7.22168 37.578 7.22168 29.9482C7.22168 22.2775 13.4233 16.0757 21.0937 16.0757C28.7233 16.0757 34.9249 22.2775 34.9249 29.9482Z" fill="#A5A5A5"/>
<path id="&#60;Path&#62;_13" d="M35.1693 29.7033C35.1693 37.3739 28.9677 43.5757 21.2973 43.5757C13.6269 43.5757 7.42529 37.3739 7.42529 29.7033C7.42529 22.0326 13.6269 15.8308 21.2973 15.8308C28.9677 15.8308 35.1693 22.0326 35.1693 29.7033Z" fill="#9C9C9C"/>
<path id="&#60;Path&#62;_14" d="M35.3734 29.4994C35.3734 37.1293 29.1718 43.3719 21.5014 43.3719C13.8718 43.3719 7.62939 37.1293 7.62939 29.4994C7.62939 21.8288 13.8718 15.627 21.5014 15.627C29.1718 15.627 35.3734 21.8288 35.3734 29.4994Z" fill="#949494"/>
<path id="&#60;Path&#62;_15" d="M35.618 29.2545C35.618 36.9252 29.4164 43.127 21.746 43.127C14.0756 43.127 7.87402 36.9252 7.87402 29.2545C7.87402 21.6247 14.0756 15.3821 21.746 15.3821C29.4164 15.3821 35.618 21.6247 35.618 29.2545Z" fill="#8C8C8C"/>
<path id="&#60;Path&#62;_16" d="M35.8221 29.0507C35.8221 36.7213 29.6205 42.9231 21.9501 42.9231C14.2797 42.9231 8.07812 36.7213 8.07812 29.0507C8.07812 21.38 14.2797 15.1782 21.9501 15.1782C29.6205 15.1782 35.8221 21.38 35.8221 29.0507Z" fill="#848484"/>
<path id="&#60;Path&#62;_17" d="M36.0672 28.8058C36.0672 36.4765 29.8248 42.6783 22.1952 42.6783C14.5248 42.6783 8.32324 36.4765 8.32324 28.8058C8.32324 21.176 14.5248 14.9333 22.1952 14.9333C29.8248 14.9333 36.0672 21.176 36.0672 28.8058Z" fill="#7B7B7B"/>
<path id="&#60;Path&#62;_18" d="M36.2709 28.6017C36.2709 36.2724 30.0693 42.4742 22.3989 42.4742C14.7285 42.4742 8.52686 36.2724 8.52686 28.6017C8.52686 20.9311 14.7285 14.7292 22.3989 14.7292C30.0693 14.7292 36.2709 20.9311 36.2709 28.6017Z" fill="#737373"/>
<path id="&#60;Path&#62;_19" d="M36.4752 28.3979C36.4752 36.0277 30.2736 42.2703 22.644 42.2703C14.9736 42.2703 8.77197 36.0277 8.77197 28.3979C8.77197 20.7272 14.9736 14.5254 22.644 14.5254C30.2736 14.5254 36.4752 20.7272 36.4752 28.3979Z" fill="#6B6B6B"/>
<path id="&#60;Path&#62;_20" d="M36.7196 28.153C36.7196 35.8236 30.518 42.0254 22.8476 42.0254C15.1772 42.0254 8.97559 35.8236 8.97559 28.153C8.97559 20.4823 15.1772 14.2805 22.8476 14.2805C30.518 14.2805 36.7196 20.4823 36.7196 28.153Z" fill="#636363"/>
<path id="&#60;Path&#62;_21" d="M36.9237 27.9489C36.9237 35.5787 30.7221 41.8213 23.0517 41.8213C15.4221 41.8213 9.17969 35.5787 9.17969 27.9489C9.17969 20.2782 15.4221 14.0764 23.0517 14.0764C30.7221 14.0764 36.9237 20.2782 36.9237 27.9489Z" fill="#5A5A5A"/>
<path id="&#60;Path&#62;_22" d="M37.1688 27.7043C37.1688 35.3749 30.9672 41.5767 23.2968 41.5767C15.6264 41.5767 9.4248 35.3749 9.4248 27.7043C9.4248 20.0744 15.6264 13.8318 23.2968 13.8318C30.9672 13.8318 37.1688 20.0744 37.1688 27.7043Z" fill="#525252"/>
<path id="&#60;Path&#62;_23" d="M37.3729 27.5002C37.3729 35.1708 31.1713 41.3726 23.5009 41.3726C15.8305 41.3726 9.62891 35.1708 9.62891 27.5002C9.62891 19.8295 15.8305 13.6277 23.5009 13.6277C31.1713 13.6277 37.3729 19.8295 37.3729 27.5002Z" fill="#4A4A4A"/>
<path id="&#60;Path&#62;_24" d="M37.6175 27.2553C37.6175 34.9259 31.3751 41.1277 23.7455 41.1277C16.0751 41.1277 9.87354 34.9259 9.87354 27.2553C9.87354 19.6254 16.0751 13.3828 23.7455 13.3828C31.3751 13.3828 37.6175 19.6254 37.6175 27.2553Z" fill="#424242"/>
<path id="&#60;Path&#62;_25" d="M37.8216 27.0514C37.8216 34.7221 31.62 40.9239 23.9496 40.9239C16.2792 40.9239 10.0776 34.7221 10.0776 27.0514C10.0776 19.3808 16.2792 13.179 23.9496 13.179C31.62 13.179 37.8216 19.3808 37.8216 27.0514Z" fill="#3A3A3A"/>
<path id="&#60;Path&#62;_26" d="M38.0255 26.8473C38.0255 34.4772 31.8239 40.7198 24.1943 40.7198C16.5239 40.7198 10.3223 34.4772 10.3223 26.8473C10.3223 19.1767 16.5239 12.9749 24.1943 12.9749C31.8239 12.9749 38.0255 19.1767 38.0255 26.8473Z" fill="#313131"/>
<path id="&#60;Path&#62;_27" d="M38.2704 26.6024C38.2704 34.2731 32.0688 40.4749 24.3984 40.4749C16.728 40.4749 10.5264 34.2731 10.5264 26.6024C10.5264 18.9318 16.728 12.73 24.3984 12.73C32.0688 12.73 38.2704 18.9318 38.2704 26.6024Z" fill="#292929"/>
<path id="&#60;Path&#62;_28" d="M38.4745 26.3986C38.4745 34.0284 32.2729 40.271 24.6025 40.271C16.9729 40.271 10.7305 34.0284 10.7305 26.3986C10.7305 18.7279 16.9729 12.5261 24.6025 12.5261C32.2729 12.5261 38.4745 18.7279 38.4745 26.3986Z" fill="#212121"/>
<path id="&#60;Path&#62;_29" d="M38.7191 26.1537C38.7191 33.8244 32.5175 40.0262 24.8471 40.0262C17.1767 40.0262 10.9751 33.8244 10.9751 26.1537C10.9751 18.5239 17.1767 12.2812 24.8471 12.2812C32.5175 12.2812 38.7191 18.5239 38.7191 26.1537Z" fill="#191919"/>
<path id="&#60;Path&#62;_30" d="M38.9232 25.9496C38.9232 33.6203 32.7216 39.8221 25.0512 39.8221C17.3808 39.8221 11.1792 33.6203 11.1792 25.9496C11.1792 18.279 17.3808 12.0771 25.0512 12.0771C32.7216 12.0771 38.9232 18.279 38.9232 25.9496Z" fill="#101010"/>
<path id="&#60;Path&#62;_31" d="M39.1678 25.7047C39.1678 33.3754 32.9254 39.5772 25.2958 39.5772C17.6254 39.5772 11.4238 33.3754 11.4238 25.7047C11.4238 18.0749 17.6254 11.8323 25.2958 11.8323C32.9254 11.8323 39.1678 18.0749 39.1678 25.7047Z" fill="#080808"/>
<path id="&#60;Path&#62;_32" d="M39.3719 25.5009C39.3719 33.1715 33.1703 39.3733 25.4999 39.3733C17.8295 39.3733 11.6279 33.1715 11.6279 25.5009C11.6279 17.8302 17.8295 11.6284 25.4999 11.6284C33.1703 11.6284 39.3719 17.8302 39.3719 25.5009Z" fill="black"/>
</g>
<g id="&#60;Group&#62;_3">
<path id="&#60;Path&#62;_33" d="M2.244 25.5009C2.244 25.0384 2.2576 24.576 2.2848 24.1136L0.0408025 23.9912C0.0136025 24.4808 0 24.984 0 25.5009C0 34.2732 4.4472 42.3518 11.8728 47.044L13.0968 45.1671C6.324 40.8422 2.244 33.4979 2.244 25.5009Z" fill="url(#paint0_linear_94_3087)"/>
<path id="&#60;Path&#62;_34" d="M48.7557 25.5007C48.7557 33.9466 44.1453 41.7805 36.7197 45.8606L37.8213 47.8599C45.9405 43.3309 50.9997 34.8034 50.9997 25.5007H48.7557Z" fill="url(#paint1_linear_94_3087)"/>
<path id="&#60;Path&#62;_35" d="M40.3918 4.77376C36.0262 1.67286 30.8854 0 25.4998 0C21.6646 0 17.9926 0.816026 14.5654 2.44808L15.5446 4.48815C18.6454 3.0193 22.0318 2.24407 25.4998 2.24407C30.3958 2.24407 35.0878 3.75373 39.0862 6.65062L40.3918 4.77376Z" fill="url(#paint2_linear_94_3087)"/>
</g>
<g id="&#60;Group&#62;_4">
<path id="&#60;Path&#62;_36" d="M28.8864 8.16022L29.3352 5.95695C27.132 5.50813 24.888 5.46733 22.644 5.79374C13.3824 7.14019 6.36477 14.6068 5.63037 23.9503L7.87437 24.1136C8.52717 15.8309 14.7288 9.22106 22.9704 8.03782C24.9696 7.75221 26.928 7.79301 28.8864 8.16022Z" fill="url(#paint3_linear_94_3087)"/>
<path id="&#60;Path&#62;_37" d="M43.0033 23.012C44.3905 32.6411 37.6993 41.6174 28.0297 43.0454C27.3769 43.127 26.7241 43.1814 26.0713 43.2086L26.1529 45.4935C26.8873 45.4663 27.6217 45.3983 28.3561 45.2895C39.2497 43.6982 46.8385 33.5387 45.2473 22.6855L43.0033 23.012Z" fill="url(#paint4_linear_94_3087)"/>
</g>
<path id="&#60;Path&#62;_38" d="M39.3719 25.5009C39.3719 33.1715 33.1703 39.3733 25.4999 39.3733C17.8295 39.3733 11.6279 33.1715 11.6279 25.5009C11.6279 17.8302 17.8295 11.6284 25.4999 11.6284C33.1703 11.6284 39.3719 17.8302 39.3719 25.5009Z" fill="url(#paint5_linear_94_3087)"/>
<g id="&#60;Group&#62;_5">
<path id="&#60;Compound Path&#62;" fill-rule="evenodd" clip-rule="evenodd" d="M25.5002 40.8015C17.0954 40.8015 10.2002 33.9468 10.2002 25.501C10.2002 17.0551 17.0954 10.2004 25.5002 10.2004C33.9458 10.2004 40.8002 17.0551 40.8002 25.501C40.8002 33.9468 33.9458 40.8015 25.5002 40.8015ZM25.5002 13.0565C18.6458 13.0565 13.0562 18.6463 13.0562 25.501C13.0562 32.3556 18.6458 37.9454 25.5002 37.9454C32.3546 37.9454 37.9442 32.3556 37.9442 25.501C37.9442 18.6463 32.3546 13.0565 25.5002 13.0565Z" fill="white"/>
</g>
<g id="&#60;Group&#62;_6">
<path id="&#60;Compound Path&#62;_2" fill-rule="evenodd" clip-rule="evenodd" d="M21.3383 30.7641C19.9783 30.7641 18.9583 30.2881 18.2783 29.3361C17.5983 28.4112 17.2583 27.1736 17.2583 25.6231C17.2583 24.0727 17.5983 22.8351 18.2783 21.9102C18.9583 20.9582 19.9783 20.4822 21.3383 20.4822C22.7255 20.4822 23.7591 20.9582 24.4391 21.9102C25.1191 22.8351 25.4591 24.0727 25.4591 25.6231C25.4591 27.1736 25.1191 28.4112 24.4391 29.3361C23.7591 30.2881 22.7255 30.7641 21.3383 30.7641ZM19.8695 23.2159C19.5703 23.8415 19.4207 24.6439 19.4207 25.6231C19.4207 26.6296 19.5703 27.432 19.8695 28.0304C20.1959 28.6288 20.6855 28.9281 21.3383 28.9281C21.9911 28.9281 22.4807 28.6288 22.8071 28.0304C23.1063 27.432 23.2559 26.6296 23.2559 25.6231C23.2559 24.6439 23.1063 23.8415 22.8071 23.2159C22.4807 22.6174 21.9911 22.3182 21.3383 22.3182C20.6855 22.3182 20.1959 22.6174 19.8695 23.2159Z" fill="white"/>
<path id="&#60;Compound Path&#62;_3" d="M26.7238 22.6039V20.7271H32.803V22.2367L30.763 24.5624C31.5518 24.6984 32.1638 25.0384 32.599 25.5824C33.0342 26.0992 33.2518 26.7112 33.2518 27.4185C33.2518 28.4521 32.8982 29.2681 32.191 29.8666C31.511 30.465 30.6133 30.7642 29.4981 30.7642C28.4101 30.7642 27.3086 30.3698 26.1934 29.5809L27.091 27.8265C28.0158 28.4793 28.8454 28.8057 29.5798 28.8057C30.0422 28.8057 30.4094 28.6969 30.6814 28.4793C30.9806 28.2617 31.1301 27.9489 31.1301 27.5409C31.1301 27.1329 30.967 26.8065 30.6406 26.5616C30.3142 26.3168 29.8518 26.1944 29.2534 26.1944C28.9542 26.1944 28.519 26.2896 27.9478 26.48V24.848L29.8246 22.6039H26.7238Z" fill="white"/>
</g>
</g>
<defs>
<linearGradient id="paint0_linear_94_3087" x1="-13.1412" y1="155.826" x2="32.1098" y2="149.217" gradientUnits="userSpaceOnUse">
<stop stop-color="#F8B45B"/>
<stop offset="1" stop-color="#F8B45B"/>
</linearGradient>
<linearGradient id="paint1_linear_94_3087" x1="22.3913" y1="153.369" x2="71.4601" y2="145.312" gradientUnits="userSpaceOnUse">
<stop stop-color="#F8B45B"/>
<stop offset="1" stop-color="#F8B45B"/>
</linearGradient>
<linearGradient id="paint2_linear_94_3087" x1="-35.8145" y1="5.21503" x2="-32.4229" y2="-15.4062" gradientUnits="userSpaceOnUse">
<stop stop-color="#F8B45B"/>
<stop offset="1" stop-color="#F8B45B" stop-opacity="0.89"/>
</linearGradient>
<linearGradient id="paint3_linear_94_3087" x1="-18.1548" y1="111.572" x2="57.3332" y2="86.7498" gradientUnits="userSpaceOnUse">
<stop stop-color="#F8B45B"/>
<stop offset="1" stop-color="#F8B45B"/>
</linearGradient>
<linearGradient id="paint4_linear_94_3087" x1="6.61869" y1="153.12" x2="71.9134" y2="138.851" gradientUnits="userSpaceOnUse">
<stop stop-color="#F8B45B"/>
<stop offset="1" stop-color="#F8B45B"/>
</linearGradient>
<linearGradient id="paint5_linear_94_3087" x1="-16.2102" y1="170.297" x2="75.624" y2="146.687" gradientUnits="userSpaceOnUse">
<stop stop-color="#F8B45B"/>
<stop offset="1" stop-color="#F8B45B"/>
</linearGradient>
</defs>
</svg>
