<svg width="51" height="48" viewBox="0 0 51 48" fill="none" xmlns="http://www.w3.org/2000/svg">
<g id="&#60;Group&#62;">
<g id="&#60;Group&#62;_2" style="mix-blend-mode:multiply" opacity="0.3">
<path id="&#60;Path&#62;" d="M32.4769 32.3828C32.4769 40.06 26.2753 46.2671 18.6049 46.2671C10.9753 46.2671 4.73291 40.06 4.73291 32.3828C4.73291 24.7056 10.9753 18.4985 18.6049 18.4985C26.2753 18.4985 32.4769 24.7056 32.4769 32.3828Z" fill="white"/>
<path id="&#60;Path&#62;_2" d="M32.7215 32.1787C32.7215 39.8151 26.5199 46.063 18.8495 46.063C11.1791 46.063 4.97754 39.8151 4.97754 32.1787C4.97754 24.5015 11.1791 18.2944 18.8495 18.2944C26.5199 18.2944 32.7215 24.5015 32.7215 32.1787Z" fill="#F7F7F7"/>
<path id="&#60;Path&#62;_3" d="M32.9256 31.9336C32.9256 39.6108 26.724 45.8179 19.0536 45.8179C11.3832 45.8179 5.18164 39.6108 5.18164 31.9336C5.18164 24.2564 11.3832 18.0493 19.0536 18.0493C26.724 18.0493 32.9256 24.2564 32.9256 31.9336Z" fill="#EFEFEF"/>
<path id="&#60;Path&#62;_4" d="M33.1708 31.7295C33.1708 39.4067 26.9284 45.6138 19.2988 45.6138C11.6284 45.6138 5.42676 39.4067 5.42676 31.7295C5.42676 24.0523 11.6284 17.8452 19.2988 17.8452C26.9284 17.8452 33.1708 24.0523 33.1708 31.7295Z" fill="#E6E6E6"/>
<path id="&#60;Path&#62;_5" d="M33.3744 31.4844C33.3744 39.1616 27.1728 45.3687 19.5024 45.3687C11.832 45.3687 5.63037 39.1616 5.63037 31.4844C5.63037 23.848 11.832 17.6001 19.5024 17.6001C27.1728 17.6001 33.3744 23.848 33.3744 31.4844Z" fill="#DEDEDE"/>
<path id="&#60;Path&#62;_6" d="M33.5787 31.2803C33.5787 38.9575 27.3771 45.1646 19.7067 45.1646C12.0771 45.1646 5.87549 38.9575 5.87549 31.2803C5.87549 23.6031 12.0771 17.396 19.7067 17.396C27.3771 17.396 33.5787 23.6031 33.5787 31.2803Z" fill="#D6D6D6"/>
<path id="&#60;Path&#62;_7" d="M33.8231 31.0762C33.8231 38.7126 27.6215 44.9197 19.9511 44.9197C12.2807 44.9197 6.0791 38.7126 6.0791 31.0762C6.0791 23.399 12.2807 17.1919 19.9511 17.1919C27.6215 17.1919 33.8231 23.399 33.8231 31.0762Z" fill="#CECECE"/>
<path id="&#60;Path&#62;_8" d="M34.0272 30.8311C34.0272 38.5083 27.8256 44.7154 20.1552 44.7154C12.5256 44.7154 6.2832 38.5083 6.2832 30.8311C6.2832 23.1539 12.5256 16.9468 20.1552 16.9468C27.8256 16.9468 34.0272 23.1539 34.0272 30.8311Z" fill="#C5C5C5"/>
<path id="&#60;Path&#62;_9" d="M34.2723 30.627C34.2723 38.2633 28.0707 44.5113 20.4003 44.5113C12.7299 44.5113 6.52832 38.2633 6.52832 30.627C6.52832 22.9498 12.7299 16.7427 20.4003 16.7427C28.0707 16.7427 34.2723 22.9498 34.2723 30.627Z" fill="#BDBDBD"/>
<path id="&#60;Path&#62;_10" d="M34.4759 30.3819C34.4759 38.0591 28.2743 44.2662 20.6039 44.2662C12.9335 44.2662 6.73193 38.0591 6.73193 30.3819C6.73193 22.7047 12.9335 16.4976 20.6039 16.4976C28.2743 16.4976 34.4759 22.7047 34.4759 30.3819Z" fill="#B5B5B5"/>
<path id="&#60;Path&#62;_11" d="M34.721 30.1778C34.721 37.855 28.4786 44.0621 20.849 44.0621C13.1787 44.0621 6.97705 37.855 6.97705 30.1778C6.97705 22.5006 13.1787 16.2935 20.849 16.2935C28.4786 16.2935 34.721 22.5006 34.721 30.1778Z" fill="#ADADAD"/>
<path id="&#60;Path&#62;_12" d="M34.9247 29.9326C34.9247 37.6098 28.7231 43.8169 21.0527 43.8169C13.3823 43.8169 7.18066 37.6098 7.18066 29.9326C7.18066 22.2963 13.3823 16.0483 21.0527 16.0483C28.7231 16.0483 34.9247 22.2963 34.9247 29.9326Z" fill="#A5A5A5"/>
<path id="&#60;Path&#62;_13" d="M35.129 29.7285C35.129 37.4057 28.9274 43.6128 21.257 43.6128C13.6274 43.6128 7.42578 37.4057 7.42578 29.7285C7.42578 22.0513 13.6274 15.8442 21.257 15.8442C28.9274 15.8442 35.129 22.0513 35.129 29.7285Z" fill="#9C9C9C"/>
<path id="&#60;Path&#62;_14" d="M35.3739 29.5244C35.3739 37.1608 29.1723 43.3679 21.5019 43.3679C13.8315 43.3679 7.62988 37.1608 7.62988 29.5244C7.62988 21.8472 13.8315 15.6401 21.5019 15.6401C29.1723 15.6401 35.3739 21.8472 35.3739 29.5244Z" fill="#949494"/>
<path id="&#60;Path&#62;_15" d="M35.5775 29.2793C35.5775 36.9565 29.3759 43.1636 21.7055 43.1636C14.0759 43.1636 7.8335 36.9565 7.8335 29.2793C7.8335 21.6021 14.0759 15.395 21.7055 15.395C29.3759 15.395 35.5775 21.6021 35.5775 29.2793Z" fill="#8C8C8C"/>
<path id="&#60;Path&#62;_16" d="M35.8226 29.0752C35.8226 36.7116 29.621 42.9595 21.9506 42.9595C14.2802 42.9595 8.07861 36.7116 8.07861 29.0752C8.07861 21.398 14.2802 15.1909 21.9506 15.1909C29.621 15.1909 35.8226 21.398 35.8226 29.0752Z" fill="#848484"/>
<path id="&#60;Path&#62;_17" d="M36.0267 28.8301C36.0267 36.5073 29.8251 42.7144 22.1547 42.7144C14.4843 42.7144 8.28271 36.5073 8.28271 28.8301C8.28271 21.1529 14.4843 14.9458 22.1547 14.9458C29.8251 14.9458 36.0267 21.1529 36.0267 28.8301Z" fill="#7B7B7B"/>
<path id="&#60;Path&#62;_18" d="M36.2713 28.626C36.2713 36.3032 30.0289 42.5103 22.3993 42.5103C14.7289 42.5103 8.52734 36.3032 8.52734 28.626C8.52734 20.9488 14.7289 14.7417 22.3993 14.7417C30.0289 14.7417 36.2713 20.9488 36.2713 28.626Z" fill="#737373"/>
<path id="&#60;Path&#62;_19" d="M36.4754 28.3809C36.4754 36.0581 30.2738 42.2652 22.6034 42.2652C14.933 42.2652 8.73145 36.0581 8.73145 28.3809C8.73145 20.7445 14.933 14.4966 22.6034 14.4966C30.2738 14.4966 36.4754 20.7445 36.4754 28.3809Z" fill="#6B6B6B"/>
<path id="&#60;Path&#62;_20" d="M36.6793 28.1768C36.6793 35.854 30.4777 42.0611 22.8481 42.0611C15.1777 42.0611 8.97607 35.854 8.97607 28.1768C8.97607 20.4996 15.1777 14.2925 22.8481 14.2925C30.4777 14.2925 36.6793 20.4996 36.6793 28.1768Z" fill="#636363"/>
<path id="&#60;Path&#62;_21" d="M36.9242 27.9318C36.9242 35.609 30.7226 41.8161 23.0522 41.8161C15.3818 41.8161 9.18018 35.609 9.18018 27.9318C9.18018 20.2955 15.3818 14.0884 23.0522 14.0884C30.7226 14.0884 36.9242 20.2955 36.9242 27.9318Z" fill="#5A5A5A"/>
<path id="&#60;Path&#62;_22" d="M37.1283 27.7276C37.1283 35.4048 30.9267 41.6119 23.2563 41.6119C15.6267 41.6119 9.38428 35.4048 9.38428 27.7276C9.38428 20.0504 15.6267 13.8433 23.2563 13.8433C30.9267 13.8433 37.1283 20.0504 37.1283 27.7276Z" fill="#525252"/>
<path id="&#60;Path&#62;_23" d="M37.3729 27.5235C37.3729 35.1598 31.1713 41.4078 23.5009 41.4078C15.8305 41.4078 9.62891 35.1598 9.62891 27.5235C9.62891 19.8463 15.8305 13.6392 23.5009 13.6392C31.1713 13.6392 37.3729 19.8463 37.3729 27.5235Z" fill="#4A4A4A"/>
<path id="&#60;Path&#62;_24" d="M37.577 27.2783C37.577 34.9555 31.3754 41.1626 23.705 41.1626C16.0346 41.1626 9.83301 34.9555 9.83301 27.2783C9.83301 19.6011 16.0346 13.394 23.705 13.394C31.3754 13.394 37.577 19.6011 37.577 27.2783Z" fill="#424242"/>
<path id="&#60;Path&#62;_25" d="M37.8216 27.0742C37.8216 34.7514 31.5792 40.9585 23.9496 40.9585C16.2792 40.9585 10.0776 34.7514 10.0776 27.0742C10.0776 19.397 16.2792 13.1899 23.9496 13.1899C31.5792 13.1899 37.8216 19.397 37.8216 27.0742Z" fill="#3A3A3A"/>
<path id="&#60;Path&#62;_26" d="M38.0257 26.8291C38.0257 34.5063 31.8241 40.7134 24.1537 40.7134C16.4833 40.7134 10.2817 34.5063 10.2817 26.8291C10.2817 19.1928 16.4833 12.9448 24.1537 12.9448C31.8241 12.9448 38.0257 19.1928 38.0257 26.8291Z" fill="#313131"/>
<path id="&#60;Path&#62;_27" d="M38.2296 26.625C38.2296 34.3022 32.028 40.5093 24.3984 40.5093C16.728 40.5093 10.5264 34.3022 10.5264 26.625C10.5264 18.9478 16.728 12.7407 24.3984 12.7407C32.028 12.7407 38.2296 18.9478 38.2296 26.625Z" fill="#292929"/>
<path id="&#60;Path&#62;_28" d="M38.4745 26.3801C38.4745 34.0573 32.2729 40.2644 24.6025 40.2644C16.9321 40.2644 10.7305 34.0573 10.7305 26.3801C10.7305 18.7437 16.9321 12.5366 24.6025 12.5366C32.2729 12.5366 38.4745 18.7437 38.4745 26.3801Z" fill="#212121"/>
<path id="&#60;Path&#62;_29" d="M38.6786 26.1758C38.6786 33.853 32.477 40.0601 24.8066 40.0601C17.177 40.0601 10.9346 33.853 10.9346 26.1758C10.9346 18.4986 17.177 12.2915 24.8066 12.2915C32.477 12.2915 38.6786 18.4986 38.6786 26.1758Z" fill="#191919"/>
<path id="&#60;Path&#62;_30" d="M38.9232 25.9717C38.9232 33.6081 32.7216 39.856 25.0512 39.856C17.3808 39.856 11.1792 33.6081 11.1792 25.9717C11.1792 18.2945 17.3808 12.0874 25.0512 12.0874C32.7216 12.0874 38.9232 18.2945 38.9232 25.9717Z" fill="#101010"/>
<path id="&#60;Path&#62;_31" d="M39.1273 25.7266C39.1273 33.4038 32.9257 39.6109 25.2553 39.6109C17.5849 39.6109 11.3833 33.4038 11.3833 25.7266C11.3833 18.0494 17.5849 11.8423 25.2553 11.8423C32.9257 11.8423 39.1273 18.0494 39.1273 25.7266Z" fill="#080808"/>
<path id="&#60;Path&#62;_32" d="M39.3719 25.5225C39.3719 33.1997 33.1295 39.4068 25.4999 39.4068C17.8295 39.4068 11.6279 33.1997 11.6279 25.5225C11.6279 17.8453 17.8295 11.6382 25.4999 11.6382C33.1295 11.6382 39.3719 17.8453 39.3719 25.5225Z" fill="black"/>
</g>
<g id="&#60;Group&#62;_3">
<path id="&#60;Path&#62;_33" d="M2.244 25.5225C2.244 25.0597 2.2576 24.5969 2.2848 24.134L0.0407994 23.9707C0.0135994 24.488 0 25.0052 0 25.5225C0 34.3023 4.4064 42.3878 11.8728 47.084L13.056 45.1647C6.2832 40.8769 2.244 33.5264 2.244 25.5225Z" fill="url(#paint0_linear_94_3185)"/>
<path id="&#60;Path&#62;_34" d="M48.7149 25.5225C48.7149 33.9755 44.1045 41.7753 36.7197 45.8997L37.7805 47.8599C45.9405 43.3679 50.9997 34.7923 50.9997 25.5225H48.7149Z" fill="url(#paint1_linear_94_3185)"/>
<path id="&#60;Path&#62;_35" d="M40.3921 4.77784C36.0265 1.63345 30.8857 0 25.5001 0C21.6649 0 17.9521 0.816723 14.5249 2.45017L15.5041 4.49198C18.6457 3.02188 21.9913 2.24599 25.5001 2.24599C30.3961 2.24599 35.0881 3.75693 39.0457 6.61547L40.3921 4.77784Z" fill="url(#paint2_linear_94_3185)"/>
</g>
<g id="&#60;Group&#62;_4">
<path id="&#60;Path&#62;_36" d="M28.8866 8.1673L29.2946 5.96215C27.0914 5.51295 24.8474 5.47212 22.6442 5.79881C13.3418 7.1464 6.36504 14.6194 5.58984 23.9301L7.87464 24.1342C8.52744 15.8445 14.729 9.22905 22.9298 8.0448C24.929 7.75894 26.9282 7.79978 28.8866 8.1673Z" fill="url(#paint3_linear_94_3185)"/>
<path id="&#60;Path&#62;_37" d="M43.0036 22.9908C44.3908 32.6689 37.6588 41.6529 28.03 43.0822C27.3772 43.1638 26.7108 43.2183 26.0308 43.2455L26.1124 45.4915C26.874 45.4643 27.622 45.3962 28.3564 45.2873C39.25 43.7355 46.798 33.5673 45.2476 22.6641L43.0036 22.9908Z" fill="url(#paint4_linear_94_3185)"/>
</g>
<path id="&#60;Path&#62;_38" d="M39.3719 25.5225C39.3719 33.1997 33.1295 39.4068 25.4999 39.4068C17.8295 39.4068 11.6279 33.1997 11.6279 25.5225C11.6279 17.8453 17.8295 11.6382 25.4999 11.6382C33.1295 11.6382 39.3719 17.8453 39.3719 25.5225Z" fill="url(#paint5_linear_94_3185)"/>
<g id="&#60;Group&#62;_5">
<path id="&#60;Compound Path&#62;" fill-rule="evenodd" clip-rule="evenodd" d="M25.5002 40.7953C17.0546 40.7953 10.2002 33.9348 10.2002 25.5225C10.2002 17.0695 17.0546 10.209 25.5002 10.209C33.905 10.209 40.7594 17.0695 40.7594 25.5225C40.7594 33.9348 33.905 40.7953 25.5002 40.7953ZM25.5002 13.0267C18.605 13.0267 13.0154 18.6212 13.0154 25.5225C13.0154 32.383 18.605 37.9776 25.5002 37.9776C32.3546 37.9776 37.9442 32.383 37.9442 25.5225C37.9442 18.6212 32.3546 13.0267 25.5002 13.0267Z" fill="white"/>
</g>
<g id="&#60;Group&#62;_6">
<path id="&#60;Compound Path&#62;_2" fill-rule="evenodd" clip-rule="evenodd" d="M21.1208 30.2499C19.7336 30.2499 18.7 29.7871 18.02 28.8614C17.34 27.9358 17 26.6971 17 25.1454C17 23.5936 17.34 22.3413 18.02 21.3884C18.7 20.4628 19.7336 20 21.1208 20C22.4808 20 23.5008 20.4628 24.1808 21.3884C24.8608 22.3413 25.2008 23.5936 25.2008 25.1454C25.2008 26.6971 24.8608 27.9358 24.1808 28.8614C23.5008 29.7871 22.4808 30.2499 21.1208 30.2499ZM19.652 22.736C19.3528 23.3349 19.2032 24.1381 19.2032 25.1454C19.2032 26.1254 19.3528 26.9285 19.652 27.5547C19.9512 28.1536 20.4408 28.4531 21.1208 28.4531C21.7736 28.4531 22.2632 28.1536 22.5896 27.5547C22.8888 26.9285 23.0384 26.1254 23.0384 25.1454C23.0384 24.1381 22.8888 23.3349 22.5896 22.736C22.2632 22.1371 21.7736 21.8376 21.1208 21.8376C20.4408 21.8376 19.9512 22.1371 19.652 22.736Z" fill="white"/>
<path id="&#60;Compound Path&#62;_3" d="M33.4887 20V21.9184H29.571V23.551C29.843 23.4694 30.1695 23.4286 30.5504 23.4286C31.5298 23.4286 32.3596 23.7143 33.0398 24.2857C33.7199 24.8571 34.06 25.6326 34.06 26.6122C34.06 27.5918 33.7063 28.4082 32.999 29.0612C32.2916 29.6871 31.4074 30 30.3464 30C29.0133 30 27.8978 29.5102 27 28.5306L28.1427 26.898C28.2243 26.9796 28.3467 27.0884 28.5099 27.2245C28.646 27.3333 28.9044 27.4966 29.2853 27.7143C29.6662 27.9048 30.0471 28 30.428 28C30.7817 28 31.1081 27.8912 31.4074 27.6735C31.7067 27.4558 31.8563 27.1156 31.8563 26.6531C31.8563 26.2177 31.6931 25.8775 31.3666 25.6326C31.0673 25.3878 30.6592 25.2653 30.1423 25.2653C29.6526 25.2653 29.0813 25.4422 28.4283 25.7959L27.4897 24.8163V20H33.4887Z" fill="white"/>
</g>
</g>
<defs>
<linearGradient id="paint0_linear_94_3185" x1="-13.1003" y1="156.152" x2="32.0205" y2="149.599" gradientUnits="userSpaceOnUse">
<stop stop-color="#F8B45B"/>
<stop offset="1" stop-color="#F8B45B"/>
</linearGradient>
<linearGradient id="paint1_linear_94_3185" x1="22.3913" y1="153.266" x2="71.4576" y2="145.202" gradientUnits="userSpaceOnUse">
<stop stop-color="#F8B45B"/>
<stop offset="1" stop-color="#F8B45B"/>
</linearGradient>
<linearGradient id="paint2_linear_94_3185" x1="-11.43" y1="37.8327" x2="33.9701" y2="-7.80713" gradientUnits="userSpaceOnUse">
<stop stop-color="#F8B45B"/>
<stop offset="1" stop-color="#F8B45B"/>
</linearGradient>
<linearGradient id="paint3_linear_94_3185" x1="-18.1953" y1="111.668" x2="57.3052" y2="86.8622" gradientUnits="userSpaceOnUse">
<stop stop-color="#F8B45B"/>
<stop offset="1" stop-color="#F8B45B"/>
</linearGradient>
<linearGradient id="paint4_linear_94_3185" x1="6.54625" y1="153.21" x2="71.9433" y2="138.908" gradientUnits="userSpaceOnUse">
<stop stop-color="#F8B45B"/>
<stop offset="1" stop-color="#F8B45B"/>
</linearGradient>
<linearGradient id="paint5_linear_94_3185" x1="-16.2102" y1="170.442" x2="75.6337" y2="146.85" gradientUnits="userSpaceOnUse">
<stop stop-color="#F8B45B"/>
<stop offset="1" stop-color="#F8B45B"/>
</linearGradient>
</defs>
</svg>
